# Blender v2.79 (sub 0) OBJ File: ''
# www.blender.org
mtllib PavementCE.mtl
o 7_Pavement-C-E
v -0.378994 0.005004 0.217631
v -0.069208 0.005004 0.217631
v -0.140402 0.005004 0.146438
v 0.041683 0.005004 0.018735
v 0.240578 0.005004 0.217631
v 0.240578 0.005004 -0.092156
v 0.169385 0.005004 -0.163350
v 0.240578 0.005004 -0.401944
v -0.378994 0.005004 0.217631
v -0.140402 0.005004 0.146438
v -0.140402 -0.008506 0.146438
v -0.140402 -0.008506 0.146438
v -0.378994 -0.008506 0.217631
v -0.378994 0.005004 0.217631
v 0.041683 0.005004 0.018735
v 0.169385 0.005004 -0.163350
v 0.169385 -0.008506 -0.163350
v 0.169385 -0.008506 -0.163350
v 0.041683 -0.008506 0.018735
v -0.140402 0.005004 0.146438
v 0.041683 0.005004 0.018735
v 0.041683 -0.008506 0.018735
v -0.140402 -0.008506 0.146438
v 0.169385 0.005004 -0.163350
v 0.240578 0.005004 -0.401944
v 0.240578 -0.008506 -0.401944
v 0.169385 -0.008506 -0.163350
vt 0.000039 0.625159
vt 0.062435 0.625159
vt 0.048096 0.639499
vt 0.084771 0.665220
vt 0.124832 0.625159
vt 0.124832 0.687556
vt 0.110492 0.701895
vt 0.124832 0.749952
vt 0.124831 0.627203
vt 0.093641 0.627203
vt 0.093641 0.625115
vt 0.093641 0.625115
vt 0.124831 0.625115
vt 0.124831 0.627203
vt 0.062450 0.627203
vt 0.031259 0.627203
vt 0.031259 0.625115
vt 0.031259 0.625115
vt 0.062450 0.625115
vt 0.093641 0.627203
vt 0.062450 0.627203
vt 0.062450 0.625115
vt 0.093641 0.625115
vt 0.031259 0.627203
vt 0.000069 0.627203
vt 0.000069 0.625115
vt 0.031259 0.625115
vn 0.0000 1.0000 0.0000
vn -0.2859 0.0000 -0.9583
vn -0.8187 0.0000 -0.5742
vn -0.5742 0.0000 -0.8187
vn -0.9583 0.0000 -0.2859
usemtl 7_Pavement-C-E
s 1
f 1/1/1 2/2/1 3/3/1
f 4/4/1 3/3/1 2/2/1
f 2/2/1 5/5/1 4/4/1
f 4/4/1 5/5/1 6/6/1
f 6/6/1 7/7/1 4/4/1
f 6/6/1 8/8/1 7/7/1
f 9/9/2 10/10/2 11/11/2
f 12/12/2 13/13/2 14/14/2
f 15/15/3 16/16/3 17/17/3
f 18/18/3 19/19/3 15/15/3
f 20/20/4 21/21/4 22/22/4
f 22/22/4 23/23/4 20/20/4
f 24/24/5 25/25/5 26/26/5
f 26/26/5 27/27/5 24/24/5
