# Blender v2.79 (sub 0) OBJ File: ''
# www.blender.org
mtllib PavementBE.mtl
o 7_Pavement-B-E
v -0.378995 0.005004 0.217632
v -0.069208 0.005004 0.217632
v -0.140402 0.005004 0.146439
v 0.041683 0.005004 0.018737
v 0.240579 0.005004 0.217632
v 0.240579 0.005004 -0.092155
v 0.169385 0.005004 -0.163349
v 0.240579 0.005004 -0.401943
v -0.378995 0.005004 0.217632
v -0.140402 0.005004 0.146439
v -0.140402 -0.008506 0.146439
v -0.140402 -0.008506 0.146439
v -0.378995 -0.008506 0.217632
v -0.378995 0.005004 0.217632
v 0.041683 0.005004 0.018737
v 0.169385 0.005004 -0.163349
v 0.169385 -0.008506 -0.163349
v 0.169385 -0.008506 -0.163349
v 0.041683 -0.008506 0.018737
v -0.140402 0.005004 0.146439
v 0.041683 0.005004 0.018737
v 0.041683 -0.008506 0.018737
v -0.140402 -0.008506 0.146439
v 0.169385 0.005004 -0.163349
v 0.240579 0.005004 -0.401943
v 0.240579 -0.008506 -0.401943
v 0.169385 -0.008506 -0.163349
vt 0.375357 0.625288
vt 0.437615 0.625288
vt 0.423307 0.639596
vt 0.459901 0.665261
vt 0.499873 0.625288
vt 0.499873 0.687547
vt 0.485565 0.701855
vt 0.499873 0.749805
vt 0.499873 0.627328
vt 0.468751 0.627328
vt 0.468751 0.625244
vt 0.468751 0.625244
vt 0.499873 0.625244
vt 0.499873 0.627328
vt 0.437630 0.627328
vt 0.406508 0.627328
vt 0.406508 0.625244
vt 0.406508 0.625244
vt 0.437630 0.625244
vt 0.468751 0.627328
vt 0.437630 0.627328
vt 0.437630 0.625244
vt 0.468751 0.625244
vt 0.406508 0.627328
vt 0.375386 0.627328
vt 0.375386 0.625244
vt 0.406508 0.625244
vn 0.0000 1.0000 0.0000
vn -0.2859 0.0000 -0.9583
vn -0.8187 0.0000 -0.5742
vn -0.5742 0.0000 -0.8187
vn -0.9583 0.0000 -0.2859
usemtl 7_Pavement-B-E
s 1
f 1/1/1 2/2/1 3/3/1
f 4/4/1 3/3/1 2/2/1
f 2/2/1 5/5/1 4/4/1
f 4/4/1 5/5/1 6/6/1
f 6/6/1 7/7/1 4/4/1
f 6/6/1 8/8/1 7/7/1
f 9/9/2 10/10/2 11/11/2
f 12/12/2 13/13/2 14/14/2
f 15/15/3 16/16/3 17/17/3
f 18/18/3 19/19/3 15/15/3
f 20/20/4 21/21/4 22/22/4
f 22/22/4 23/23/4 20/20/4
f 24/24/5 25/25/5 26/26/5
f 26/26/5 27/27/5 24/24/5
