# Blender v2.79 (sub 0) OBJ File: ''
# www.blender.org
mtllib PavementAA.mtl
o 7_Pavement-A-A
v 0.309787 0.005404 0.309788
v 0.309787 0.005404 -0.309787
v -0.309788 0.005404 -0.309787
v -0.309788 0.005404 0.309788
v 0.309787 0.005404 -0.309787
v 0.309787 0.005404 0.309788
v 0.309787 -0.008106 0.309788
v 0.309787 -0.008106 -0.309787
v 0.309787 0.005404 0.309788
v -0.309788 0.005404 0.309788
v -0.309788 -0.008106 0.309788
v 0.309787 -0.008106 0.309788
v -0.309788 0.005404 -0.309787
v 0.309787 0.005404 -0.309787
v 0.309787 -0.008106 -0.309787
v -0.309788 -0.008106 -0.309787
v -0.309788 0.005404 0.309788
v -0.309788 0.005404 -0.309787
v -0.309788 -0.008106 -0.309787
v -0.309788 -0.008106 0.309788
vt 0.374933 0.125138
vt 0.374933 0.249931
vt 0.250141 0.249931
vt 0.250141 0.125138
vt 0.374933 0.127101
vt 0.250171 0.127101
vt 0.250171 0.125137
vt 0.374933 0.125137
vt 0.374933 0.127101
vt 0.250171 0.127101
vt 0.250171 0.125137
vt 0.374933 0.125137
vt 0.374933 0.127101
vt 0.250171 0.127101
vt 0.250171 0.125137
vt 0.374933 0.125137
vt 0.374933 0.127101
vt 0.250171 0.127101
vt 0.250171 0.125137
vt 0.374933 0.125137
vn 0.0000 1.0000 0.0000
vn 1.0000 0.0000 0.0000
vn 0.0000 0.0000 1.0000
vn 0.0000 0.0000 -1.0000
vn -1.0000 0.0000 0.0000
usemtl 7_Pavement-A-A
s 1
f 1/1/1 2/2/1 3/3/1
f 3/3/1 4/4/1 1/1/1
f 5/5/2 6/6/2 7/7/2
f 7/7/2 8/8/2 5/5/2
f 9/9/3 10/10/3 11/11/3
f 11/11/3 12/12/3 9/9/3
f 13/13/4 14/14/4 15/15/4
f 15/15/4 16/16/4 13/13/4
f 17/17/5 18/18/5 19/19/5
f 19/19/5 20/20/5 17/17/5
