# Blender v2.79 (sub 0) OBJ File: ''
# www.blender.org
mtllib PavementCB.mtl
o 7_Pavement-C-B
v 0.121402 0.004323 -0.206050
v -0.413525 0.004323 -0.206050
v -0.413525 0.004323 0.413525
v 0.206049 0.004324 0.413525
v 0.206050 0.004324 -0.121401
v -0.413525 0.004323 0.413525
v 0.153794 0.004323 -0.199603
v 0.121402 0.004323 -0.206050
v -0.413525 0.004323 0.413525
v 0.199605 0.004323 -0.153793
v 0.181255 0.004323 -0.181254
v -0.413525 0.004323 0.413525
v 0.181255 0.004323 -0.181254
v 0.153794 0.004323 -0.199603
v -0.413525 0.004323 0.413525
v 0.206050 0.004324 -0.121401
v 0.199605 0.004323 -0.153793
v -0.413525 0.004323 0.413525
v -0.413525 0.004323 -0.206050
v 0.121402 0.004323 -0.206050
v 0.121402 -0.009186 -0.206050
v -0.413525 -0.009186 -0.206050
v 0.121402 0.004323 -0.206050
v 0.153794 0.004323 -0.199603
v 0.153794 -0.009186 -0.199603
v 0.121402 -0.009186 -0.206050
v 0.181255 0.004323 -0.181254
v 0.199605 0.004323 -0.153793
v 0.199605 -0.009186 -0.153793
v 0.181255 -0.009186 -0.181254
v 0.153794 0.004323 -0.199603
v 0.181255 0.004323 -0.181254
v 0.181255 -0.009186 -0.181254
v 0.153794 -0.009186 -0.199603
v 0.199605 0.004323 -0.153793
v 0.206050 0.004324 -0.121401
v 0.206050 -0.009186 -0.121401
v 0.199605 -0.009186 -0.153793
v 0.206050 0.004324 -0.121401
v 0.206049 0.004324 0.413525
v 0.206049 -0.009186 0.413525
v 0.206050 -0.009186 -0.121401
v -0.413525 0.004323 0.413525
v -0.413525 0.004323 -0.206050
v -0.413525 -0.009186 -0.206050
v -0.413525 -0.009186 0.413525
v 0.206049 0.004324 0.413525
v -0.413525 0.004323 0.413525
v -0.413525 -0.009186 0.413525
v 0.206049 -0.009186 0.413525
vt 0.109664 0.749741
vt 0.000059 0.749741
vt 0.000059 0.625161
vt 0.124638 0.625161
vt 0.124638 0.734766
vt 0.000059 0.625161
vt 0.115394 0.748601
vt 0.109664 0.749741
vt 0.000059 0.625161
vt 0.123498 0.740497
vt 0.120252 0.745355
vt 0.000059 0.625161
vt 0.120252 0.745355
vt 0.115394 0.748601
vt 0.000059 0.625161
vt 0.124638 0.734766
vt 0.123498 0.740497
vt 0.000059 0.625161
vt 0.115127 0.627655
vt 0.012838 0.627655
vt 0.012838 0.624981
vt 0.115127 0.624981
vt 0.012838 0.627655
vt 0.006315 0.627655
vt 0.006315 0.624981
vt 0.012838 0.624981
vt 0.115127 0.627655
vt 0.108940 0.627655
vt 0.108940 0.624981
vt 0.115127 0.624981
vt 0.006315 0.627655
vt 0.000127 0.627655
vt 0.000127 0.624981
vt 0.006315 0.624981
vt 0.108940 0.627655
vt 0.102416 0.627655
vt 0.102416 0.624981
vt 0.108940 0.624981
vt 0.102416 0.627655
vt 0.000127 0.627655
vt 0.000127 0.624981
vt 0.102416 0.624981
vt 0.115127 0.627572
vt 0.000127 0.627572
vt 0.000127 0.625064
vt 0.115127 0.625064
vt 0.115127 0.627572
vt 0.000127 0.627572
vt 0.000127 0.625064
vt 0.115127 0.625064
vn 0.0000 1.0000 0.0000
vn 0.0000 0.0000 -1.0000
vn 0.1952 0.0000 -0.9808
vn 0.8315 0.0000 -0.5556
vn 0.5556 0.0000 -0.8315
vn 0.9808 0.0000 -0.1952
vn 1.0000 0.0000 0.0000
vn -1.0000 0.0000 0.0000
vn 0.0000 0.0000 1.0000
usemtl 7_Pavement-C-B
s 1
f 1/1/1 2/2/1 3/3/1
f 4/4/1 5/5/1 6/6/1
f 7/7/1 8/8/1 9/9/1
f 10/10/1 11/11/1 12/12/1
f 13/13/1 14/14/1 15/15/1
f 16/16/1 17/17/1 18/18/1
f 19/19/2 20/20/2 21/21/2
f 22/22/2 19/19/2 21/21/2
f 23/23/3 24/24/3 25/25/3
f 26/26/3 23/23/3 25/25/3
f 27/27/4 28/28/4 29/29/4
f 30/30/4 27/27/4 29/29/4
f 31/31/5 32/32/5 33/33/5
f 34/34/5 31/31/5 33/33/5
f 35/35/6 36/36/6 37/37/6
f 38/38/6 35/35/6 37/37/6
f 39/39/7 40/40/7 41/41/7
f 42/42/7 39/39/7 41/41/7
f 43/43/8 44/44/8 45/45/8
f 46/46/8 43/43/8 45/45/8
f 47/47/9 48/48/9 49/49/9
f 50/50/9 47/47/9 49/49/9
