# Blender v2.79 (sub 0) OBJ File: ''
# www.blender.org
mtllib PavementAE.mtl
o 7_Pavement-A-E
v -0.427758 0.005975 0.203732
v -0.117971 0.005975 0.203732
v -0.189164 0.005975 0.132539
v -0.007079 0.005975 0.004837
v 0.191816 0.005975 0.203732
v 0.191816 0.005975 -0.106055
v 0.120623 0.005975 -0.177249
v 0.191816 0.005975 -0.415843
v -0.427758 0.005975 0.203732
v -0.189164 0.005975 0.132539
v -0.189164 -0.007535 0.132539
v -0.189164 -0.007535 0.132539
v -0.427758 -0.007535 0.203732
v -0.427758 0.005975 0.203732
v -0.007079 0.005975 0.004837
v 0.120623 0.005975 -0.177249
v 0.120623 -0.007535 -0.177249
v 0.120623 -0.007535 -0.177249
v -0.007079 -0.007535 0.004837
v -0.189164 0.005975 0.132539
v -0.007079 0.005975 0.004837
v -0.007079 -0.007535 0.004837
v -0.189164 -0.007535 0.132539
v 0.120623 0.005975 -0.177249
v 0.191816 0.005975 -0.415843
v 0.191816 -0.007534 -0.415843
v 0.191816 -0.007534 -0.415843
v 0.120623 -0.007535 -0.177249
v 0.120623 0.005975 -0.177249
v 0.191816 0.005975 -0.106055
v 0.191817 -0.007535 -0.106055
v 0.191816 -0.007534 -0.415843
v 0.191816 -0.007534 -0.415843
v 0.191816 0.005975 -0.415843
v 0.191816 0.005975 -0.106055
v -0.117971 0.005975 0.203732
v -0.117971 -0.007535 0.203733
v 0.191817 -0.007535 0.203733
v 0.191817 -0.007535 0.203733
v 0.191816 0.005975 0.203732
v -0.117971 0.005975 0.203732
v -0.427758 0.005975 0.203732
v -0.427758 -0.007535 0.203732
v -0.117971 -0.007535 0.203733
v -0.117971 -0.007535 0.203733
v -0.427758 0.005975 0.203732
v 0.191816 0.005975 0.203732
v 0.191817 -0.007535 0.203733
v 0.191817 -0.007535 -0.106055
v 0.191817 -0.007535 -0.106055
v 0.191816 0.005975 -0.106055
v 0.191816 0.005975 0.203732
vt 0.250141 0.125138
vt 0.312537 0.125138
vt 0.298197 0.139478
vt 0.334872 0.165199
vt 0.374933 0.125138
vt 0.374933 0.187535
vt 0.360594 0.201874
vt 0.374933 0.249931
vt 0.374933 0.127182
vt 0.343742 0.127182
vt 0.343742 0.125094
vt 0.343742 0.125094
vt 0.374933 0.125094
vt 0.374933 0.127182
vt 0.312552 0.127182
vt 0.281361 0.127182
vt 0.281361 0.125094
vt 0.281361 0.125094
vt 0.312552 0.125094
vt 0.343742 0.127182
vt 0.312552 0.127182
vt 0.312552 0.125094
vt 0.343742 0.125094
vt 0.281361 0.127182
vt 0.250171 0.127182
vt 0.250171 0.125094
vt 0.250171 0.125094
vt 0.281361 0.125094
vt 0.281361 0.127182
vt 0.312552 0.127101
vt 0.312552 0.125137
vt 0.374933 0.125137
vt 0.374933 0.125137
vt 0.374933 0.127101
vt 0.312552 0.127101
vt 0.312552 0.127101
vt 0.312552 0.125137
vt 0.374933 0.125137
vt 0.374933 0.125137
vt 0.374933 0.127101
vt 0.312552 0.127101
vt 0.250171 0.127101
vt 0.250171 0.125137
vt 0.312552 0.125137
vt 0.312552 0.125137
vt 0.250171 0.127101
vt 0.250171 0.127101
vt 0.250171 0.125137
vt 0.312552 0.125137
vt 0.312552 0.125137
vt 0.312552 0.127101
vt 0.250171 0.127101
vn 0.0000 1.0000 0.0000
vn -0.2859 0.0000 -0.9583
vn -0.8187 0.0000 -0.5742
vn -0.5742 -0.0000 -0.8187
vn -0.9583 0.0000 -0.2859
vn 1.0000 0.0001 -0.0000
vn 1.0000 0.0000 0.0000
vn 0.0000 0.0001 1.0000
vn -0.0000 0.0000 1.0000
usemtl 7_Pavement-A-E
s 1
f 1/1/1 2/2/1 3/3/1
f 4/4/1 3/3/1 2/2/1
f 2/2/1 5/5/1 4/4/1
f 4/4/1 5/5/1 6/6/1
f 6/6/1 7/7/1 4/4/1
f 6/6/1 8/8/1 7/7/1
f 9/9/2 10/10/2 11/11/2
f 12/12/2 13/13/2 14/14/2
f 15/15/3 16/16/3 17/17/3
f 18/18/3 19/19/3 15/15/3
f 20/20/4 21/21/4 22/22/4
f 22/22/4 23/23/4 20/20/4
f 24/24/5 25/25/5 26/26/5
f 27/27/5 28/28/5 29/29/5
f 30/30/6 31/31/6 32/32/6
f 33/33/7 34/34/7 35/35/7
f 36/36/8 37/37/8 38/38/8
f 39/39/8 40/40/8 41/41/8
f 42/42/9 43/43/9 44/44/9
f 45/45/8 36/36/8 46/46/8
f 47/47/6 48/48/6 49/49/6
f 50/50/6 51/51/6 52/52/6
