# Blender v2.79 (sub 0) OBJ File: ''
# www.blender.org
mtllib PavementDB.mtl
o 7_Pavement-D-B
v 0.121402 0.004323 -0.206050
v -0.413525 0.004323 -0.206050
v -0.413525 0.004323 0.413525
v 0.206050 0.004324 0.413525
v 0.206050 0.004324 -0.121401
v -0.413525 0.004323 0.413525
v 0.153794 0.004323 -0.199604
v 0.121402 0.004323 -0.206050
v -0.413525 0.004323 0.413525
v 0.199605 0.004323 -0.153794
v 0.181255 0.004323 -0.181255
v -0.413525 0.004323 0.413525
v 0.181255 0.004323 -0.181255
v 0.153794 0.004323 -0.199604
v -0.413525 0.004323 0.413525
v 0.206050 0.004324 -0.121401
v 0.199605 0.004323 -0.153794
v -0.413525 0.004323 0.413525
v -0.413525 0.004323 -0.206050
v 0.121402 0.004323 -0.206050
v 0.121402 -0.009186 -0.206050
v -0.413525 -0.009186 -0.206050
v 0.121402 0.004323 -0.206050
v 0.153794 0.004323 -0.199604
v 0.153794 -0.009186 -0.199604
v 0.121402 -0.009186 -0.206050
v 0.181255 0.004323 -0.181255
v 0.199605 0.004323 -0.153794
v 0.199605 -0.009186 -0.153794
v 0.181255 -0.009186 -0.181255
v 0.153794 0.004323 -0.199604
v 0.181255 0.004323 -0.181255
v 0.181255 -0.009186 -0.181255
v 0.153794 -0.009186 -0.199604
v 0.199605 0.004323 -0.153794
v 0.206050 0.004324 -0.121401
v 0.206050 -0.009186 -0.121401
v 0.199605 -0.009186 -0.153794
v 0.206050 0.004324 -0.121401
v 0.206050 0.004324 0.413525
v 0.206050 -0.009186 0.413525
v 0.206050 -0.009186 -0.121401
v -0.413525 0.004323 0.413525
v -0.413525 0.004323 -0.206050
v -0.413525 -0.009186 -0.206050
v -0.413525 -0.009186 0.413525
v 0.206050 0.004324 0.413525
v -0.413525 0.004323 0.413525
v -0.413525 -0.009186 0.413525
v 0.206050 -0.009186 0.413525
vt 0.608543 0.123769
vt 0.500360 0.123769
vt 0.500360 0.000806
vt 0.623323 0.000806
vt 0.623323 0.108989
vt 0.500360 0.000806
vt 0.614199 0.122644
vt 0.608543 0.123769
vt 0.500360 0.000806
vt 0.622198 0.114645
vt 0.618994 0.119440
vt 0.500360 0.000806
vt 0.618994 0.119440
vt 0.614199 0.122644
vt 0.500360 0.000806
vt 0.623323 0.108989
vt 0.622198 0.114645
vt 0.500360 0.000806
vt 0.613936 0.003267
vt 0.512973 0.003267
vt 0.512973 0.000628
vt 0.613936 0.000628
vt 0.512973 0.003267
vt 0.506535 0.003267
vt 0.506535 0.000628
vt 0.512973 0.000628
vt 0.613936 0.003267
vt 0.607828 0.003267
vt 0.607828 0.000628
vt 0.613936 0.000628
vt 0.506535 0.003267
vt 0.500427 0.003267
vt 0.500427 0.000628
vt 0.506535 0.000628
vt 0.607828 0.003267
vt 0.601390 0.003267
vt 0.601390 0.000628
vt 0.607828 0.000628
vt 0.601390 0.003267
vt 0.500427 0.003267
vt 0.500427 0.000628
vt 0.601390 0.000628
vt 0.613936 0.003185
vt 0.500427 0.003185
vt 0.500427 0.000710
vt 0.613936 0.000710
vt 0.613936 0.003185
vt 0.500427 0.003185
vt 0.500427 0.000710
vt 0.613936 0.000710
vn 0.0000 1.0000 0.0000
vn 0.0000 0.0000 -1.0000
vn 0.1952 0.0000 -0.9808
vn 0.8315 0.0000 -0.5556
vn 0.5556 0.0000 -0.8315
vn 0.9808 0.0000 -0.1952
vn 1.0000 0.0000 0.0000
vn -1.0000 0.0000 0.0000
vn 0.0000 0.0000 1.0000
usemtl 7_Pavement-D-B
s 1
f 1/1/1 2/2/1 3/3/1
f 4/4/1 5/5/1 6/6/1
f 7/7/1 8/8/1 9/9/1
f 10/10/1 11/11/1 12/12/1
f 13/13/1 14/14/1 15/15/1
f 16/16/1 17/17/1 18/18/1
f 19/19/2 20/20/2 21/21/2
f 22/22/2 19/19/2 21/21/2
f 23/23/3 24/24/3 25/25/3
f 26/26/3 23/23/3 25/25/3
f 27/27/4 28/28/4 29/29/4
f 30/30/4 27/27/4 29/29/4
f 31/31/5 32/32/5 33/33/5
f 34/34/5 31/31/5 33/33/5
f 35/35/6 36/36/6 37/37/6
f 38/38/6 35/35/6 37/37/6
f 39/39/7 40/40/7 41/41/7
f 42/42/7 39/39/7 41/41/7
f 43/43/8 44/44/8 45/45/8
f 46/46/8 43/43/8 45/45/8
f 47/47/9 48/48/9 49/49/9
f 50/50/9 47/47/9 49/49/9
