# Blender v2.79 (sub 0) OBJ File: ''
# www.blender.org
mtllib PavementBB.mtl
o 7_Pavement-B-B
v 0.121402 0.004323 -0.206050
v -0.413525 0.004323 -0.206050
v -0.413525 0.004323 0.413525
v 0.206049 0.004324 0.413525
v 0.206050 0.004324 -0.121401
v -0.413525 0.004323 0.413525
v 0.153794 0.004323 -0.199603
v 0.121402 0.004323 -0.206050
v -0.413525 0.004323 0.413525
v 0.199605 0.004323 -0.153794
v 0.181255 0.004323 -0.181255
v -0.413525 0.004323 0.413525
v 0.181255 0.004323 -0.181255
v 0.153794 0.004323 -0.199603
v -0.413525 0.004323 0.413525
v 0.206050 0.004324 -0.121401
v 0.199605 0.004323 -0.153794
v -0.413525 0.004323 0.413525
v -0.413525 0.004323 -0.206050
v 0.121402 0.004323 -0.206050
v 0.121402 -0.009186 -0.206050
v -0.413525 -0.009186 -0.206050
v 0.121402 0.004323 -0.206050
v 0.153794 0.004323 -0.199603
v 0.153794 -0.009186 -0.199603
v 0.121402 -0.009186 -0.206050
v 0.181255 0.004323 -0.181255
v 0.199605 0.004323 -0.153794
v 0.199605 -0.009186 -0.153794
v 0.181255 -0.009186 -0.181255
v 0.153794 0.004323 -0.199603
v 0.181255 0.004323 -0.181255
v 0.181255 -0.009186 -0.181255
v 0.153794 -0.009186 -0.199603
v 0.199605 0.004323 -0.153794
v 0.206050 0.004324 -0.121401
v 0.206050 -0.009186 -0.121401
v 0.199605 -0.009186 -0.153794
v 0.206050 0.004324 -0.121401
v 0.206049 0.004324 0.413525
v 0.206049 -0.009186 0.413525
v 0.206050 -0.009186 -0.121401
v -0.413525 0.004323 0.413525
v -0.413525 0.004323 -0.206050
v -0.413525 -0.009186 -0.206050
v -0.413525 -0.009186 0.413525
v 0.206049 0.004324 0.413525
v -0.413525 0.004323 0.413525
v -0.413525 -0.009186 0.413525
v 0.206049 -0.009186 0.413525
vt 0.484739 0.749595
vt 0.375376 0.749595
vt 0.375376 0.625291
vt 0.499680 0.625291
vt 0.499680 0.734653
vt 0.375376 0.625291
vt 0.490457 0.748457
vt 0.484739 0.749594
vt 0.375376 0.625291
vt 0.498543 0.740371
vt 0.495304 0.745218
vt 0.375376 0.625291
vt 0.495304 0.745218
vt 0.490457 0.748457
vt 0.375376 0.625291
vt 0.499680 0.734653
vt 0.498543 0.740371
vt 0.375376 0.625291
vt 0.490190 0.627779
vt 0.388128 0.627779
vt 0.388128 0.625111
vt 0.490190 0.625111
vt 0.388128 0.627779
vt 0.381619 0.627779
vt 0.381619 0.625111
vt 0.388128 0.625111
vt 0.490190 0.627779
vt 0.484016 0.627779
vt 0.484016 0.625111
vt 0.490190 0.625111
vt 0.381619 0.627779
vt 0.375445 0.627779
vt 0.375445 0.625111
vt 0.381619 0.625111
vt 0.484016 0.627779
vt 0.477508 0.627779
vt 0.477508 0.625111
vt 0.484016 0.625111
vt 0.477508 0.627779
vt 0.375445 0.627779
vt 0.375445 0.625111
vt 0.477508 0.625111
vt 0.490190 0.627696
vt 0.375445 0.627696
vt 0.375445 0.625194
vt 0.490190 0.625194
vt 0.490190 0.627696
vt 0.375445 0.627696
vt 0.375445 0.625194
vt 0.490190 0.625194
vn 0.0000 1.0000 0.0000
vn 0.0000 0.0000 -1.0000
vn 0.1952 0.0000 -0.9808
vn 0.8315 0.0000 -0.5556
vn 0.5555 0.0000 -0.8315
vn 0.9808 0.0000 -0.1952
vn 1.0000 0.0000 0.0000
vn -1.0000 0.0000 0.0000
vn 0.0000 0.0000 1.0000
usemtl 7_Pavement-B-B
s 1
f 1/1/1 2/2/1 3/3/1
f 4/4/1 5/5/1 6/6/1
f 7/7/1 8/8/1 9/9/1
f 10/10/1 11/11/1 12/12/1
f 13/13/1 14/14/1 15/15/1
f 16/16/1 17/17/1 18/18/1
f 19/19/2 20/20/2 21/21/2
f 22/22/2 19/19/2 21/21/2
f 23/23/3 24/24/3 25/25/3
f 26/26/3 23/23/3 25/25/3
f 27/27/4 28/28/4 29/29/4
f 30/30/4 27/27/4 29/29/4
f 31/31/5 32/32/5 33/33/5
f 34/34/5 31/31/5 33/33/5
f 35/35/6 36/36/6 37/37/6
f 38/38/6 35/35/6 37/37/6
f 39/39/7 40/40/7 41/41/7
f 42/42/7 39/39/7 41/41/7
f 43/43/8 44/44/8 45/45/8
f 46/46/8 43/43/8 45/45/8
f 47/47/9 48/48/9 49/49/9
f 50/50/9 47/47/9 49/49/9
