# Blender v2.79 (sub 0) OBJ File: ''
# www.blender.org
mtllib PavementDD.mtl
o 7_Pavement-D-D
v -0.350205 0.004864 0.281760
v -0.111612 0.004864 0.210567
v -0.350205 0.004864 -0.028027
v 0.269368 0.004864 -0.337814
v -0.040418 0.004864 -0.337814
v 0.198175 0.004864 -0.099221
v 0.070473 0.004864 0.082865
v -0.350205 0.004864 -0.337814
v -0.111612 0.004864 0.210567
v -0.350205 0.004864 0.281760
v -0.350205 -0.008646 0.281760
v -0.111612 -0.008646 0.210567
v 0.198175 0.004864 -0.099221
v 0.070473 0.004864 0.082865
v 0.070473 -0.008646 0.082865
v 0.198175 -0.008646 -0.099221
v 0.070473 0.004864 0.082865
v -0.111612 0.004864 0.210567
v -0.111612 -0.008646 0.210567
v 0.070473 -0.008646 0.082865
v 0.269368 0.004864 -0.337814
v 0.198175 0.004864 -0.099221
v 0.198175 -0.008646 -0.099221
v 0.198175 -0.008646 -0.099221
v 0.269368 -0.008646 -0.337814
vt 0.500340 0.000804
vt 0.547773 0.014957
vt 0.500340 0.062391
vt 0.623514 0.123978
vt 0.561927 0.123978
vt 0.609361 0.076545
vt 0.583973 0.040345
vt 0.500340 0.123978
vt 0.531156 0.002821
vt 0.500370 0.002821
vt 0.500370 0.000760
vt 0.531156 0.000760
vt 0.592728 0.002821
vt 0.561942 0.002821
vt 0.561942 0.000760
vt 0.592728 0.000760
vt 0.561942 0.002821
vt 0.531156 0.002821
vt 0.531156 0.000760
vt 0.561942 0.000760
vt 0.623514 0.002821
vt 0.592728 0.002821
vt 0.592728 0.000760
vt 0.592728 0.000760
vt 0.623514 0.000760
vn 0.0000 1.0000 0.0000
vn 0.2859 0.0000 0.9583
vn 0.8187 0.0000 0.5742
vn 0.5742 0.0000 0.8187
vn 0.9583 0.0000 0.2859
usemtl 7_Pavement-D-D
s 1
f 1/1/1 2/2/1 3/3/1
f 4/4/1 5/5/1 6/6/1
f 3/3/1 2/2/1 7/7/1
f 7/7/1 6/6/1 5/5/1
f 7/7/1 8/8/1 3/3/1
f 5/5/1 8/8/1 7/7/1
f 9/9/2 10/10/2 11/11/2
f 11/11/2 12/12/2 9/9/2
f 13/13/3 14/14/3 15/15/3
f 15/15/3 16/16/3 13/13/3
f 17/17/4 18/18/4 19/19/4
f 19/19/4 20/20/4 17/17/4
f 21/21/5 22/22/5 23/23/5
f 24/24/5 25/25/5 21/21/5
