# Blender v2.79 (sub 0) OBJ File: ''
# www.blender.org
mtllib RoadWidening.mtl
o 7_Road-Widening
v -0.025396 -0.001223 0.198527
v -0.025396 0.002515 0.198527
v 0.594177 0.002516 0.414609
v 0.594177 0.002516 0.414609
v 0.594177 -0.001222 0.414609
v -0.025396 -0.001223 0.198527
v 0.594177 -0.019336 0.508313
v 0.594177 0.002516 0.508313
v -0.025396 0.002515 0.292231
v -0.025396 -0.019336 0.292231
v 0.594177 0.002516 0.508313
v 0.594177 0.002516 0.498341
v -0.025396 0.002515 0.282258
v -0.025396 0.002515 0.282258
v -0.025396 0.002515 0.292231
v 0.594177 0.002516 0.508313
v -0.025396 0.002515 0.198527
v -0.025396 0.002515 0.208498
v 0.594177 0.002516 0.424582
v 0.594177 0.002516 0.424582
v 0.594177 0.002516 0.414609
v -0.025396 0.002515 0.198527
v 0.594177 -0.001222 0.498341
v 0.594177 -0.001222 0.424582
v -0.025396 -0.001223 0.208498
v -0.025396 -0.001223 0.282258
v -0.025396 -0.001223 0.208498
v 0.594177 -0.001222 0.424582
v 0.594177 0.002516 0.424582
v -0.025396 0.002515 0.208498
v 0.594177 -0.001222 0.498341
v -0.025396 -0.001223 0.282258
v -0.025396 0.002515 0.282258
v 0.594177 0.002516 0.498341
v 0.594177 -0.001222 0.414609
v 0.594177 -0.001222 0.198527
v -0.025396 -0.001223 -0.017556
v -0.025396 -0.001223 0.198527
v -0.025396 -0.001223 -0.233639
v 0.594177 -0.001222 -0.449723
v 0.594177 0.002516 -0.449723
v -0.025396 0.002515 -0.233639
v -0.025396 -0.001223 -0.233639
v 0.594177 -0.019336 -0.543428
v -0.025396 -0.019336 -0.327344
v -0.025396 0.002515 -0.327344
v 0.594177 0.002516 -0.543428
v 0.594177 0.002516 -0.543428
v -0.025396 0.002515 -0.327344
v -0.025396 0.002515 -0.317372
v -0.025396 0.002515 -0.317372
v 0.594177 0.002516 -0.533455
v 0.594177 0.002516 -0.543428
v -0.025396 0.002515 -0.233639
v 0.594177 0.002516 -0.449723
v 0.594177 0.002516 -0.459697
v -0.025396 0.002515 -0.243613
v 0.594177 -0.001222 -0.533455
v -0.025396 -0.001223 -0.317372
v -0.025396 -0.001223 -0.243613
v 0.594177 -0.001222 -0.459697
v -0.025396 -0.001223 -0.243613
v -0.025396 0.002515 -0.243613
v 0.594177 0.002516 -0.459697
v 0.594177 -0.001222 -0.459697
v 0.594177 -0.001222 -0.533455
v 0.594177 0.002516 -0.533455
v -0.025396 0.002515 -0.317372
v -0.025396 -0.001223 -0.317372
v 0.594177 -0.001222 -0.449723
v -0.025396 -0.001223 -0.233639
v 0.594177 -0.001222 -0.233640
v -0.644967 -0.001223 -0.233639
v -0.025396 -0.001223 -0.233639
v -0.025396 0.002515 -0.233639
v -0.644967 0.002515 -0.233639
v -0.644967 -0.019336 -0.327344
v -0.644967 0.002515 -0.327344
v -0.025396 0.002515 -0.327344
v -0.644967 0.002515 -0.327344
v -0.644967 0.002515 -0.317371
v -0.025396 0.002515 -0.317372
v -0.644967 0.002515 -0.233639
v -0.025396 0.002515 -0.233639
v -0.025396 0.002515 -0.243613
v -0.644967 0.002515 -0.243613
v -0.644967 -0.001223 -0.317371
v -0.644967 -0.001223 -0.243613
v -0.644967 -0.001223 -0.243613
v -0.644967 0.002515 -0.243613
v -0.644967 0.002515 -0.317371
v -0.644967 -0.001223 -0.317371
v -0.644967 -0.001223 -0.233639
v -0.644967 -0.001223 -0.017556
v -0.644967 -0.001223 0.198527
v -0.644967 0.002515 0.198527
v -0.025396 0.002515 0.198527
v -0.025396 -0.001223 0.198527
v -0.644967 0.002515 0.292231
v -0.644967 -0.019336 0.292231
v -0.025396 0.002515 0.292231
v -0.025396 0.002515 0.282258
v -0.644967 0.002515 0.282258
v -0.644967 0.002515 0.282258
v -0.644967 0.002515 0.292231
v -0.025396 0.002515 0.292231
v -0.644967 0.002515 0.198527
v -0.644967 0.002515 0.208498
v -0.025396 0.002515 0.208498
v -0.025396 0.002515 0.208498
v -0.025396 0.002515 0.198527
v -0.644967 0.002515 0.198527
v -0.644967 -0.001223 0.208498
v -0.644967 -0.001223 0.282258
v -0.644967 -0.001223 0.208498
v -0.644967 0.002515 0.208498
v -0.644967 -0.001223 0.282258
v -0.644967 0.002515 0.282258
v -0.644967 -0.001223 0.198527
v 0.594177 -0.001222 0.198527
v 0.594177 -0.001222 -0.233640
v -0.025396 -0.001223 -0.017556
vt 0.128194 0.499316
vt 0.127699 0.499316
vt 0.127699 0.417958
vt 0.127699 0.417958
vt 0.128194 0.417958
vt 0.128194 0.499316
vt 0.125825 0.417958
vt 0.128724 0.417958
vt 0.128724 0.499316
vt 0.125825 0.499316
vt 0.128724 0.417958
vt 0.130047 0.417958
vt 0.130047 0.499316
vt 0.130047 0.499316
vt 0.128724 0.499316
vt 0.128724 0.417958
vt 0.127699 0.499316
vt 0.126376 0.499316
vt 0.126376 0.417958
vt 0.126376 0.417958
vt 0.127699 0.417958
vt 0.127699 0.499316
vt 0.146391 0.499496
vt 0.131673 0.499496
vt 0.131673 0.375869
vt 0.146391 0.375869
vt 0.125880 0.499316
vt 0.125880 0.417958
vt 0.126376 0.417958
vt 0.126376 0.499316
vt 0.130543 0.417958
vt 0.130543 0.499316
vt 0.130047 0.499316
vt 0.130047 0.417958
vt 0.124672 0.375393
vt 0.065447 0.375393
vt 0.065447 0.498372
vt 0.124672 0.498372
vt 0.128194 0.499316
vt 0.128194 0.417958
vt 0.127699 0.417958
vt 0.127699 0.499316
vt 0.128194 0.499316
vt 0.125825 0.417958
vt 0.125825 0.499316
vt 0.128724 0.499316
vt 0.128724 0.417958
vt 0.128724 0.417958
vt 0.128724 0.499316
vt 0.130047 0.499316
vt 0.130047 0.499316
vt 0.130047 0.417958
vt 0.128724 0.417958
vt 0.127699 0.499316
vt 0.127699 0.417958
vt 0.126376 0.417958
vt 0.126376 0.499316
vt 0.146391 0.499496
vt 0.146391 0.375869
vt 0.131673 0.375869
vt 0.131673 0.499496
vt 0.125880 0.499316
vt 0.126376 0.499316
vt 0.126376 0.417958
vt 0.125880 0.417958
vt 0.130543 0.417958
vt 0.130047 0.417958
vt 0.130047 0.499316
vt 0.130543 0.499316
vt 0.000225 0.498372
vt 0.000225 0.375393
vt 0.059538 0.375393
vt 0.059538 0.498372
vt 0.125847 0.499316
vt 0.125847 0.417958
vt 0.126343 0.417958
vt 0.126343 0.499316
vt 0.130562 0.417958
vt 0.130562 0.499316
vt 0.127663 0.499316
vt 0.127663 0.417958
vt 0.127663 0.417958
vt 0.127663 0.499316
vt 0.126340 0.499316
vt 0.126340 0.417958
vt 0.126343 0.499316
vt 0.126343 0.417958
vt 0.127666 0.417958
vt 0.127666 0.499316
vt 0.171486 0.499496
vt 0.171486 0.375869
vt 0.186204 0.375869
vt 0.186204 0.499496
vt 0.128162 0.499316
vt 0.127666 0.499316
vt 0.127666 0.417958
vt 0.128162 0.417958
vt 0.125844 0.417958
vt 0.126340 0.417958
vt 0.126340 0.499316
vt 0.125844 0.499316
vt 0.124672 0.375523
vt 0.124672 0.498502
vt 0.063037 0.498502
vt 0.063037 0.375523
vt 0.128194 0.499316
vt 0.127699 0.499316
vt 0.127699 0.417958
vt 0.128194 0.417958
vt 0.125825 0.417958
vt 0.128724 0.417958
vt 0.128724 0.499316
vt 0.125825 0.499316
vt 0.128724 0.417958
vt 0.130047 0.417958
vt 0.130047 0.499316
vt 0.130047 0.499316
vt 0.128724 0.499316
vt 0.128724 0.417958
vt 0.127699 0.499316
vt 0.126376 0.499316
vt 0.126376 0.417958
vt 0.126376 0.417958
vt 0.127699 0.417958
vt 0.127699 0.499316
vt 0.171392 0.499496
vt 0.156674 0.499496
vt 0.156674 0.375868
vt 0.171392 0.375868
vt 0.125880 0.499316
vt 0.125880 0.417958
vt 0.126376 0.417958
vt 0.126376 0.499316
vt 0.130543 0.417958
vt 0.130543 0.499316
vt 0.130047 0.499316
vt 0.130047 0.417958
vt 0.000225 0.498502
vt 0.062967 0.498502
vt 0.062967 0.375523
vt 0.000225 0.375523
vt 0.115056 0.471294
vt 0.069054 0.471294
vt 0.092055 0.405344
vn 0.3293 0.0000 -0.9442
vn -0.3293 0.0000 0.9442
vn -0.1670 0.0000 0.9860
vn -0.0000 1.0000 0.0000
vn 0.1670 0.0000 -0.9860
vn 0.3293 0.0000 0.9442
vn -0.3293 0.0000 -0.9442
vn -0.1670 0.0000 -0.9860
vn 0.1670 0.0000 0.9860
vn 0.0000 0.0000 1.0000
vn 0.0000 0.0000 -1.0000
usemtl 7_Road-Widening
s 1
f 1/1/1 2/2/1 3/3/1
f 4/4/1 5/5/1 6/6/1
f 7/7/2 8/8/2 9/9/3
f 9/9/3 10/10/3 7/7/2
f 11/11/4 12/12/4 13/13/4
f 14/14/4 15/15/4 16/16/4
f 17/17/4 18/18/4 19/19/4
f 20/20/4 21/21/4 22/22/4
f 23/23/4 24/24/4 25/25/4
f 25/25/4 26/26/4 23/23/4
f 27/27/3 28/28/2 29/29/2
f 29/29/2 30/30/3 27/27/3
f 31/31/1 32/32/5 33/33/5
f 33/33/5 34/34/1 31/31/1
f 35/35/4 36/36/4 37/37/4
f 37/37/4 38/38/4 35/35/4
f 39/39/6 40/40/6 41/41/6
f 41/41/6 42/42/6 43/43/6
f 44/44/7 45/45/8 46/46/8
f 46/46/8 47/47/7 44/44/7
f 48/48/4 49/49/4 50/50/4
f 51/51/4 52/52/4 53/53/4
f 54/54/4 55/55/4 56/56/4
f 56/56/4 57/57/4 54/54/4
f 58/58/4 59/59/4 60/60/4
f 60/60/4 61/61/4 58/58/4
f 62/62/8 63/63/8 64/64/7
f 64/64/7 65/65/7 62/62/8
f 66/66/6 67/67/6 68/68/9
f 68/68/9 69/69/9 66/66/6
f 70/70/4 71/71/4 37/72/4
f 37/72/4 72/73/4 70/70/4
f 73/74/10 74/75/10 75/76/10
f 75/76/10 76/77/10 73/74/10
f 45/78/8 77/79/11 78/80/11
f 78/80/11 46/81/8 45/78/8
f 79/82/4 80/83/4 81/84/4
f 81/84/4 82/85/4 79/82/4
f 83/86/4 84/87/4 85/88/4
f 85/88/4 86/89/4 83/86/4
f 59/90/4 87/91/4 88/92/4
f 88/92/4 60/93/4 59/90/4
f 89/94/11 90/95/11 63/96/8
f 63/96/8 62/97/8 89/94/11
f 69/98/9 68/99/9 91/100/10
f 91/100/10 92/101/10 69/98/9
f 71/102/4 93/103/4 94/104/4
f 94/104/4 37/105/4 71/102/4
f 95/106/11 96/107/11 97/108/11
f 97/108/11 98/109/11 95/106/11
f 10/110/3 9/111/3 99/112/10
f 99/112/10 100/113/10 10/110/3
f 101/114/4 102/115/4 103/116/4
f 104/117/4 105/118/4 106/119/4
f 107/120/4 108/121/4 109/122/4
f 110/123/4 111/124/4 112/125/4
f 26/126/4 25/127/4 113/128/4
f 113/128/4 114/129/4 26/126/4
f 115/130/10 27/131/3 30/132/3
f 30/132/3 116/133/10 115/130/10
f 32/134/5 117/135/11 118/136/11
f 118/136/11 33/137/5 32/134/5
f 38/138/4 37/139/4 94/140/4
f 94/140/4 119/141/4 38/138/4
f 120/142/4 121/143/4 122/144/4
