# Blender v2.79 (sub 0) OBJ File: ''
# www.blender.org
mtllib RoadIntersectionB.mtl
o 7_Road-Intersection-B
v -0.505063 -0.018951 -0.313533
v -0.505063 0.002900 -0.313533
v -0.272712 0.002900 -0.313521
v -0.272712 -0.018951 -0.313521
v -0.505063 0.002900 -0.303562
v -0.265233 0.002900 -0.303549
v -0.272712 0.002900 -0.313521
v -0.505063 0.002900 -0.313533
v -0.505063 -0.000838 -0.229802
v -0.209917 -0.000838 -0.229793
v -0.265233 -0.000838 -0.303549
v -0.505063 -0.000838 -0.303562
v -0.505063 0.002900 -0.229802
v -0.209917 0.002900 -0.229793
v -0.209917 -0.000838 -0.229793
v -0.505063 -0.000838 -0.229802
v 0.114509 -0.000838 -0.003747
v -0.202438 -0.000838 -0.219822
v -0.505063 -0.000838 -0.219830
v -0.505063 -0.000838 -0.003747
v -0.202438 0.002900 -0.219822
v -0.202438 -0.000838 -0.219822
v -0.133879 -0.000838 -0.252135
v -0.133879 0.002900 -0.252135
v -0.145342 0.002900 -0.263599
v -0.209917 0.002900 -0.229793
v -0.202438 0.002900 -0.219822
v -0.133879 0.002900 -0.252135
v -0.265233 0.002900 -0.303549
v -0.265233 -0.000838 -0.303549
v -0.214959 -0.000838 -0.333214
v -0.214959 0.002900 -0.333214
v -0.195266 -0.018951 -0.390967
v -0.195266 0.002900 -0.390967
v -0.195278 0.002900 -0.623319
v -0.195278 -0.018951 -0.623319
v -0.185305 0.002900 -0.623319
v -0.195278 0.002900 -0.623319
v -0.195266 0.002900 -0.390967
v -0.185294 0.002900 -0.383488
v -0.111547 -0.000838 -0.623319
v -0.185305 -0.000838 -0.623319
v -0.185294 -0.000838 -0.383488
v -0.111538 -0.000838 -0.328173
v -0.111538 -0.000838 -0.328173
v -0.111538 0.002900 -0.328173
v -0.111547 0.002900 -0.623319
v -0.111547 -0.000838 -0.623319
v -0.101574 -0.000838 -0.623319
v -0.101566 -0.000838 -0.320693
v 0.114509 -0.000838 -0.623319
v -0.133879 -0.000838 -0.252135
v -0.101566 -0.000838 -0.320693
v -0.101566 0.002900 -0.320693
v -0.101566 0.002900 -0.320693
v -0.133879 0.002900 -0.252135
v -0.133879 -0.000838 -0.252135
v -0.101566 0.002900 -0.320693
v -0.111538 0.002900 -0.328173
v -0.185294 0.002900 -0.383488
v -0.185294 -0.000838 -0.383488
v -0.505063 0.002900 -0.219830
v -0.505063 -0.000838 -0.219830
v -0.202438 -0.000838 -0.219822
v -0.202438 0.002900 -0.219822
v -0.505063 0.002900 -0.219830
v -0.505063 0.002900 -0.229802
v -0.505063 0.002900 -0.303562
v -0.505063 -0.000838 -0.303562
v -0.101574 -0.000838 -0.623319
v -0.101574 0.002900 -0.623319
v -0.101566 0.002900 -0.320693
v -0.101566 -0.000838 -0.320693
v -0.101574 0.002900 -0.623319
v -0.111547 0.002900 -0.623319
v -0.185305 -0.000838 -0.623319
v -0.185305 0.002900 -0.623319
v -0.225917 0.002900 -0.344173
v -0.225917 -0.018951 -0.344173
v -0.225917 0.002900 -0.344173
v -0.214959 0.002900 -0.333214
v -0.214959 -0.000838 -0.333214
v -0.145342 -0.000838 -0.263599
v -0.145342 0.002900 -0.263599
v -0.145342 -0.000838 -0.263599
v -0.133879 -0.000838 -0.252135
v 0.330592 -0.000838 -0.003747
v 0.330592 -0.000838 -0.623319
v -0.505063 -0.018951 0.306040
v -0.272712 -0.018951 0.306028
v -0.272712 0.002900 0.306028
v -0.505063 0.002900 0.306040
v -0.505063 0.002900 0.296068
v -0.505063 0.002900 0.306040
v -0.272712 0.002900 0.306028
v -0.265233 0.002900 0.296056
v -0.505063 -0.000838 0.222309
v -0.505063 -0.000838 0.296068
v -0.265233 -0.000838 0.296056
v -0.209917 -0.000838 0.222300
v -0.505063 0.002900 0.222309
v -0.505063 -0.000838 0.222309
v -0.209917 -0.000838 0.222300
v -0.209917 0.002900 0.222300
v -0.505063 -0.000838 0.212336
v -0.202438 -0.000838 0.212328
v -0.202438 0.002900 0.212328
v -0.133879 0.002900 0.244641
v -0.133879 -0.000838 0.244641
v -0.133879 -0.000838 0.244641
v -0.202438 -0.000838 0.212328
v -0.202438 0.002900 0.212328
v -0.145342 0.002900 0.256104
v -0.133879 0.002900 0.244641
v -0.202438 0.002900 0.212328
v -0.209917 0.002900 0.222300
v -0.265233 0.002900 0.296056
v -0.214959 0.002900 0.325721
v -0.214959 -0.000838 0.325721
v -0.265233 -0.000838 0.296056
v -0.195266 -0.018951 0.383474
v -0.195278 -0.018952 0.615826
v -0.195278 0.002899 0.615826
v -0.195266 0.002900 0.383474
v -0.185305 0.002899 0.615826
v -0.185294 0.002900 0.375995
v -0.195266 0.002900 0.383474
v -0.195278 0.002899 0.615826
v -0.111547 -0.000838 0.615826
v -0.111538 -0.000838 0.320679
v -0.185294 -0.000838 0.375995
v -0.185305 -0.000838 0.615826
v -0.111538 -0.000838 0.320679
v -0.111547 -0.000838 0.615826
v -0.111547 0.002899 0.615826
v -0.111538 0.002900 0.320679
v -0.101574 -0.000838 0.615826
v 0.114509 -0.000838 0.615826
v -0.101566 -0.000838 0.313200
v -0.133879 -0.000838 0.244641
v -0.133879 0.002900 0.244641
v -0.101566 0.002900 0.313200
v -0.101566 -0.000838 0.313200
v -0.101566 0.002900 0.313200
v -0.111538 0.002900 0.320679
v -0.185294 0.002900 0.375995
v -0.185294 -0.000838 0.375995
v -0.505063 0.002900 0.212336
v -0.202438 0.002900 0.212328
v -0.202438 -0.000838 0.212328
v -0.505063 -0.000838 0.212336
v -0.505063 0.002900 0.212336
v -0.505063 0.002900 0.222309
v -0.505063 0.002900 0.296068
v -0.505063 -0.000838 0.296068
v -0.101574 -0.000838 0.615826
v -0.101566 -0.000838 0.313200
v -0.101566 0.002900 0.313200
v -0.101566 0.002900 0.313200
v -0.101574 0.002899 0.615826
v -0.101574 -0.000838 0.615826
v -0.101574 0.002899 0.615826
v -0.111547 0.002899 0.615826
v -0.185305 -0.000838 0.615826
v -0.185305 0.002899 0.615826
v -0.225917 0.002900 0.336679
v -0.225917 -0.018951 0.336679
v -0.225917 0.002900 0.336679
v -0.214959 0.002900 0.325721
v -0.214959 -0.000838 0.325721
v -0.145342 -0.000838 0.256104
v -0.145342 0.002900 0.256104
v -0.145342 -0.000838 0.256104
v -0.133879 -0.000838 0.244641
v 0.330592 -0.000838 0.615826
v 0.762758 -0.000838 -0.003747
v 0.762758 -0.000838 0.615826
v 0.762758 0.002899 0.615826
v 0.762758 0.002900 -0.003747
v 0.856462 -0.018952 0.615826
v 0.856462 -0.018951 -0.003747
v 0.856462 0.002900 -0.003747
v 0.856462 0.002899 0.615826
v 0.856462 0.002899 0.615826
v 0.856462 0.002900 -0.003747
v 0.846489 0.002900 -0.003747
v 0.846489 0.002899 0.615826
v 0.762758 0.002900 -0.003747
v 0.762758 0.002899 0.615826
v 0.772731 0.002899 0.615826
v 0.772731 0.002900 -0.003747
v 0.846489 -0.000838 0.615826
v 0.846489 -0.000838 -0.003747
v 0.772731 -0.000838 -0.003747
v 0.772731 -0.000838 0.615826
v 0.772731 -0.000838 -0.003747
v 0.772731 0.002900 -0.003747
v 0.772731 0.002899 0.615826
v 0.772731 -0.000838 0.615826
v 0.846489 -0.000838 0.615826
v 0.846489 0.002899 0.615826
v 0.846489 0.002900 -0.003747
v 0.846489 -0.000838 -0.003747
v 0.762758 -0.000838 0.615826
v 0.762758 -0.000838 -0.003747
v 0.546675 -0.000838 -0.003747
v 0.546675 -0.000838 0.615826
v 0.762758 -0.000838 -0.623319
v 0.762758 0.002900 -0.623319
v 0.856462 -0.018951 -0.623319
v 0.856462 0.002900 -0.623319
v 0.856462 0.002900 -0.623319
v 0.846489 0.002900 -0.623319
v 0.762758 0.002900 -0.623319
v 0.772731 0.002900 -0.623319
v 0.846489 -0.000838 -0.623319
v 0.772731 -0.000838 -0.623319
v 0.772731 -0.000838 -0.623319
v 0.772731 0.002900 -0.623319
v 0.846489 0.002900 -0.623319
v 0.846489 -0.000838 -0.623319
v 0.762758 -0.000838 -0.623319
v 0.546675 -0.000838 -0.623319
vt 0.130562 0.417958
vt 0.127663 0.417958
vt 0.127663 0.448470
vt 0.130562 0.448470
vt 0.126340 0.417958
vt 0.126340 0.449452
vt 0.127663 0.448470
vt 0.127663 0.417958
vt 0.175576 0.498280
vt 0.168523 0.437320
vt 0.185298 0.447148
vt 0.191030 0.498280
vt 0.127666 0.417958
vt 0.127666 0.456716
vt 0.128162 0.456716
vt 0.128162 0.417958
vt 0.437214 0.228731
vt 0.499850 0.176556
vt 0.499850 0.126737
vt 0.437214 0.126737
vt 0.126343 0.457698
vt 0.125847 0.457698
vt 0.125847 0.470945
vt 0.126343 0.470945
vt 0.127666 0.469635
vt 0.127666 0.456716
vt 0.126343 0.457698
vt 0.126343 0.470945
vt 0.126340 0.449452
vt 0.125844 0.449452
vt 0.125844 0.459950
vt 0.126340 0.459950
vt 0.130562 0.448470
vt 0.127663 0.448470
vt 0.127663 0.417958
vt 0.130562 0.417958
vt 0.126340 0.417958
vt 0.127663 0.417958
vt 0.127663 0.448470
vt 0.126340 0.449452
vt 0.189277 0.498280
vt 0.173723 0.498280
vt 0.173725 0.447806
vt 0.189279 0.436142
vt 0.128162 0.456716
vt 0.127666 0.456716
vt 0.127666 0.417958
vt 0.128162 0.417958
vt 0.499850 0.126737
vt 0.499850 0.176556
vt 0.437214 0.126737
vt 0.125847 0.470945
vt 0.125847 0.457698
vt 0.126343 0.457698
vt 0.126343 0.457698
vt 0.126343 0.470945
vt 0.125847 0.470945
vt 0.126343 0.457698
vt 0.127666 0.456716
vt 0.126340 0.449452
vt 0.125844 0.449452
vt 0.126343 0.417958
vt 0.125847 0.417958
vt 0.125847 0.457698
vt 0.126343 0.457698
vt 0.126343 0.417958
vt 0.127666 0.417958
vt 0.126340 0.417958
vt 0.125844 0.417958
vt 0.125847 0.417958
vt 0.126343 0.417958
vt 0.126343 0.457698
vt 0.125847 0.457698
vt 0.126343 0.417958
vt 0.127666 0.417958
vt 0.125844 0.417958
vt 0.126340 0.417958
vt 0.127663 0.458641
vt 0.130562 0.458641
vt 0.127663 0.458641
vt 0.126340 0.459950
vt 0.190313 0.435907
vt 0.174065 0.422983
vt 0.127666 0.469635
vt 0.128162 0.469635
vt 0.167470 0.437204
vt 0.182150 0.422524
vt 0.499850 0.193163
vt 0.499770 0.125446
vt 0.499770 0.229734
vt 0.436640 0.229734
vt 0.436640 0.125446
vt 0.130562 0.417958
vt 0.130562 0.448470
vt 0.127663 0.448470
vt 0.127663 0.417958
vt 0.126340 0.417958
vt 0.127663 0.417958
vt 0.127663 0.448470
vt 0.126340 0.449452
vt 0.175576 0.498280
vt 0.191030 0.498280
vt 0.185298 0.447148
vt 0.168523 0.437320
vt 0.127666 0.417958
vt 0.128162 0.417958
vt 0.128162 0.456716
vt 0.127666 0.456716
vt 0.499850 0.126737
vt 0.499850 0.176556
vt 0.126343 0.457698
vt 0.126343 0.470945
vt 0.125847 0.470945
vt 0.125847 0.470945
vt 0.125847 0.457698
vt 0.126343 0.457698
vt 0.127666 0.469635
vt 0.126343 0.470945
vt 0.126343 0.457698
vt 0.127666 0.456716
vt 0.126340 0.449452
vt 0.126340 0.459950
vt 0.125844 0.459950
vt 0.125844 0.449452
vt 0.130562 0.448470
vt 0.130562 0.417958
vt 0.127663 0.417958
vt 0.127663 0.448470
vt 0.126340 0.417958
vt 0.126340 0.449452
vt 0.127663 0.448470
vt 0.127663 0.417958
vt 0.189277 0.498280
vt 0.189279 0.436142
vt 0.173725 0.447806
vt 0.173723 0.498280
vt 0.128162 0.456716
vt 0.128162 0.417958
vt 0.127666 0.417958
vt 0.127666 0.456716
vt 0.499850 0.126737
vt 0.437214 0.126737
vt 0.499850 0.176556
vt 0.125847 0.470945
vt 0.126343 0.470945
vt 0.126343 0.457698
vt 0.125847 0.457698
vt 0.126343 0.457698
vt 0.127666 0.456716
vt 0.126340 0.449452
vt 0.125844 0.449452
vt 0.126343 0.417958
vt 0.126343 0.457698
vt 0.125847 0.457698
vt 0.125847 0.417958
vt 0.126343 0.417958
vt 0.127666 0.417958
vt 0.126340 0.417958
vt 0.125844 0.417958
vt 0.125847 0.417958
vt 0.125847 0.457698
vt 0.126343 0.457698
vt 0.126343 0.457698
vt 0.126343 0.417958
vt 0.125847 0.417958
vt 0.126343 0.417958
vt 0.127666 0.417958
vt 0.125844 0.417958
vt 0.126340 0.417958
vt 0.127663 0.458641
vt 0.130562 0.458641
vt 0.127663 0.458641
vt 0.126340 0.459950
vt 0.190313 0.435907
vt 0.174065 0.422983
vt 0.127666 0.469635
vt 0.128162 0.469635
vt 0.167470 0.437204
vt 0.182150 0.422524
vt 0.499850 0.193163
vt 0.436640 0.229734
vt 0.499770 0.229734
vt 0.125847 0.499316
vt 0.125847 0.417958
vt 0.126343 0.417958
vt 0.126343 0.499316
vt 0.130562 0.417958
vt 0.130562 0.499316
vt 0.127663 0.499316
vt 0.127663 0.417958
vt 0.127663 0.417958
vt 0.127663 0.499316
vt 0.126340 0.499316
vt 0.126340 0.417958
vt 0.126343 0.499316
vt 0.126343 0.417958
vt 0.127666 0.417958
vt 0.127666 0.499316
vt 0.171486 0.499496
vt 0.171486 0.375869
vt 0.186204 0.375869
vt 0.186204 0.499496
vt 0.128162 0.499316
vt 0.127666 0.499316
vt 0.127666 0.417958
vt 0.128162 0.417958
vt 0.125844 0.417958
vt 0.126340 0.417958
vt 0.126340 0.499316
vt 0.125844 0.499316
vt 0.999455 0.750508
vt 0.999455 0.874658
vt 0.938103 0.874658
vt 0.938103 0.750508
vt 0.875579 0.874658
vt 0.938033 0.874658
vt 0.938033 0.750508
vt 0.875579 0.750508
vt 0.125880 0.499316
vt 0.125880 0.417958
vt 0.126376 0.417958
vt 0.126376 0.499316
vt 0.130541 0.417958
vt 0.130541 0.499316
vt 0.127642 0.499316
vt 0.127642 0.417958
vt 0.127642 0.417958
vt 0.127642 0.499316
vt 0.126319 0.499316
vt 0.126319 0.417958
vt 0.126376 0.499316
vt 0.126376 0.417958
vt 0.127699 0.417958
vt 0.127699 0.499316
vt 0.144215 0.499496
vt 0.144215 0.375868
vt 0.158933 0.375868
vt 0.158933 0.499496
vt 0.128194 0.499316
vt 0.127699 0.499316
vt 0.127699 0.417958
vt 0.128194 0.417958
vt 0.125824 0.417958
vt 0.126319 0.417958
vt 0.126319 0.499316
vt 0.125824 0.499316
vt 0.999511 0.750476
vt 0.999511 0.874655
vt 0.938309 0.874655
vt 0.938309 0.750476
vt 0.875579 0.874655
vt 0.938240 0.874655
vt 0.938240 0.750476
vt 0.875579 0.750476
vn 0.0001 0.0000 -1.0000
vn -0.2859 0.0000 -0.9583
vn -0.0000 1.0000 0.0000
vn 0.0000 0.0000 -1.0000
vn -0.2388 0.0000 -0.9711
vn 0.4263 0.0000 0.9046
vn 0.2634 0.0000 0.9647
vn 0.7071 0.0000 0.7071
vn -0.9583 0.0000 -0.2859
vn -1.0000 0.0000 0.0001
vn -0.9711 0.0000 -0.2388
vn -1.0000 0.0000 0.0000
vn 0.9046 0.0000 0.4263
vn 0.9647 0.0000 0.2634
vn -0.0000 0.0000 1.0000
vn -0.0001 0.0000 1.0000
vn 1.0000 0.0000 -0.0000
vn -0.7071 0.0000 -0.7071
vn 0.0001 0.0000 1.0000
vn -0.2859 0.0000 0.9583
vn -0.2388 0.0000 0.9711
vn 0.4263 0.0000 -0.9046
vn 0.2634 0.0000 -0.9647
vn 0.7071 0.0000 -0.7071
vn -0.9583 0.0000 0.2859
vn -1.0000 0.0000 -0.0001
vn -0.9711 0.0000 0.2388
vn 0.9046 0.0000 -0.4263
vn 0.9647 0.0000 -0.2634
vn -0.7071 0.0000 0.7071
usemtl 7_Road-Intersection-B
s 1
f 1/1/1 2/2/1 3/3/2
f 3/3/2 4/4/2 1/1/1
f 5/5/3 6/6/3 7/7/3
f 7/7/3 8/8/3 5/5/3
f 9/9/3 10/10/3 11/11/3
f 11/11/3 12/12/3 9/9/3
f 13/13/4 14/14/5 15/15/5
f 15/15/5 16/16/4 13/13/4
f 17/17/3 18/18/3 19/19/3
f 19/19/3 20/20/3 17/17/3
f 21/21/6 22/22/6 23/23/6
f 23/23/6 24/24/6 21/21/6
f 25/25/3 26/26/3 27/27/3
f 27/27/3 28/28/3 25/25/3
f 29/29/7 30/30/7 31/31/8
f 31/31/8 32/32/8 29/29/7
f 33/33/9 34/34/9 35/35/10
f 35/35/10 36/36/10 33/33/9
f 37/37/3 38/38/3 39/39/3
f 39/39/3 40/40/3 37/37/3
f 41/41/3 42/42/3 43/43/3
f 43/43/3 44/44/3 41/41/3
f 45/45/11 46/46/11 47/47/12
f 47/47/12 48/48/12 45/45/11
f 49/49/3 50/50/3 17/17/3
f 17/17/3 51/51/3 49/49/3
f 52/52/13 53/53/13 54/54/13
f 55/55/13 56/56/13 57/57/13
f 25/25/3 28/28/3 58/58/3
f 58/58/3 59/59/3 25/25/3
f 60/60/14 32/32/8 31/31/8
f 31/31/8 61/61/14 60/60/14
f 62/62/15 63/63/15 64/64/15
f 64/64/15 65/65/15 62/62/15
f 66/66/3 27/27/3 26/26/3
f 26/26/3 67/67/3 66/66/3
f 30/30/7 29/29/7 68/68/16
f 68/68/16 69/69/16 30/30/7
f 70/70/17 71/71/17 72/72/17
f 72/72/17 73/73/17 70/70/17
f 59/59/3 58/58/3 74/74/3
f 74/74/3 75/75/3 59/59/3
f 60/60/14 61/61/14 76/76/17
f 76/76/17 77/77/17 60/60/14
f 4/4/2 3/3/2 78/78/18
f 78/78/18 79/79/18 4/4/2
f 34/34/9 33/33/9 79/79/18
f 79/79/18 78/78/18 34/34/9
f 80/80/3 7/7/3 6/6/3
f 40/40/3 39/39/3 80/80/3
f 80/80/3 81/81/3 40/40/3
f 6/6/3 81/81/3 80/80/3
f 82/82/3 11/11/3 10/10/3
f 10/10/3 83/83/3 82/82/3
f 15/15/5 14/14/5 84/84/18
f 84/84/18 85/85/18 15/15/5
f 46/46/11 45/45/11 85/85/18
f 85/85/18 84/84/18 46/46/11
f 44/44/3 43/43/3 82/86/3
f 82/86/3 83/87/3 44/44/3
f 50/50/3 86/88/3 17/17/3
f 17/17/3 86/88/3 18/18/3
f 87/89/3 88/90/3 51/91/3
f 51/91/3 17/92/3 87/89/3
f 89/93/19 90/94/20 91/95/20
f 91/95/20 92/96/19 89/93/19
f 93/97/3 94/98/3 95/99/3
f 95/99/3 96/100/3 93/97/3
f 97/101/3 98/102/3 99/103/3
f 99/103/3 100/104/3 97/101/3
f 101/105/15 102/106/15 103/107/21
f 103/107/21 104/108/21 101/105/15
f 17/17/3 20/20/3 105/109/3
f 105/109/3 106/110/3 17/17/3
f 107/111/22 108/112/22 109/113/22
f 110/114/22 111/115/22 112/116/22
f 113/117/3 114/118/3 115/119/3
f 115/119/3 116/120/3 113/117/3
f 117/121/23 118/122/24 119/123/24
f 119/123/24 120/124/23 117/121/23
f 121/125/25 122/126/26 123/127/26
f 123/127/26 124/128/25 121/125/25
f 125/129/3 126/130/3 127/131/3
f 127/131/3 128/132/3 125/129/3
f 129/133/3 130/134/3 131/135/3
f 131/135/3 132/136/3 129/133/3
f 133/137/27 134/138/12 135/139/12
f 135/139/12 136/140/27 133/137/27
f 137/141/3 138/142/3 17/17/3
f 17/17/3 139/143/3 137/141/3
f 140/144/28 141/145/28 142/146/28
f 142/146/28 143/147/28 140/144/28
f 144/148/3 114/118/3 113/117/3
f 113/117/3 145/149/3 144/148/3
f 119/123/24 118/122/24 146/150/29
f 146/150/29 147/151/29 119/123/24
f 148/152/4 149/153/4 150/154/4
f 150/154/4 151/155/4 148/152/4
f 116/120/3 115/119/3 152/156/3
f 152/156/3 153/157/3 116/120/3
f 154/158/4 117/121/23 120/124/23
f 120/124/23 155/159/4 154/158/4
f 156/160/17 157/161/17 158/162/17
f 159/163/17 160/164/17 161/165/17
f 162/166/3 144/148/3 145/149/3
f 145/149/3 163/167/3 162/166/3
f 164/168/17 147/151/29 146/150/29
f 146/150/29 165/169/17 164/168/17
f 166/170/30 91/95/20 90/94/20
f 90/94/20 167/171/30 166/170/30
f 124/128/25 166/170/30 167/171/30
f 167/171/30 121/125/25 124/128/25
f 96/100/3 95/99/3 168/172/3
f 168/172/3 127/131/3 126/130/3
f 168/172/3 169/173/3 96/100/3
f 126/130/3 169/173/3 168/172/3
f 100/104/3 99/103/3 170/174/3
f 170/174/3 171/175/3 100/104/3
f 172/176/30 104/108/21 103/107/21
f 103/107/21 173/177/30 172/176/30
f 173/177/30 133/137/27 136/140/27
f 136/140/27 172/176/30 173/177/30
f 170/178/3 131/135/3 130/134/3
f 130/134/3 171/179/3 170/178/3
f 17/17/3 106/110/3 174/180/3
f 139/143/3 17/17/3 174/180/3
f 87/89/3 17/92/3 138/181/3
f 138/181/3 175/182/3 87/89/3
f 176/183/12 177/184/12 178/185/12
f 178/185/12 179/186/12 176/183/12
f 180/187/17 181/188/17 182/189/17
f 182/189/17 183/190/17 180/187/17
f 184/191/3 185/192/3 186/193/3
f 186/193/3 187/194/3 184/191/3
f 188/195/3 189/196/3 190/197/3
f 190/197/3 191/198/3 188/195/3
f 192/199/3 193/200/3 194/201/3
f 194/201/3 195/202/3 192/199/3
f 196/203/17 197/204/17 198/205/17
f 198/205/17 199/206/17 196/203/17
f 200/207/12 201/208/12 202/209/12
f 202/209/12 203/210/12 200/207/12
f 204/211/3 205/212/3 206/213/3
f 206/213/3 207/214/3 204/211/3
f 175/215/3 207/216/3 206/217/3
f 206/217/3 87/218/3 175/215/3
f 208/219/12 176/220/12 179/221/12
f 179/221/12 209/222/12 208/219/12
f 181/223/17 210/224/17 211/225/17
f 211/225/17 182/226/17 181/223/17
f 185/227/3 212/228/3 213/229/3
f 213/229/3 186/230/3 185/227/3
f 214/231/3 188/232/3 191/233/3
f 191/233/3 215/234/3 214/231/3
f 193/235/3 216/236/3 217/237/3
f 217/237/3 194/238/3 193/235/3
f 218/239/17 219/240/17 197/241/17
f 197/241/17 196/242/17 218/239/17
f 203/243/12 202/244/12 220/245/12
f 220/245/12 221/246/12 203/243/12
f 205/247/3 222/248/3 223/249/3
f 223/249/3 206/250/3 205/247/3
f 87/251/3 206/252/3 223/253/3
f 223/253/3 88/254/3 87/251/3
