# Blender v2.79 (sub 0) OBJ File: ''
# www.blender.org
mtllib RoadCrossBA.mtl
o 7_Road-Cross-B-A
v -0.613510 0.002918 -0.536071
v -0.303709 0.002918 -0.536054
v -0.303709 -0.018933 -0.536054
v -0.613510 -0.018933 -0.536071
v -0.613510 0.002918 -0.526098
v -0.293737 0.002918 -0.526082
v -0.303709 0.002918 -0.536054
v -0.613510 0.002918 -0.536071
v -0.613510 -0.000820 -0.452339
v -0.219983 -0.000820 -0.452327
v -0.293737 -0.000820 -0.526082
v -0.613510 -0.000820 -0.526098
v -0.613510 0.002918 -0.452339
v -0.219983 0.002918 -0.452327
v -0.219983 -0.000820 -0.452327
v -0.613510 -0.000820 -0.452339
v -0.613510 -0.000820 -0.442367
v -0.613510 -0.000820 -0.226284
v 0.006061 -0.000820 -0.226284
v -0.210011 -0.000820 -0.442355
v -0.613510 -0.000820 -0.010200
v -0.209999 -0.000820 -0.010200
v -0.613510 0.002918 -0.442367
v -0.613510 -0.000820 -0.442367
v -0.210011 -0.000820 -0.442355
v -0.210011 0.002918 -0.442355
v -0.219983 0.002918 -0.452327
v -0.613510 0.002918 -0.452339
v -0.613510 0.002918 -0.442367
v -0.210011 0.002918 -0.442355
v -0.613510 0.002918 -0.526098
v -0.613510 -0.000820 -0.526098
v -0.293737 -0.000820 -0.526082
v -0.293737 0.002918 -0.526082
v 0.625633 -0.000820 -0.226284
v 0.222167 -0.000820 -0.010200
v 0.625633 -0.000820 -0.010200
v 0.625633 0.002918 -0.536070
v 0.625633 -0.018933 -0.536070
v 0.315864 -0.018933 -0.536087
v 0.315864 0.002918 -0.536087
v 0.625633 0.002918 -0.526098
v 0.625633 0.002918 -0.536070
v 0.315864 0.002918 -0.536087
v 0.305891 0.002918 -0.526114
v 0.625633 -0.000820 -0.452339
v 0.625633 -0.000820 -0.526098
v 0.305891 -0.000820 -0.526114
v 0.232129 -0.000820 -0.452351
v 0.625633 0.002918 -0.452339
v 0.625633 -0.000820 -0.452339
v 0.232129 -0.000820 -0.452351
v 0.232129 0.002918 -0.452351
v 0.625633 -0.000820 -0.442366
v 0.222156 -0.000820 -0.442378
v 0.625633 0.002918 -0.442366
v 0.222156 0.002918 -0.442378
v 0.222156 -0.000820 -0.442378
v 0.625633 -0.000820 -0.442366
v 0.232129 0.002918 -0.452351
v 0.222156 0.002918 -0.442378
v 0.625633 0.002918 -0.442366
v 0.625633 0.002918 -0.452339
v 0.625633 0.002918 -0.526098
v 0.305891 0.002918 -0.526114
v 0.305891 -0.000820 -0.526114
v 0.625633 -0.000820 -0.526098
v -0.303726 0.002918 -0.845856
v -0.303726 -0.018933 -0.845856
v -0.293753 0.002918 -0.845856
v -0.303726 0.002918 -0.845856
v -0.219995 -0.000820 -0.845856
v -0.293753 -0.000820 -0.845856
v -0.219995 0.002918 -0.845856
v -0.219995 -0.000820 -0.845856
v -0.210022 -0.000820 -0.845856
v 0.006061 -0.000820 -0.845856
v 0.315848 0.002918 -0.845856
v 0.315848 -0.018933 -0.845856
v 0.305875 0.002918 -0.845856
v 0.315848 0.002918 -0.845856
v 0.232116 -0.000820 -0.845856
v 0.305875 -0.000820 -0.845856
v 0.232116 0.002918 -0.845856
v 0.232116 -0.000820 -0.845856
v 0.222144 -0.000820 -0.845856
v 0.222144 0.002918 -0.845856
v 0.222144 -0.000820 -0.845856
v 0.222156 -0.000820 -0.442378
v 0.222156 0.002918 -0.442378
v 0.222144 0.002918 -0.845856
v 0.232116 0.002918 -0.845856
v 0.305875 0.002918 -0.845856
v 0.305875 -0.000820 -0.845856
v -0.210022 0.002918 -0.845856
v -0.210011 0.002918 -0.442355
v -0.210011 -0.000820 -0.442355
v -0.210011 -0.000820 -0.442355
v -0.210022 -0.000820 -0.845856
v -0.210022 0.002918 -0.845856
v -0.210022 0.002918 -0.845856
v -0.219995 0.002918 -0.845856
v -0.293753 0.002918 -0.845856
v -0.293753 -0.000820 -0.845856
v 0.006061 -0.000820 -0.010200
v -0.613510 0.002918 0.515669
v -0.613510 -0.018933 0.515669
v -0.303709 -0.018933 0.515652
v -0.303709 0.002918 0.515652
v -0.613510 0.002918 0.505697
v -0.613510 0.002918 0.515669
v -0.303709 0.002918 0.515652
v -0.293737 0.002918 0.505681
v -0.613510 -0.000820 0.431938
v -0.613510 -0.000820 0.505697
v -0.293737 -0.000820 0.505681
v -0.219983 -0.000820 0.431926
v -0.613510 0.002918 0.431938
v -0.613510 -0.000820 0.431938
v -0.219983 -0.000820 0.431926
v -0.219983 0.002918 0.431926
v -0.613510 -0.000820 0.421966
v -0.210011 -0.000820 0.421954
v 0.006061 -0.000820 0.205882
v -0.613510 -0.000820 0.205882
v -0.613510 0.002918 0.421966
v -0.210011 0.002918 0.421954
v -0.210011 -0.000820 0.421954
v -0.210011 -0.000820 0.421954
v -0.613510 -0.000820 0.421966
v -0.613510 0.002918 0.421966
v -0.219983 0.002918 0.431926
v -0.210011 0.002918 0.421954
v -0.613510 0.002918 0.421966
v -0.613510 0.002918 0.431938
v -0.613510 0.002918 0.505697
v -0.293737 0.002918 0.505681
v -0.293737 -0.000820 0.505681
v -0.613510 -0.000820 0.505697
v 0.625633 -0.000820 0.205882
v 0.625633 0.002918 0.515669
v 0.315864 0.002918 0.515686
v 0.315864 -0.018933 0.515686
v 0.625633 -0.018933 0.515669
v 0.625633 0.002918 0.505697
v 0.305891 0.002918 0.505713
v 0.315864 0.002918 0.515686
v 0.625633 0.002918 0.515669
v 0.625633 -0.000820 0.431938
v 0.232129 -0.000820 0.431950
v 0.305891 -0.000820 0.505713
v 0.625633 -0.000820 0.505697
v 0.625633 0.002918 0.431938
v 0.232129 0.002918 0.431950
v 0.232129 -0.000820 0.431950
v 0.625633 -0.000820 0.431938
v 0.625633 -0.000820 0.421965
v 0.222156 -0.000820 0.421977
v 0.625633 0.002918 0.421965
v 0.625633 -0.000820 0.421965
v 0.222156 -0.000820 0.421977
v 0.222156 0.002918 0.421977
v 0.232129 0.002918 0.431950
v 0.625633 0.002918 0.431938
v 0.625633 0.002918 0.421965
v 0.222156 0.002918 0.421977
v 0.625633 0.002918 0.505697
v 0.625633 -0.000820 0.505697
v 0.305891 -0.000820 0.505713
v 0.305891 0.002918 0.505713
v -0.303726 0.002918 0.825454
v -0.303726 -0.018933 0.825454
v -0.293753 0.002918 0.825455
v -0.303726 0.002918 0.825454
v -0.219995 -0.000820 0.825454
v -0.293753 -0.000820 0.825455
v -0.219995 0.002918 0.825454
v -0.219995 -0.000820 0.825454
v -0.210022 -0.000820 0.825454
v 0.006061 -0.000820 0.825454
v 0.315848 0.002918 0.825454
v 0.315848 -0.018933 0.825454
v 0.305875 0.002918 0.825454
v 0.315848 0.002918 0.825454
v 0.232116 -0.000820 0.825454
v 0.305875 -0.000820 0.825454
v 0.232116 0.002918 0.825454
v 0.232116 -0.000820 0.825454
v 0.222144 -0.000820 0.825454
v 0.222144 0.002918 0.825454
v 0.222156 0.002918 0.421977
v 0.222156 -0.000820 0.421977
v 0.222156 -0.000820 0.421977
v 0.222144 -0.000820 0.825454
v 0.222144 0.002918 0.825454
v 0.222144 0.002918 0.825454
v 0.232116 0.002918 0.825454
v 0.305875 0.002918 0.825454
v 0.305875 -0.000820 0.825454
v -0.210022 0.002918 0.825454
v -0.210022 -0.000820 0.825454
v -0.210011 -0.000820 0.421954
v -0.210011 -0.000820 0.421954
v -0.210011 0.002918 0.421954
v -0.210022 0.002918 0.825454
v -0.210022 0.002918 0.825454
v -0.219995 0.002918 0.825454
v -0.293753 0.002918 0.825455
v -0.293753 -0.000820 0.825455
vt 0.127663 0.417958
vt 0.127663 0.458641
vt 0.130562 0.458641
vt 0.130562 0.417958
vt 0.126340 0.417958
vt 0.126340 0.459950
vt 0.127663 0.458641
vt 0.127663 0.417958
vt 0.186204 0.499496
vt 0.186204 0.420970
vt 0.171486 0.435686
vt 0.171486 0.499496
vt 0.127666 0.417958
vt 0.127666 0.469635
vt 0.128162 0.469635
vt 0.128162 0.417958
vt 0.499850 0.126737
vt 0.437214 0.126737
vt 0.437214 0.228731
vt 0.499850 0.193163
vt 0.437144 0.228731
vt 0.375207 0.228731
vt 0.375207 0.162312
vt 0.437144 0.126737
vt 0.126343 0.417958
vt 0.125847 0.417958
vt 0.125847 0.470945
vt 0.126343 0.470945
vt 0.127666 0.469635
vt 0.127666 0.417958
vt 0.126343 0.417958
vt 0.126343 0.470945
vt 0.126340 0.417958
vt 0.125844 0.417958
vt 0.125844 0.459950
vt 0.126340 0.459950
vt 0.437214 0.126737
vt 0.499850 0.193155
vt 0.499850 0.126737
vt 0.128724 0.417958
vt 0.125825 0.417958
vt 0.125825 0.458632
vt 0.128724 0.458632
vt 0.130047 0.417958
vt 0.128724 0.417958
vt 0.128724 0.458632
vt 0.130047 0.459942
vt 0.156674 0.499496
vt 0.171392 0.499496
vt 0.171392 0.435699
vt 0.156674 0.420980
vt 0.126376 0.417958
vt 0.125880 0.417958
vt 0.125880 0.469629
vt 0.126376 0.469629
vt 0.375207 0.228731
vt 0.375207 0.162312
vt 0.437144 0.228731
vt 0.127699 0.417958
vt 0.127699 0.470939
vt 0.128194 0.470939
vt 0.128194 0.417958
vt 0.126376 0.469629
vt 0.127699 0.470939
vt 0.127699 0.417958
vt 0.126376 0.417958
vt 0.130047 0.417958
vt 0.130047 0.459942
vt 0.130543 0.459942
vt 0.130543 0.417958
vt 0.127663 0.417958
vt 0.130562 0.417958
vt 0.126340 0.417958
vt 0.127663 0.417958
vt 0.186204 0.499496
vt 0.171486 0.499496
vt 0.127666 0.417958
vt 0.128162 0.417958
vt 0.499850 0.126737
vt 0.437214 0.126737
vt 0.128724 0.417958
vt 0.125825 0.417958
vt 0.130047 0.417958
vt 0.128724 0.417958
vt 0.156674 0.499496
vt 0.171392 0.499496
vt 0.126376 0.417958
vt 0.125880 0.417958
vt 0.375207 0.228731
vt 0.437144 0.228731
vt 0.127699 0.417958
vt 0.128194 0.417958
vt 0.128194 0.470939
vt 0.127699 0.470939
vt 0.127699 0.417958
vt 0.126376 0.417958
vt 0.130047 0.417958
vt 0.130543 0.417958
vt 0.126343 0.417958
vt 0.126343 0.470945
vt 0.125847 0.470945
vt 0.125847 0.470945
vt 0.125847 0.417958
vt 0.126343 0.417958
vt 0.126343 0.417958
vt 0.127666 0.417958
vt 0.126340 0.417958
vt 0.125844 0.417958
vt 0.437214 0.193159
vt 0.437144 0.162308
vt 0.127663 0.417958
vt 0.130562 0.417958
vt 0.130562 0.458641
vt 0.127663 0.458641
vt 0.126340 0.417958
vt 0.127663 0.417958
vt 0.127663 0.458641
vt 0.126340 0.459950
vt 0.186204 0.499496
vt 0.171486 0.499496
vt 0.171486 0.435686
vt 0.186204 0.420970
vt 0.127666 0.417958
vt 0.128162 0.417958
vt 0.128162 0.469635
vt 0.127666 0.469635
vt 0.499850 0.126737
vt 0.499850 0.193163
vt 0.437214 0.228731
vt 0.437214 0.126737
vt 0.437144 0.228731
vt 0.437144 0.126737
vt 0.126343 0.417958
vt 0.126343 0.470945
vt 0.125847 0.470945
vt 0.125847 0.470945
vt 0.125847 0.417958
vt 0.126343 0.417958
vt 0.127666 0.469635
vt 0.126343 0.470945
vt 0.126343 0.417958
vt 0.127666 0.417958
vt 0.126340 0.417958
vt 0.126340 0.459950
vt 0.125844 0.459950
vt 0.125844 0.417958
vt 0.437214 0.126737
vt 0.128724 0.417958
vt 0.128724 0.458632
vt 0.125825 0.458632
vt 0.125825 0.417958
vt 0.130047 0.417958
vt 0.130047 0.459942
vt 0.128724 0.458632
vt 0.128724 0.417958
vt 0.156674 0.499496
vt 0.156674 0.420980
vt 0.171392 0.435699
vt 0.171392 0.499496
vt 0.126376 0.417958
vt 0.126376 0.469629
vt 0.125880 0.469629
vt 0.125880 0.417958
vt 0.375207 0.228731
vt 0.437144 0.228731
vt 0.375207 0.162312
vt 0.127699 0.417958
vt 0.128194 0.417958
vt 0.128194 0.470939
vt 0.127699 0.470939
vt 0.126376 0.469629
vt 0.126376 0.417958
vt 0.127699 0.417958
vt 0.127699 0.470939
vt 0.130047 0.417958
vt 0.130543 0.417958
vt 0.130543 0.459942
vt 0.130047 0.459942
vt 0.127663 0.417958
vt 0.130562 0.417958
vt 0.126340 0.417958
vt 0.127663 0.417958
vt 0.186204 0.499496
vt 0.171486 0.499496
vt 0.127666 0.417958
vt 0.128162 0.417958
vt 0.499850 0.126737
vt 0.437214 0.126737
vt 0.128724 0.417958
vt 0.125825 0.417958
vt 0.130047 0.417958
vt 0.128724 0.417958
vt 0.156674 0.499496
vt 0.171392 0.499496
vt 0.126376 0.417958
vt 0.125880 0.417958
vt 0.375207 0.228731
vt 0.437144 0.228731
vt 0.127699 0.417958
vt 0.127699 0.470939
vt 0.128194 0.470939
vt 0.128194 0.470939
vt 0.128194 0.417958
vt 0.127699 0.417958
vt 0.127699 0.417958
vt 0.126376 0.417958
vt 0.130047 0.417958
vt 0.130543 0.417958
vt 0.126343 0.417958
vt 0.125847 0.417958
vt 0.125847 0.470945
vt 0.125847 0.470945
vt 0.126343 0.470945
vt 0.126343 0.417958
vt 0.126343 0.417958
vt 0.127666 0.417958
vt 0.126340 0.417958
vt 0.125844 0.417958
vn 0.0001 0.0000 -1.0000
vn -0.7071 0.0000 -0.7071
vn -0.0000 1.0000 0.0000
vn 0.0000 0.0000 -1.0000
vn -0.0000 0.0000 1.0000
vn 0.7071 0.0000 0.7071
vn 0.7071 0.0000 -0.7071
vn -0.0001 0.0000 1.0000
vn -0.7071 0.0000 0.7071
vn -1.0000 0.0000 0.0001
vn -1.0000 0.0000 0.0000
vn 1.0000 0.0000 -0.0001
vn 1.0000 0.0000 -0.0000
vn 0.0001 0.0000 1.0000
vn -0.0001 0.0000 -1.0000
vn -1.0000 0.0000 -0.0001
vn 1.0000 0.0000 0.0001
usemtl 7_Road-Cross-B-A
s 1
f 1/1/1 2/2/2 3/3/2
f 3/3/2 4/4/1 1/1/1
f 5/5/3 6/6/3 7/7/3
f 7/7/3 8/8/3 5/5/3
f 9/9/3 10/10/3 11/11/3
f 11/11/3 12/12/3 9/9/3
f 13/13/4 14/14/2 15/15/2
f 15/15/2 16/16/4 13/13/4
f 17/17/3 18/18/3 19/19/3
f 19/19/3 20/20/3 17/17/3
f 18/21/3 21/22/3 22/23/3
f 22/23/3 19/24/3 18/21/3
f 23/25/5 24/26/5 25/27/5
f 25/27/5 26/28/5 23/25/5
f 27/29/3 28/30/3 29/31/3
f 29/31/3 30/32/3 27/29/3
f 31/33/5 32/34/5 33/35/6
f 33/35/6 34/36/6 31/33/5
f 35/37/3 19/19/3 36/38/3
f 36/38/3 37/39/3 35/37/3
f 38/40/1 39/41/1 40/42/7
f 40/42/7 41/43/7 38/40/1
f 42/44/3 43/45/3 44/46/3
f 44/46/3 45/47/3 42/44/3
f 46/48/3 47/49/3 48/50/3
f 48/50/3 49/51/3 46/48/3
f 50/52/4 51/53/4 52/54/7
f 52/54/7 53/55/7 50/52/4
f 54/56/3 55/57/3 19/24/3
f 19/24/3 35/58/3 54/56/3
f 56/59/5 57/60/5 58/61/5
f 58/61/5 59/62/5 56/59/5
f 60/63/3 61/64/3 62/65/3
f 62/65/3 63/66/3 60/63/3
f 64/67/8 65/68/9 66/69/9
f 66/69/9 67/70/8 64/67/8
f 3/3/2 2/2/2 68/71/10
f 68/71/10 69/72/10 3/3/2
f 7/7/3 6/6/3 70/73/3
f 70/73/3 71/74/3 7/7/3
f 11/11/3 10/10/3 72/75/3
f 72/75/3 73/76/3 11/11/3
f 15/15/2 14/14/2 74/77/11
f 74/77/11 75/78/11 15/15/2
f 76/79/3 20/20/3 19/19/3
f 19/19/3 77/80/3 76/79/3
f 78/81/12 41/43/7 40/42/7
f 40/42/7 79/82/12 78/81/12
f 80/83/3 45/47/3 44/46/3
f 44/46/3 81/84/3 80/83/3
f 82/85/3 49/51/3 48/50/3
f 48/50/3 83/86/3 82/85/3
f 84/87/13 53/55/7 52/54/7
f 52/54/7 85/88/13 84/87/13
f 19/24/3 55/57/3 86/89/3
f 86/89/3 77/90/3 19/24/3
f 87/91/11 88/92/11 89/93/11
f 89/93/11 90/94/11 87/91/11
f 91/95/3 61/64/3 60/63/3
f 60/63/3 92/96/3 91/95/3
f 66/69/9 65/68/9 93/97/10
f 93/97/10 94/98/10 66/69/9
f 95/99/13 96/100/13 97/101/13
f 98/102/13 99/103/13 100/104/13
f 27/29/3 30/32/3 101/105/3
f 101/105/3 102/106/3 27/29/3
f 103/107/12 34/36/6 33/35/6
f 33/35/6 104/108/12 103/107/12
f 36/38/3 19/19/3 105/109/3
f 105/110/3 19/24/3 22/23/3
f 106/111/14 107/112/14 108/113/9
f 108/113/9 109/114/9 106/111/14
f 110/115/3 111/116/3 112/117/3
f 112/117/3 113/118/3 110/115/3
f 114/119/3 115/120/3 116/121/3
f 116/121/3 117/122/3 114/119/3
f 118/123/5 119/124/5 120/125/9
f 120/125/9 121/126/9 118/123/5
f 122/127/3 123/128/3 124/129/3
f 36/38/3 105/109/3 124/129/3
f 124/129/3 125/130/3 122/127/3
f 22/23/3 21/22/3 125/131/3
f 125/131/3 124/132/3 22/23/3
f 105/110/3 22/23/3 124/132/3
f 126/133/4 127/134/4 128/135/4
f 129/136/4 130/137/4 131/138/4
f 132/139/3 133/140/3 134/141/3
f 134/141/3 135/142/3 132/139/3
f 136/143/4 137/144/7 138/145/7
f 138/145/7 139/146/4 136/143/4
f 140/147/3 37/39/3 36/38/3
f 36/38/3 124/129/3 140/147/3
f 141/148/14 142/149/6 143/150/6
f 143/150/6 144/151/14 141/148/14
f 145/152/3 146/153/3 147/154/3
f 147/154/3 148/155/3 145/152/3
f 149/156/3 150/157/3 151/158/3
f 151/158/3 152/159/3 149/156/3
f 153/160/5 154/161/6 155/162/6
f 155/162/6 156/163/5 153/160/5
f 157/164/3 140/165/3 124/132/3
f 124/132/3 158/166/3 157/164/3
f 159/167/4 160/168/4 161/169/4
f 161/169/4 162/170/4 159/167/4
f 163/171/3 164/172/3 165/173/3
f 165/173/3 166/174/3 163/171/3
f 167/175/15 168/176/15 169/177/2
f 169/177/2 170/178/2 167/175/15
f 171/179/16 109/114/9 108/113/9
f 108/113/9 172/180/16 171/179/16
f 173/181/3 113/118/3 112/117/3
f 112/117/3 174/182/3 173/181/3
f 175/183/3 117/122/3 116/121/3
f 116/121/3 176/184/3 175/183/3
f 177/185/11 121/126/9 120/125/9
f 120/125/9 178/186/11 177/185/11
f 124/129/3 123/128/3 179/187/3
f 179/187/3 180/188/3 124/129/3
f 143/150/6 142/149/6 181/189/17
f 181/189/17 182/190/17 143/150/6
f 147/154/3 146/153/3 183/191/3
f 183/191/3 184/192/3 147/154/3
f 151/158/3 150/157/3 185/193/3
f 185/193/3 186/194/3 151/158/3
f 155/162/6 154/161/6 187/195/13
f 187/195/13 188/196/13 155/162/6
f 189/197/3 158/166/3 124/132/3
f 124/132/3 180/198/3 189/197/3
f 190/199/11 191/200/11 192/201/11
f 193/202/11 194/203/11 195/204/11
f 163/171/3 166/174/3 196/205/3
f 196/205/3 197/206/3 163/171/3
f 198/207/16 170/178/2 169/177/2
f 169/177/2 199/208/16 198/207/16
f 200/209/13 201/210/13 202/211/13
f 203/212/13 204/213/13 205/214/13
f 206/215/3 133/140/3 132/139/3
f 132/139/3 207/216/3 206/215/3
f 138/145/7 137/144/7 208/217/17
f 208/217/17 209/218/17 138/145/7
