# Blender v2.79 (sub 0) OBJ File: ''
# www.blender.org
mtllib RoadCrosswalk.mtl
o 7_Road-Crosswalk
v 0.214809 -0.001460 -0.172278
v 0.214809 0.002278 -0.172278
v 0.214809 0.002278 -0.283114
v 0.214809 -0.001460 -0.283114
v 0.214809 0.002278 -0.283114
v 0.214809 0.002278 -0.172278
v 0.224781 0.002278 -0.172278
v 0.224781 0.002278 -0.283114
v 0.298539 -0.001460 -0.172278
v 0.298539 0.002278 -0.172278
v 0.298540 0.002278 -0.283114
v 0.298540 -0.001460 -0.283114
v -0.217358 0.002278 -0.283114
v -0.217358 0.002278 -0.172278
v -0.217358 -0.001460 -0.172278
v -0.217358 -0.001460 -0.283114
v -0.227330 0.002278 -0.172278
v -0.217358 0.002278 -0.172278
v -0.217358 0.002278 -0.283114
v -0.227330 0.002278 -0.283114
v -0.301089 0.002278 -0.283114
v -0.301089 0.002278 -0.172278
v -0.301089 -0.001460 -0.172278
v -0.301089 -0.001460 -0.283114
v 0.308512 -0.019573 -0.394581
v 0.308512 0.002278 -0.394581
v 0.308512 0.002278 -0.283114
v 0.308512 -0.019573 -0.283114
v 0.308512 0.002278 -0.283114
v 0.308512 0.002278 -0.394581
v 0.298539 0.002278 -0.394581
v 0.298539 0.002278 -0.394581
v 0.298540 0.002278 -0.283114
v 0.298540 -0.001460 -0.283114
v 0.298539 -0.001460 -0.394581
v 0.224781 -0.001460 -0.394581
v 0.224781 -0.001460 -0.283114
v 0.224781 -0.001460 -0.394581
v 0.224781 0.002278 -0.394581
v 0.224781 0.002278 -0.283114
v 0.224781 -0.001460 -0.283114
v 0.214809 -0.001460 -0.283114
v 0.214809 -0.001460 -0.394581
v -0.001275 -0.001460 -0.394581
v -0.001275 -0.001460 -0.283114
v -0.311061 0.002278 -0.283114
v -0.311061 0.002278 -0.394581
v -0.311061 -0.019573 -0.394581
v -0.311061 -0.019573 -0.283114
v -0.301089 0.002278 -0.394581
v -0.311061 0.002278 -0.394581
v -0.311061 0.002278 -0.283114
v -0.301089 0.002278 -0.283114
v -0.301089 0.002278 -0.394581
v -0.227330 -0.001460 -0.394581
v -0.301089 -0.001460 -0.394581
v -0.301089 -0.001460 -0.283114
v -0.227330 -0.001460 -0.283114
v -0.227330 0.002278 -0.283114
v -0.227330 0.002278 -0.394581
v -0.227330 -0.001460 -0.394581
v -0.227330 -0.001460 -0.283114
v -0.217358 -0.001460 -0.394581
v -0.217358 -0.001460 -0.283114
v 0.214809 0.002278 -0.394581
v 0.214809 -0.001460 -0.394581
v 0.214809 0.002278 -0.283114
v 0.224781 0.002278 -0.283114
v 0.224781 0.002278 -0.394581
v 0.224781 0.002278 -0.394581
v 0.214809 0.002278 -0.394581
v 0.214809 0.002278 -0.283114
v 0.298539 0.002278 -0.394581
v 0.298539 -0.001460 -0.394581
v -0.217358 -0.001460 -0.394581
v -0.217358 0.002278 -0.394581
v -0.227330 0.002278 -0.283114
v -0.217358 0.002278 -0.283114
v -0.217358 0.002278 -0.394581
v -0.217358 0.002278 -0.394581
v -0.227330 0.002278 -0.394581
v -0.227330 0.002278 -0.283114
v -0.301089 -0.001460 -0.394581
v -0.301089 0.002278 -0.394581
v 0.214809 -0.001460 -0.048763
v 0.214809 0.002278 -0.048763
v 0.308512 0.002278 -0.172278
v 0.308512 -0.019573 -0.172278
v 0.308512 0.002278 -0.283114
v 0.298540 0.002278 -0.283114
v 0.298539 0.002278 -0.172278
v 0.298539 0.002278 -0.172278
v 0.308512 0.002278 -0.172278
v 0.308512 0.002278 -0.283114
v 0.214809 0.002278 -0.048763
v 0.224781 0.002278 -0.048763
v 0.224781 0.002278 -0.172278
v 0.224781 0.002278 -0.172278
v 0.214809 0.002278 -0.172278
v 0.214809 0.002278 -0.048763
v 0.224781 -0.001460 -0.172278
v 0.298539 -0.001460 -0.172278
v 0.224781 0.002278 -0.172278
v 0.224781 -0.001460 -0.172278
v 0.298539 -0.001460 -0.048763
v 0.298539 0.002278 -0.048763
v -0.001275 -0.001460 -0.172278
v 0.214809 -0.001460 -0.172278
v -0.217358 0.002278 -0.048763
v -0.217358 -0.001460 -0.048763
v -0.311061 -0.019573 -0.172278
v -0.311061 0.002278 -0.172278
v -0.301089 0.002278 -0.283114
v -0.311061 0.002278 -0.283114
v -0.311061 0.002278 -0.172278
v -0.301089 0.002278 -0.172278
v -0.301089 0.002278 -0.283114
v -0.227330 0.002278 -0.048763
v -0.217358 0.002278 -0.048763
v -0.217358 0.002278 -0.172278
v -0.217358 0.002278 -0.172278
v -0.227330 0.002278 -0.172278
v -0.227330 0.002278 -0.048763
v -0.301089 -0.001460 -0.172278
v -0.227330 -0.001460 -0.172278
v -0.227330 -0.001460 -0.172278
v -0.227330 0.002278 -0.172278
v -0.301089 0.002278 -0.048763
v -0.301089 -0.001460 -0.048763
v -0.217358 -0.001460 -0.172278
v 0.308512 0.002278 -0.048763
v 0.308512 -0.019573 -0.048763
v 0.308512 0.002278 -0.172278
v 0.298539 0.002278 -0.172278
v 0.298539 0.002278 -0.048763
v 0.298539 0.002278 -0.048763
v 0.308512 0.002278 -0.048763
v 0.308512 0.002278 -0.172278
v 0.224781 -0.001460 -0.048763
v 0.298539 -0.001460 -0.048763
v 0.224781 0.002278 -0.048763
v 0.224781 -0.001460 -0.048763
v -0.001275 -0.001460 -0.048763
v 0.214809 -0.001460 -0.048763
v -0.311061 -0.019573 -0.048763
v -0.311061 0.002278 -0.048763
v -0.301089 0.002278 -0.172278
v -0.311061 0.002278 -0.172278
v -0.311061 0.002278 -0.048763
v -0.311061 0.002278 -0.048763
v -0.301089 0.002278 -0.048763
v -0.301089 0.002278 -0.172278
v -0.301089 -0.001460 -0.048763
v -0.227330 -0.001460 -0.048763
v -0.227330 -0.001460 -0.048763
v -0.227330 0.002278 -0.048763
v -0.217358 -0.001460 -0.048763
v 0.308512 0.002278 0.224992
v 0.308512 -0.019573 0.224992
v 0.308512 0.002278 0.224992
v 0.308512 0.002278 -0.048763
v 0.298539 0.002278 -0.048763
v 0.298539 0.002278 -0.048763
v 0.298540 0.002278 0.224992
v 0.308512 0.002278 0.224992
v 0.298540 -0.001460 0.224992
v 0.224781 -0.001460 0.224992
v 0.224781 0.002278 0.224992
v 0.224781 -0.001460 0.224992
v 0.214809 -0.001460 0.224992
v -0.001275 -0.001460 0.224992
v -0.311061 0.002278 0.224992
v -0.311061 -0.019573 0.224992
v -0.301089 0.002278 -0.048763
v -0.311061 0.002278 -0.048763
v -0.311061 0.002278 0.224992
v -0.311061 0.002278 0.224992
v -0.301089 0.002278 0.224992
v -0.301089 0.002278 -0.048763
v -0.301089 -0.001460 0.224992
v -0.227330 -0.001460 0.224992
v -0.227330 0.002278 0.224992
v -0.227330 -0.001460 0.224992
v -0.217358 -0.001460 0.224992
v 0.214809 -0.001460 0.224992
v 0.214809 0.002278 0.224992
v 0.214809 0.002278 0.224992
v 0.224781 0.002278 0.224992
v 0.224781 0.002278 -0.048763
v 0.224781 0.002278 -0.048763
v 0.214809 0.002278 -0.048763
v 0.214809 0.002278 0.224992
v 0.298540 -0.001460 0.224992
v 0.298540 0.002278 0.224992
v -0.217358 0.002278 0.224992
v -0.217358 -0.001460 0.224992
v -0.227330 0.002278 0.224992
v -0.217358 0.002278 0.224992
v -0.217358 0.002278 -0.048763
v -0.217358 0.002278 -0.048763
v -0.227330 0.002278 -0.048763
v -0.227330 0.002278 0.224992
v -0.301089 0.002278 0.224992
v -0.301089 -0.001460 0.224992
v 0.214809 -0.001460 0.844566
v 0.214809 0.002278 0.844566
v 0.308512 -0.019573 0.844566
v 0.308512 0.002278 0.844566
v 0.308512 0.002278 0.844566
v 0.308512 0.002278 0.224992
v 0.298540 0.002278 0.224992
v 0.298540 0.002278 0.844566
v 0.214809 0.002278 0.224992
v 0.214809 0.002278 0.844566
v 0.224781 0.002278 0.844566
v 0.224781 0.002278 0.224992
v 0.298540 -0.001460 0.844566
v 0.224781 -0.001460 0.844566
v 0.224781 0.002278 0.844566
v 0.224781 -0.001460 0.844566
v 0.298540 -0.001460 0.844566
v 0.298540 0.002278 0.844566
v 0.214809 -0.001460 0.844566
v -0.001275 -0.001460 0.844564
v -0.217358 0.002278 0.844564
v -0.217358 -0.001460 0.844564
v -0.311061 -0.019573 0.844564
v -0.311061 0.002278 0.844564
v -0.311061 0.002278 0.844564
v -0.301089 0.002278 0.844564
v -0.301089 0.002278 0.224992
v -0.311061 0.002278 0.224992
v -0.217358 0.002278 0.224992
v -0.227330 0.002278 0.224992
v -0.227330 0.002278 0.844564
v -0.217358 0.002278 0.844564
v -0.301089 -0.001460 0.844564
v -0.227330 -0.001460 0.844564
v -0.227330 -0.001460 0.844564
v -0.227330 0.002278 0.844564
v -0.301089 -0.001460 0.844564
v -0.301089 0.002278 0.844564
v -0.217358 -0.001460 0.844564
vt 0.125847 0.484762
vt 0.126342 0.484762
vt 0.126343 0.499316
vt 0.125847 0.499316
vt 0.126343 0.499316
vt 0.126342 0.484762
vt 0.127665 0.484762
vt 0.127666 0.499316
vt 0.125844 0.484762
vt 0.126339 0.484762
vt 0.126340 0.499316
vt 0.125844 0.499316
vt 0.127699 0.499316
vt 0.127699 0.484762
vt 0.128194 0.484762
vt 0.128194 0.499316
vt 0.126377 0.484762
vt 0.127699 0.484762
vt 0.127699 0.499316
vt 0.126376 0.499316
vt 0.130047 0.499316
vt 0.130047 0.484762
vt 0.130543 0.484762
vt 0.130543 0.499316
vt 0.130541 0.432595
vt 0.127643 0.432595
vt 0.127642 0.417958
vt 0.130541 0.417958
vt 0.127642 0.417958
vt 0.127643 0.432595
vt 0.126320 0.432595
vt 0.126320 0.432595
vt 0.126319 0.417958
vt 0.144215 0.499496
vt 0.144215 0.477254
vt 0.158933 0.477254
vt 0.158933 0.499496
vt 0.128194 0.432595
vt 0.127699 0.432595
vt 0.127699 0.417958
vt 0.128194 0.417958
vt 0.499850 0.249058
vt 0.499850 0.226933
vt 0.437651 0.226933
vt 0.437651 0.249058
vt 0.128724 0.417958
vt 0.128723 0.432595
vt 0.125825 0.432595
vt 0.125825 0.417958
vt 0.130046 0.432595
vt 0.128723 0.432595
vt 0.128724 0.417958
vt 0.130047 0.417958
vt 0.130046 0.432595
vt 0.131673 0.477254
vt 0.146391 0.477254
vt 0.146391 0.499496
vt 0.131673 0.499496
vt 0.126376 0.417958
vt 0.126375 0.432595
vt 0.125880 0.432595
vt 0.125880 0.417958
vt 0.437581 0.226933
vt 0.375207 0.226933
vt 0.375207 0.249058
vt 0.437581 0.249058
vt 0.125880 0.417958
vt 0.126376 0.417958
vt 0.126376 0.432595
vt 0.125880 0.432595
vt 0.126376 0.417958
vt 0.127699 0.417958
vt 0.127699 0.432595
vt 0.127699 0.432595
vt 0.126376 0.432595
vt 0.126376 0.417958
vt 0.125824 0.417958
vt 0.126319 0.417958
vt 0.126320 0.432595
vt 0.125824 0.432595
vt 0.127699 0.417958
vt 0.128194 0.417958
vt 0.128194 0.432595
vt 0.127698 0.432595
vt 0.126376 0.417958
vt 0.127699 0.417958
vt 0.127698 0.432595
vt 0.127698 0.432595
vt 0.126375 0.432595
vt 0.126376 0.417958
vt 0.130047 0.417958
vt 0.130543 0.417958
vt 0.130543 0.432595
vt 0.130046 0.432595
vt 0.125847 0.463992
vt 0.126342 0.463992
vt 0.130562 0.499316
vt 0.127663 0.499316
vt 0.127662 0.484762
vt 0.130562 0.484762
vt 0.127663 0.499316
vt 0.126340 0.499316
vt 0.126339 0.484762
vt 0.126339 0.484762
vt 0.127662 0.484762
vt 0.127663 0.499316
vt 0.126342 0.463992
vt 0.127665 0.463992
vt 0.127665 0.484762
vt 0.127665 0.484762
vt 0.126342 0.484762
vt 0.126342 0.463992
vt 0.171486 0.375869
vt 0.186204 0.375869
vt 0.186204 0.397984
vt 0.171486 0.397984
vt 0.128162 0.499316
vt 0.127666 0.499316
vt 0.127665 0.484762
vt 0.128162 0.484762
vt 0.125844 0.463992
vt 0.126339 0.463992
vt 0.499850 0.248948
vt 0.437672 0.248948
vt 0.437672 0.226948
vt 0.499850 0.226948
vt 0.127699 0.463992
vt 0.128194 0.463992
vt 0.128724 0.499316
vt 0.125825 0.499316
vt 0.125825 0.484762
vt 0.128725 0.484762
vt 0.130047 0.499316
vt 0.128724 0.499316
vt 0.128725 0.484762
vt 0.130047 0.484762
vt 0.130047 0.499316
vt 0.126377 0.463992
vt 0.127699 0.463992
vt 0.127699 0.484762
vt 0.127699 0.484762
vt 0.126377 0.484762
vt 0.126377 0.463992
vt 0.156674 0.375868
vt 0.171392 0.375868
vt 0.171392 0.397984
vt 0.156674 0.397984
vt 0.126376 0.499316
vt 0.125880 0.499316
vt 0.125880 0.484762
vt 0.126377 0.484762
vt 0.130047 0.463992
vt 0.130543 0.463992
vt 0.437602 0.248948
vt 0.375207 0.248948
vt 0.375207 0.226948
vt 0.437602 0.226948
vt 0.127662 0.463992
vt 0.130562 0.463992
vt 0.127662 0.484762
vt 0.126339 0.484762
vt 0.126339 0.463992
vt 0.126339 0.463992
vt 0.127662 0.463992
vt 0.127662 0.484762
vt 0.186204 0.429545
vt 0.171486 0.429545
vt 0.127665 0.463992
vt 0.128162 0.463992
vt 0.437672 0.195552
vt 0.499850 0.195552
vt 0.125825 0.463992
vt 0.128725 0.463992
vt 0.130047 0.484762
vt 0.128725 0.484762
vt 0.128725 0.463992
vt 0.128725 0.463992
vt 0.130047 0.463992
vt 0.130047 0.484762
vt 0.171392 0.429545
vt 0.156674 0.429545
vt 0.125880 0.463992
vt 0.126377 0.463992
vt 0.375207 0.195552
vt 0.437602 0.195552
vt 0.130562 0.453905
vt 0.127663 0.453905
vt 0.127663 0.417958
vt 0.130562 0.417958
vt 0.127663 0.417958
vt 0.127663 0.453905
vt 0.126340 0.453905
vt 0.126340 0.453905
vt 0.126340 0.417958
vt 0.127663 0.417958
vt 0.171486 0.499496
vt 0.171486 0.444872
vt 0.186204 0.444872
vt 0.186204 0.499496
vt 0.128162 0.453906
vt 0.127666 0.453906
vt 0.127666 0.417958
vt 0.128162 0.417958
vt 0.124672 0.375523
vt 0.124672 0.429860
vt 0.063037 0.429861
vt 0.063037 0.375523
vt 0.128724 0.417958
vt 0.128724 0.453905
vt 0.125825 0.453905
vt 0.125825 0.417958
vt 0.130047 0.453905
vt 0.128724 0.453905
vt 0.128724 0.417958
vt 0.128724 0.417958
vt 0.130047 0.417958
vt 0.130047 0.453905
vt 0.156674 0.444872
vt 0.171392 0.444872
vt 0.171392 0.499496
vt 0.156674 0.499496
vt 0.126376 0.417958
vt 0.126376 0.453906
vt 0.125880 0.453906
vt 0.125880 0.417958
vt 0.062967 0.444165
vt 0.000225 0.444165
vt 0.000225 0.498502
vt 0.062967 0.498502
vt 0.125847 0.417958
vt 0.126343 0.417958
vt 0.126343 0.453906
vt 0.125847 0.453906
vt 0.126343 0.417958
vt 0.127666 0.417958
vt 0.127666 0.453906
vt 0.127666 0.453906
vt 0.126343 0.453906
vt 0.126343 0.417958
vt 0.125844 0.417958
vt 0.126340 0.417958
vt 0.126340 0.453905
vt 0.125844 0.453905
vt 0.127699 0.417958
vt 0.128194 0.417958
vt 0.128194 0.453906
vt 0.127699 0.453906
vt 0.126376 0.417958
vt 0.127699 0.417958
vt 0.127699 0.453906
vt 0.127699 0.453906
vt 0.126376 0.453906
vt 0.126376 0.417958
vt 0.130047 0.417958
vt 0.130543 0.417958
vt 0.130543 0.453905
vt 0.130047 0.453905
vt 0.125847 0.499316
vt 0.125847 0.417958
vt 0.126343 0.417958
vt 0.126343 0.499316
vt 0.130562 0.417958
vt 0.130562 0.499316
vt 0.127663 0.499316
vt 0.127663 0.417958
vt 0.127663 0.417958
vt 0.127663 0.499316
vt 0.126340 0.499316
vt 0.126340 0.417958
vt 0.126343 0.499316
vt 0.126343 0.417958
vt 0.127666 0.417958
vt 0.127666 0.499316
vt 0.171486 0.499496
vt 0.171486 0.375869
vt 0.186204 0.375869
vt 0.186204 0.499496
vt 0.128162 0.499316
vt 0.127666 0.499316
vt 0.127666 0.417958
vt 0.128162 0.417958
vt 0.125844 0.417958
vt 0.126340 0.417958
vt 0.126340 0.499316
vt 0.125844 0.499316
vt 0.124672 0.375523
vt 0.124672 0.498502
vt 0.063037 0.375523
vt 0.128194 0.499316
vt 0.127699 0.499316
vt 0.127699 0.417958
vt 0.128194 0.417958
vt 0.125825 0.417958
vt 0.128724 0.417958
vt 0.128724 0.499316
vt 0.125825 0.499316
vt 0.128724 0.417958
vt 0.130047 0.417958
vt 0.130047 0.499316
vt 0.128724 0.499316
vt 0.127699 0.499316
vt 0.126376 0.499316
vt 0.126376 0.417958
vt 0.127699 0.417958
vt 0.171392 0.499496
vt 0.156674 0.499496
vt 0.156674 0.375868
vt 0.171392 0.375868
vt 0.125880 0.499316
vt 0.125880 0.417958
vt 0.126376 0.417958
vt 0.126376 0.499316
vt 0.130543 0.417958
vt 0.130543 0.499316
vt 0.130047 0.499316
vt 0.130047 0.417958
vt 0.000225 0.498502
vt 0.062967 0.498502
vt 0.000225 0.375523
vn -1.0000 0.0000 0.0000
vn 0.0000 1.0000 0.0000
vn 1.0000 0.0000 0.0000
usemtl 7_Road-Crosswalk
s 1
f 1/1/1 2/2/1 3/3/1
f 3/3/1 4/4/1 1/1/1
f 5/5/2 6/6/2 7/7/2
f 7/7/2 8/8/2 5/5/2
f 9/9/1 10/10/1 11/11/1
f 11/11/1 12/12/1 9/9/1
f 13/13/3 14/14/3 15/15/3
f 15/15/3 16/16/3 13/13/3
f 17/17/2 18/18/2 19/19/2
f 19/19/2 20/20/2 17/17/2
f 21/21/3 22/22/3 23/23/3
f 23/23/3 24/24/3 21/21/3
f 25/25/3 26/26/3 27/27/3
f 27/27/3 28/28/3 25/25/3
f 29/29/2 30/30/2 31/31/2
f 32/32/2 33/33/2 29/29/2
f 34/34/2 35/35/2 36/36/2
f 36/36/2 37/37/2 34/34/2
f 38/38/3 39/39/3 40/40/3
f 40/40/3 41/41/3 38/38/3
f 42/42/2 43/43/2 44/44/2
f 44/44/2 45/45/2 42/42/2
f 46/46/1 47/47/1 48/48/1
f 48/48/1 49/49/1 46/46/1
f 50/50/2 51/51/2 52/52/2
f 52/52/2 53/53/2 54/54/2
f 55/55/2 56/56/2 57/57/2
f 57/57/2 58/58/2 55/55/2
f 59/59/1 60/60/1 61/61/1
f 61/61/1 62/62/1 59/59/1
f 44/63/2 63/64/2 64/65/2
f 64/65/2 45/66/2 44/63/2
f 4/67/1 3/68/1 65/69/1
f 65/69/1 66/70/1 4/67/1
f 67/71/2 68/72/2 69/73/2
f 70/74/2 71/75/2 72/76/2
f 12/77/1 11/78/1 73/79/1
f 73/79/1 74/80/1 12/77/1
f 13/81/3 16/82/3 75/83/3
f 75/83/3 76/84/3 13/81/3
f 77/85/2 78/86/2 79/87/2
f 80/88/2 81/89/2 82/90/2
f 21/91/3 24/92/3 83/93/3
f 83/93/3 84/94/3 21/91/3
f 2/2/1 1/1/1 85/95/1
f 85/95/1 86/96/1 2/2/1
f 28/97/3 27/98/3 87/99/3
f 87/99/3 88/100/3 28/97/3
f 89/101/2 90/102/2 91/103/2
f 92/104/2 93/105/2 94/106/2
f 95/107/2 96/108/2 97/109/2
f 98/110/2 99/111/2 100/112/2
f 34/113/2 37/114/2 101/115/2
f 101/115/2 102/116/2 34/113/2
f 41/117/3 40/118/3 103/119/3
f 103/119/3 104/120/3 41/117/3
f 10/10/1 9/9/1 105/121/1
f 105/121/1 106/122/1 10/10/1
f 42/123/2 45/124/2 107/125/2
f 107/125/2 108/126/2 42/123/2
f 15/15/3 14/14/3 109/127/3
f 109/127/3 110/128/3 15/15/3
f 46/129/1 49/130/1 111/131/1
f 111/131/1 112/132/1 46/129/1
f 113/133/2 114/134/2 115/135/2
f 115/135/2 116/136/2 117/137/2
f 118/138/2 119/139/2 120/140/2
f 121/141/2 122/142/2 123/143/2
f 58/144/2 57/145/2 124/146/2
f 124/146/2 125/147/2 58/144/2
f 59/148/1 62/149/1 126/150/1
f 126/150/1 127/151/1 59/148/1
f 23/23/3 22/22/3 128/152/3
f 128/152/3 129/153/3 23/23/3
f 45/154/2 64/155/2 130/156/2
f 130/156/2 107/157/2 45/154/2
f 88/100/3 87/99/3 131/158/3
f 131/158/3 132/159/3 88/100/3
f 133/160/2 134/161/2 135/162/2
f 136/163/2 137/164/2 138/165/2
f 102/116/2 101/115/2 139/166/2
f 139/166/2 140/167/2 102/116/2
f 104/120/3 103/119/3 141/168/3
f 141/168/3 142/169/3 104/120/3
f 108/126/2 107/125/2 143/170/2
f 143/170/2 144/171/2 108/126/2
f 112/132/1 111/131/1 145/172/1
f 145/172/1 146/173/1 112/132/1
f 147/174/2 148/175/2 149/176/2
f 150/177/2 151/178/2 152/179/2
f 125/147/2 124/146/2 153/180/2
f 153/180/2 154/181/2 125/147/2
f 127/151/1 126/150/1 155/182/1
f 155/182/1 156/183/1 127/151/1
f 107/157/2 130/156/2 157/184/2
f 157/184/2 143/185/2 107/157/2
f 132/186/3 131/187/3 158/188/3
f 158/188/3 159/189/3 132/186/3
f 160/190/2 161/191/2 162/192/2
f 163/193/2 164/194/2 165/195/2
f 166/196/2 140/197/2 139/198/2
f 139/198/2 167/199/2 166/196/2
f 142/200/3 141/201/3 168/202/3
f 168/202/3 169/203/3 142/200/3
f 170/204/2 144/205/2 143/206/2
f 143/206/2 171/207/2 170/204/2
f 172/208/1 146/209/1 145/210/1
f 145/210/1 173/211/1 172/208/1
f 174/212/2 175/213/2 176/214/2
f 177/215/2 178/216/2 179/217/2
f 154/218/2 153/219/2 180/220/2
f 180/220/2 181/221/2 154/218/2
f 182/222/1 156/223/1 155/224/1
f 155/224/1 183/225/1 182/222/1
f 143/226/2 157/227/2 184/228/2
f 184/228/2 171/229/2 143/226/2
f 185/230/1 186/231/1 86/232/1
f 86/232/1 85/233/1 185/230/1
f 187/234/2 188/235/2 189/236/2
f 190/237/2 191/238/2 192/239/2
f 193/240/1 194/241/1 106/242/1
f 106/242/1 105/243/1 193/240/1
f 195/244/3 196/245/3 110/246/3
f 110/246/3 109/247/3 195/244/3
f 197/248/2 198/249/2 199/250/2
f 200/251/2 201/252/2 202/253/2
f 203/254/3 204/255/3 129/256/3
f 129/256/3 128/257/3 203/254/3
f 185/258/1 205/259/1 206/260/1
f 206/260/1 186/261/1 185/258/1
f 207/262/3 159/263/3 158/264/3
f 158/264/3 208/265/3 207/262/3
f 209/266/2 210/267/2 211/268/2
f 211/268/2 212/269/2 209/266/2
f 213/270/2 214/271/2 215/272/2
f 215/272/2 216/273/2 213/270/2
f 217/274/2 166/275/2 167/276/2
f 167/276/2 218/277/2 217/274/2
f 169/278/3 168/279/3 219/280/3
f 219/280/3 220/281/3 169/278/3
f 221/282/1 222/283/1 194/284/1
f 194/284/1 193/285/1 221/282/1
f 223/286/2 170/287/2 171/229/2
f 171/229/2 224/288/2 223/286/2
f 196/289/3 195/290/3 225/291/3
f 225/291/3 226/292/3 196/289/3
f 227/293/1 228/294/1 172/295/1
f 172/295/1 173/296/1 227/293/1
f 229/297/2 230/298/2 231/299/2
f 231/299/2 232/300/2 229/297/2
f 233/301/2 234/302/2 235/303/2
f 235/303/2 236/304/2 233/301/2
f 237/305/2 238/306/2 181/307/2
f 181/307/2 180/308/2 237/305/2
f 183/309/1 239/310/1 240/311/1
f 240/311/1 182/312/1 183/309/1
f 241/313/3 204/314/3 203/315/3
f 203/315/3 242/316/3 241/313/3
f 243/317/2 224/318/2 171/207/2
f 171/207/2 184/319/2 243/317/2
