# Blender v2.79 (sub 0) OBJ File: ''
# www.blender.org
mtllib RoadBusStopDouble.mtl
o 7_Road-BusStop-Double
v -0.228806 -0.000787 0.621292
v -0.228806 -0.000787 0.001719
v -0.444890 -0.000787 0.001719
v -0.444890 -0.000787 0.621292
v -0.660973 -0.000787 0.001719
v -0.660973 0.002951 0.001719
v -0.660973 0.002951 0.621292
v -0.660973 -0.000787 0.621292
v -0.754678 -0.018901 0.621292
v -0.754678 0.002951 0.621292
v -0.754678 0.002951 0.001719
v -0.754678 -0.018901 0.001719
v -0.754678 0.002951 0.621292
v -0.744705 0.002951 0.621292
v -0.744705 0.002951 0.001719
v -0.754678 0.002951 0.001719
v -0.660973 0.002951 0.001719
v -0.670946 0.002951 0.001719
v -0.670946 0.002951 0.621292
v -0.660973 0.002951 0.621292
v -0.744705 -0.000787 0.621292
v -0.670946 -0.000787 0.621292
v -0.670946 -0.000787 0.001719
v -0.744705 -0.000787 0.001719
v -0.670946 -0.000787 0.001719
v -0.670946 -0.000787 0.621292
v -0.670946 0.002951 0.621292
v -0.670946 0.002951 0.001719
v -0.744705 -0.000787 0.621292
v -0.744705 -0.000787 0.001719
v -0.744705 0.002951 0.001719
v -0.744705 0.002951 0.621292
v -0.660973 -0.000787 0.621292
v -0.660973 -0.000787 0.001719
v -0.228806 -0.000787 -0.617853
v -0.444890 -0.000787 -0.617853
v -0.660973 -0.000787 -0.617853
v -0.660973 0.002951 -0.617853
v -0.754678 0.002951 -0.617853
v -0.754678 -0.018901 -0.617853
v -0.744705 0.002951 -0.617853
v -0.754678 0.002951 -0.617853
v -0.660973 0.002951 -0.617853
v -0.670946 0.002951 -0.617853
v -0.670946 -0.000787 -0.617853
v -0.744705 -0.000787 -0.617853
v -0.670946 -0.000787 -0.617853
v -0.670946 0.002951 -0.617853
v -0.744705 -0.000787 -0.617853
v -0.744705 0.002951 -0.617853
v -0.660973 -0.000787 -0.617853
v -0.012725 -0.000787 0.621292
v -0.012725 -0.000787 0.001719
v 0.203360 -0.000788 0.621292
v 0.203360 -0.000788 0.001719
v -0.012725 -0.000787 -0.617853
v 0.203359 -0.000788 -0.617853
v 0.203360 -0.000788 0.001719
v 0.203360 -0.000788 0.621292
v 0.376009 -0.000788 0.358295
v 0.376009 -0.000788 0.358295
v 0.376009 -0.000788 0.001719
v 0.203360 -0.000788 0.001719
v 0.203359 -0.000788 -0.617853
v 0.203360 -0.000788 0.001719
v 0.376009 -0.000788 0.001719
v 0.376009 -0.000788 0.001719
v 0.376007 -0.000788 -0.354856
v 0.203359 -0.000788 -0.617853
v 0.376009 -0.000788 0.001719
v 0.376007 0.002950 0.001719
v 0.376007 0.002950 -0.354856
v 0.376007 0.002950 -0.354856
v 0.376007 -0.000788 -0.354856
v 0.376009 -0.000788 0.001719
v 0.469711 -0.018901 0.001719
v 0.469711 0.002950 0.001719
v 0.469711 0.002950 0.358295
v 0.469711 -0.018901 0.358295
v 0.469711 0.002950 0.358295
v 0.469711 0.002950 0.001719
v 0.459739 0.002950 0.001719
v 0.459739 0.002950 0.358295
v 0.376007 0.002950 -0.354856
v 0.376007 0.002950 0.001719
v 0.385981 0.002950 0.001719
v 0.385980 0.002950 -0.354856
v 0.459739 -0.000788 0.358295
v 0.459739 -0.000788 0.001719
v 0.385980 -0.000788 0.001719
v 0.385981 -0.000788 0.358295
v 0.385980 -0.000788 0.001719
v 0.385981 0.002950 0.001719
v 0.385981 0.002950 0.358295
v 0.385981 -0.000788 0.358295
v 0.459739 -0.000788 0.001719
v 0.459739 0.002950 0.001719
v 0.459738 0.002950 -0.354856
v 0.459738 -0.000788 -0.354856
v 0.297064 0.002950 0.621293
v 0.297064 -0.018901 0.621293
v 0.297064 0.002950 0.621293
v 0.287090 0.002950 0.621293
v 0.287090 -0.000788 0.621293
v 0.213332 -0.000788 0.621293
v 0.213332 0.002950 0.621293
v 0.213332 -0.000788 0.621293
v 0.203360 -0.000788 0.621292
v 0.203360 0.002950 0.621293
v 0.376009 0.002950 0.358295
v 0.376009 0.002950 0.358295
v 0.376009 -0.000788 0.358295
v 0.203360 -0.000788 0.621292
v 0.203360 0.002950 0.621293
v 0.213332 0.002950 0.621293
v 0.385981 0.002950 0.358295
v 0.376009 0.002950 0.358295
v 0.287090 -0.000788 0.621293
v 0.287090 0.002950 0.621293
v 0.459739 0.002950 0.358295
v 0.459739 -0.000788 0.358295
v 0.469711 -0.018901 -0.354856
v 0.297062 -0.018901 -0.617852
v 0.297062 0.002950 -0.617852
v 0.469711 0.002950 -0.354856
v 0.297062 0.002950 -0.617852
v 0.287090 0.002950 -0.617852
v 0.459738 0.002950 -0.354856
v 0.469711 0.002950 -0.354856
v 0.287090 -0.000788 -0.617852
v 0.213330 -0.000788 -0.617852
v 0.385980 -0.000788 -0.354856
v 0.459738 -0.000788 -0.354856
v 0.385980 -0.000788 -0.354856
v 0.213330 -0.000788 -0.617852
v 0.213330 0.002950 -0.617852
v 0.385980 0.002950 -0.354856
v 0.203359 -0.000788 -0.617853
v 0.376007 -0.000788 -0.354856
v 0.376007 0.002950 -0.354856
v 0.376007 0.002950 -0.354856
v 0.203359 0.002950 -0.617852
v 0.203359 -0.000788 -0.617853
v 0.203359 0.002950 -0.617852
v 0.213330 0.002950 -0.617852
v 0.287090 -0.000788 -0.617852
v 0.287090 0.002950 -0.617852
v 0.376009 -0.000788 0.358295
v 0.376009 0.002950 0.358295
v 0.376007 0.002950 0.001719
v 0.376007 0.002950 0.001719
v 0.376009 -0.000788 0.001719
v 0.376009 -0.000788 0.358295
vt 0.124672 0.375523
vt 0.124672 0.498502
vt 0.063037 0.498502
vt 0.063037 0.375523
vt 0.128194 0.499316
vt 0.127699 0.499316
vt 0.127699 0.417958
vt 0.128194 0.417958
vt 0.125825 0.417958
vt 0.128724 0.417958
vt 0.128724 0.499316
vt 0.125825 0.499316
vt 0.128724 0.417958
vt 0.130047 0.417958
vt 0.130047 0.499316
vt 0.128724 0.499316
vt 0.127699 0.499316
vt 0.126376 0.499316
vt 0.126376 0.417958
vt 0.127699 0.417958
vt 0.171392 0.499496
vt 0.156674 0.499496
vt 0.156674 0.375868
vt 0.171392 0.375868
vt 0.125880 0.499316
vt 0.125880 0.417958
vt 0.126376 0.417958
vt 0.126376 0.499316
vt 0.130543 0.417958
vt 0.130543 0.499316
vt 0.130047 0.499316
vt 0.130047 0.417958
vt 0.000225 0.498502
vt 0.062967 0.498502
vt 0.062967 0.375523
vt 0.000225 0.375523
vt 0.999800 0.750678
vt 0.999800 0.873657
vt 0.938270 0.873658
vt 0.938270 0.750678
vt 0.128194 0.499316
vt 0.127699 0.499316
vt 0.127699 0.417958
vt 0.128194 0.417958
vt 0.125825 0.417958
vt 0.128724 0.417958
vt 0.128724 0.499316
vt 0.125825 0.499316
vt 0.128724 0.417958
vt 0.130047 0.417958
vt 0.130047 0.499316
vt 0.128724 0.499316
vt 0.127699 0.499316
vt 0.126376 0.499316
vt 0.126376 0.417958
vt 0.127699 0.417958
vt 0.146391 0.499496
vt 0.131673 0.499496
vt 0.131673 0.375869
vt 0.146391 0.375869
vt 0.125880 0.499316
vt 0.125880 0.417958
vt 0.126376 0.417958
vt 0.126376 0.499316
vt 0.130543 0.417958
vt 0.130543 0.499316
vt 0.130047 0.499316
vt 0.130047 0.417958
vt 0.875203 0.873658
vt 0.938200 0.873658
vt 0.938200 0.750678
vt 0.875203 0.750678
vt 0.063037 0.375523
vt 0.063037 0.498502
vt 0.000225 0.498502
vt 0.000225 0.375523
vt 0.062967 0.375523
vt 0.062967 0.498502
vt 0.938270 0.873658
vt 0.938270 0.750678
vt 0.875203 0.873658
vt 0.875203 0.750678
vt 0.938200 0.750678
vt 0.938200 0.873658
vt 0.948579 0.868798
vt 0.948579 0.752900
vt 0.980875 0.802096
vt 0.980875 0.802096
vt 0.980875 0.868798
vt 0.948579 0.868798
vt 0.924772 0.752415
vt 0.924772 0.868313
vt 0.892476 0.868313
vt 0.892476 0.868313
vt 0.892476 0.801612
vt 0.924772 0.752415
vt 0.128194 0.452947
vt 0.127699 0.452947
vt 0.127699 0.499770
vt 0.127699 0.499770
vt 0.128194 0.499770
vt 0.128194 0.452947
vt 0.125825 0.452947
vt 0.128724 0.452947
vt 0.128724 0.406123
vt 0.125825 0.406123
vt 0.128724 0.406123
vt 0.128724 0.452947
vt 0.130047 0.452947
vt 0.130047 0.406123
vt 0.127699 0.499770
vt 0.127699 0.452947
vt 0.126376 0.452947
vt 0.126376 0.499770
vt 0.146391 0.499496
vt 0.146391 0.437824
vt 0.131673 0.437824
vt 0.131673 0.499496
vt 0.125880 0.452947
vt 0.126376 0.452947
vt 0.126376 0.406124
vt 0.125880 0.406124
vt 0.130543 0.452946
vt 0.130047 0.452947
vt 0.130047 0.499770
vt 0.130543 0.499770
vt 0.125825 0.440658
vt 0.128724 0.440658
vt 0.128724 0.390601
vt 0.125825 0.390601
vt 0.128724 0.390601
vt 0.128724 0.440658
vt 0.130046 0.440658
vt 0.130047 0.390601
vt 0.146391 0.499496
vt 0.185003 0.443877
vt 0.170286 0.443877
vt 0.131673 0.499496
vt 0.125880 0.440659
vt 0.126376 0.440659
vt 0.126376 0.390601
vt 0.125880 0.390601
vt 0.128194 0.390601
vt 0.127699 0.390601
vt 0.127698 0.440658
vt 0.127698 0.440658
vt 0.128194 0.440658
vt 0.128194 0.390601
vt 0.127699 0.390601
vt 0.126376 0.390601
vt 0.126376 0.440659
vt 0.127698 0.440658
vt 0.130543 0.390601
vt 0.130047 0.390601
vt 0.130046 0.440658
vt 0.130542 0.440658
vt 0.125825 0.440658
vt 0.125825 0.390601
vt 0.128724 0.390601
vt 0.128724 0.440658
vt 0.128724 0.390601
vt 0.130047 0.390601
vt 0.130046 0.440658
vt 0.128724 0.440658
vt 0.146391 0.499496
vt 0.131673 0.499496
vt 0.170286 0.443877
vt 0.185003 0.443877
vt 0.125880 0.440659
vt 0.125880 0.390601
vt 0.126376 0.390601
vt 0.126376 0.440659
vt 0.128194 0.390601
vt 0.128194 0.440658
vt 0.127698 0.440658
vt 0.127698 0.440658
vt 0.127699 0.390601
vt 0.128194 0.390601
vt 0.127699 0.390601
vt 0.127698 0.440658
vt 0.126376 0.440659
vt 0.126376 0.390601
vt 0.130543 0.390601
vt 0.130542 0.440658
vt 0.130046 0.440658
vt 0.130047 0.390601
vt 0.128194 0.406124
vt 0.127699 0.406124
vt 0.127699 0.452947
vt 0.127699 0.452947
vt 0.128194 0.452947
vt 0.128194 0.406124
vt 0.125825 0.499770
vt 0.128725 0.499770
vt 0.128725 0.499770
vt 0.130047 0.499770
vt 0.127699 0.406124
vt 0.126376 0.406124
vt 0.146391 0.376151
vt 0.131673 0.376151
vt 0.125880 0.499770
vt 0.126376 0.499770
vt 0.130543 0.406123
vt 0.130047 0.406123
vn 0.0000 1.0000 0.0000
vn 1.0000 0.0000 0.0000
vn -1.0000 0.0000 0.0000
vn 0.9581 0.0000 0.2864
vn 1.0000 -0.0003 -0.0000
vn -0.9581 0.0000 0.2864
vn 0.8360 0.0000 0.5488
vn -0.8360 -0.0003 -0.5488
vn -0.8360 0.0001 -0.5488
vn -0.8360 0.0000 -0.5488
vn -0.9581 0.0000 -0.2864
vn 0.9581 0.0000 -0.2864
vn 0.8360 0.0000 -0.5488
vn -0.8360 0.0000 0.5488
vn -0.8360 -0.0001 0.5488
vn -1.0000 -0.0004 -0.0000
usemtl 7_Road-BusStop-Double
s 1
f 1/1/1 2/2/1 3/3/1
f 3/3/1 4/4/1 1/1/1
f 5/5/2 6/6/2 7/7/2
f 7/7/2 8/8/2 5/5/2
f 9/9/3 10/10/3 11/11/3
f 11/11/3 12/12/3 9/9/3
f 13/13/1 14/14/1 15/15/1
f 15/15/1 16/16/1 13/13/1
f 17/17/1 18/18/1 19/19/1
f 19/19/1 20/20/1 17/17/1
f 21/21/1 22/22/1 23/23/1
f 23/23/1 24/24/1 21/21/1
f 25/25/3 26/26/3 27/27/3
f 27/27/3 28/28/3 25/25/3
f 29/29/2 30/30/2 31/31/2
f 31/31/2 32/32/2 29/29/2
f 33/33/1 4/34/1 3/35/1
f 3/35/1 34/36/1 33/33/1
f 2/37/1 35/38/1 36/39/1
f 36/39/1 3/40/1 2/37/1
f 37/41/2 38/42/2 6/43/2
f 6/43/2 5/44/2 37/41/2
f 12/45/3 11/46/3 39/47/3
f 39/47/3 40/48/3 12/45/3
f 16/49/1 15/50/1 41/51/1
f 41/51/1 42/52/1 16/49/1
f 43/53/1 44/54/1 18/55/1
f 18/55/1 17/56/1 43/53/1
f 24/57/1 23/58/1 45/59/1
f 45/59/1 46/60/1 24/57/1
f 47/61/3 25/62/3 28/63/3
f 28/63/3 48/64/3 47/61/3
f 30/65/2 49/66/2 50/67/2
f 50/67/2 31/68/2 30/65/2
f 34/69/1 3/70/1 36/71/1
f 36/71/1 51/72/1 34/69/1
f 1/1/1 52/73/1 53/74/1
f 53/74/1 2/2/1 1/1/1
f 54/75/1 55/76/1 53/77/1
f 53/77/1 52/78/1 54/75/1
f 56/79/1 35/38/1 2/37/1
f 2/37/1 53/80/1 56/79/1
f 55/81/1 57/82/1 56/83/1
f 56/83/1 53/84/1 55/81/1
f 58/85/1 59/86/1 60/87/1
f 61/88/1 62/89/1 63/90/1
f 64/91/1 65/92/1 66/93/1
f 67/94/1 68/95/1 69/96/1
f 70/97/3 71/98/3 72/99/3
f 73/100/3 74/101/3 75/102/3
f 76/103/2 77/104/2 78/105/4
f 78/105/4 79/106/4 76/103/2
f 80/107/1 81/108/1 82/109/1
f 82/109/1 83/110/1 80/107/1
f 84/111/1 85/112/1 86/113/1
f 86/113/1 87/114/1 84/111/1
f 88/115/1 89/116/1 90/117/1
f 90/117/1 91/118/1 88/115/1
f 92/119/5 93/120/5 94/121/4
f 94/121/4 95/122/4 92/119/5
f 96/123/3 97/124/3 98/125/6
f 98/125/6 99/126/6 96/123/3
f 79/127/4 78/128/4 100/129/7
f 100/129/7 101/130/7 79/127/4
f 102/131/1 80/132/1 83/133/1
f 83/133/1 103/134/1 102/131/1
f 104/135/1 88/136/1 91/137/1
f 91/137/1 105/138/1 104/135/1
f 95/139/4 94/140/4 106/141/7
f 106/141/7 107/142/7 95/139/4
f 108/143/8 109/144/9 110/145/8
f 111/146/10 112/147/10 113/148/10
f 114/149/1 115/150/1 116/151/1
f 116/151/1 117/152/1 114/149/1
f 118/153/10 119/154/10 120/155/11
f 120/155/11 121/156/11 118/153/10
f 122/157/12 123/158/13 124/159/13
f 124/159/13 125/160/12 122/157/12
f 126/161/1 127/162/1 128/163/1
f 128/163/1 129/164/1 126/161/1
f 130/165/1 131/166/1 132/167/1
f 132/167/1 133/168/1 130/165/1
f 134/169/12 135/170/13 136/171/13
f 136/171/13 137/172/12 134/169/12
f 138/173/14 139/174/14 140/175/14
f 141/176/15 142/177/15 143/178/15
f 144/179/1 84/180/1 87/181/1
f 87/181/1 145/182/1 144/179/1
f 146/183/14 99/184/6 98/185/6
f 98/185/6 147/186/14 146/183/14
f 148/187/3 149/188/3 150/189/3
f 151/190/16 152/191/16 153/192/16
f 77/104/2 76/103/2 122/193/12
f 122/193/12 125/194/12 77/104/2
f 82/109/1 81/108/1 129/195/1
f 129/195/1 128/196/1 82/109/1
f 86/113/1 85/112/1 117/197/1
f 117/197/1 116/198/1 86/113/1
f 90/117/1 89/116/1 133/199/1
f 133/199/1 132/200/1 90/117/1
f 93/120/5 92/119/5 134/201/12
f 134/201/12 137/202/12 93/120/5
f 97/124/3 96/123/3 121/203/11
f 121/203/11 120/204/11 97/124/3
