# Blender v2.79 (sub 0) OBJ File: ''
# www.blender.org
mtllib RoadEndB.mtl
o 7_Road-End-B
v -0.299812 0.003274 0.150099
v -0.281312 0.003274 0.035010
v -0.289824 0.003274 0.031484
v -0.289824 0.003274 0.031484
v -0.309784 0.003274 0.150099
v -0.299812 0.003274 0.150099
v -0.226054 0.003274 0.150099
v -0.218355 0.003274 0.061087
v -0.218355 -0.000464 0.061087
v -0.226054 -0.000464 0.150099
v -0.299812 -0.000464 0.150099
v -0.281312 -0.000464 0.035010
v -0.281312 0.003274 0.035010
v -0.299812 0.003274 0.150099
v -0.216081 -0.000464 0.150099
v -0.209843 -0.000464 0.064614
v -0.209843 0.003274 0.064614
v -0.216081 0.003274 0.150099
v -0.309784 0.003274 0.150099
v -0.289824 0.003274 0.031484
v -0.289824 -0.018577 0.031484
v -0.309784 -0.018577 0.150099
v -0.216081 0.003274 0.150099
v -0.209843 0.003274 0.064614
v -0.218355 0.003274 0.061087
v -0.218355 0.003274 0.061087
v -0.226054 0.003274 0.150099
v -0.216081 0.003274 0.150099
v -0.226054 -0.000464 0.150099
v -0.218355 -0.000464 0.061087
v -0.281312 -0.000464 0.035010
v -0.281312 -0.000464 0.035010
v -0.299812 -0.000464 0.150099
v -0.226054 -0.000464 0.150099
v -0.226385 0.003274 -0.062096
v -0.131404 0.003274 -0.128135
v -0.134930 0.003274 -0.136647
v -0.233437 0.003274 -0.069148
v -0.174230 0.003274 -0.009941
v -0.105327 0.003274 -0.065179
v -0.105327 -0.000464 -0.065179
v -0.174230 -0.000464 -0.009941
v -0.226385 -0.000464 -0.062096
v -0.131404 -0.000464 -0.128135
v -0.131404 0.003274 -0.128135
v -0.226385 0.003274 -0.062096
v -0.167179 -0.000464 -0.002889
v -0.101801 -0.000464 -0.056666
v -0.101801 0.003274 -0.056666
v -0.101801 0.003274 -0.056666
v -0.167179 0.003274 -0.002889
v -0.167179 -0.000464 -0.002889
v -0.233437 0.003274 -0.069148
v -0.134930 0.003274 -0.136647
v -0.134930 -0.018577 -0.136647
v -0.233437 -0.018577 -0.069148
v -0.167179 0.003274 -0.002889
v -0.101801 0.003274 -0.056666
v -0.105327 0.003274 -0.065179
v -0.174230 0.003274 -0.009941
v -0.174230 -0.000464 -0.009941
v -0.105327 -0.000464 -0.065179
v -0.131404 -0.000464 -0.128135
v -0.226385 -0.000464 -0.062096
v -0.289824 0.003274 0.031484
v -0.281312 0.003274 0.035010
v -0.174230 0.003274 -0.009941
v -0.174230 -0.000464 -0.009941
v -0.218355 -0.000464 0.061087
v -0.218355 0.003274 0.061087
v -0.226385 -0.000464 -0.062096
v -0.226385 0.003274 -0.062096
v -0.281312 0.003274 0.035010
v -0.281312 0.003274 0.035010
v -0.281312 -0.000464 0.035010
v -0.226385 -0.000464 -0.062096
v -0.167179 -0.000464 -0.002889
v -0.167179 0.003274 -0.002889
v -0.209843 0.003274 0.064614
v -0.209843 0.003274 0.064614
v -0.209843 -0.000464 0.064614
v -0.167179 -0.000464 -0.002889
v -0.233437 0.003274 -0.069148
v -0.233437 -0.018577 -0.069148
v -0.289824 -0.018577 0.031484
v -0.289824 -0.018577 0.031484
v -0.289824 0.003274 0.031484
v -0.233437 0.003274 -0.069148
v -0.218355 0.003274 0.061087
v -0.209843 0.003274 0.064614
v -0.281312 -0.000464 0.035010
v -0.218355 -0.000464 0.061087
v 0.000002 0.003274 -0.151957
v 0.000002 0.003274 -0.161929
v 0.000002 0.003274 -0.078198
v 0.000002 -0.000464 -0.078198
v -0.105327 -0.000464 -0.065179
v -0.105327 0.003274 -0.065179
v 0.000002 -0.000464 -0.151957
v 0.000002 0.003274 -0.151957
v -0.131404 0.003274 -0.128135
v -0.131404 -0.000464 -0.128135
v 0.000002 -0.000464 -0.068226
v 0.000002 0.003274 -0.068226
v -0.101801 0.003274 -0.056666
v -0.101801 0.003274 -0.056666
v -0.101801 -0.000464 -0.056666
v 0.000002 -0.000464 -0.068226
v 0.000002 0.003274 -0.161929
v 0.000002 -0.018577 -0.161929
v -0.134930 -0.018577 -0.136647
v -0.134930 -0.018577 -0.136647
v -0.134930 0.003274 -0.136647
v 0.000002 0.003274 -0.161929
v 0.000002 0.003274 -0.068226
v 0.000002 0.003274 -0.078198
v 0.000002 -0.000464 -0.078198
v 0.000002 -0.000464 -0.151957
v -0.216081 -0.000464 0.150099
v 0.000002 -0.000464 0.150099
v 0.000002 -0.000464 0.064614
v 0.000002 -0.000464 0.064614
v -0.209843 -0.000464 0.064614
v -0.216081 -0.000464 0.150099
v -0.167179 -0.000464 -0.002889
v -0.209843 -0.000464 0.064614
v 0.000002 -0.000464 0.064614
v 0.000002 -0.000464 -0.002889
v -0.101801 -0.000464 -0.056666
v 0.000002 -0.000464 -0.068226
v 0.299816 0.003274 0.150099
v 0.309789 0.003274 0.150099
v 0.289827 0.003274 0.031484
v 0.289827 0.003274 0.031484
v 0.281315 0.003274 0.035010
v 0.299816 0.003274 0.150099
v 0.226057 0.003274 0.150099
v 0.226057 -0.000464 0.150099
v 0.218358 -0.000464 0.061087
v 0.218358 0.003274 0.061087
v 0.299816 -0.000464 0.150099
v 0.299816 0.003274 0.150099
v 0.281315 0.003274 0.035010
v 0.281315 -0.000464 0.035010
v 0.216085 -0.000464 0.150099
v 0.216085 0.003274 0.150099
v 0.209846 0.003274 0.064614
v 0.209846 -0.000464 0.064614
v 0.309789 0.003274 0.150099
v 0.309789 -0.018577 0.150099
v 0.289827 -0.018577 0.031484
v 0.289827 0.003274 0.031484
v 0.216085 0.003274 0.150099
v 0.226057 0.003274 0.150099
v 0.218358 0.003274 0.061087
v 0.218358 0.003274 0.061087
v 0.209846 0.003274 0.064614
v 0.216085 0.003274 0.150099
v 0.226057 -0.000464 0.150099
v 0.299816 -0.000464 0.150099
v 0.281315 -0.000464 0.035010
v 0.281315 -0.000464 0.035010
v 0.218358 -0.000464 0.061087
v 0.226057 -0.000464 0.150099
v 0.134934 0.003274 -0.136647
v 0.226389 0.003274 -0.062096
v 0.233441 0.003274 -0.069148
v 0.131408 0.003274 -0.128135
v 0.174234 0.003274 -0.009941
v 0.174234 -0.000464 -0.009941
v 0.105330 -0.000464 -0.065179
v 0.105330 0.003274 -0.065179
v 0.226389 -0.000464 -0.062096
v 0.226389 0.003274 -0.062096
v 0.131408 0.003274 -0.128135
v 0.131408 -0.000464 -0.128135
v 0.167182 -0.000464 -0.002889
v 0.167182 0.003274 -0.002889
v 0.101805 0.003274 -0.056666
v 0.101805 0.003274 -0.056666
v 0.101805 -0.000464 -0.056666
v 0.167182 -0.000464 -0.002889
v 0.233441 0.003274 -0.069148
v 0.233441 -0.018577 -0.069148
v 0.134934 -0.018577 -0.136647
v 0.134934 0.003274 -0.136647
v 0.105330 0.003274 -0.065179
v 0.167182 0.003274 -0.002889
v 0.174234 0.003274 -0.009941
v 0.101805 0.003274 -0.056666
v 0.131408 -0.000464 -0.128135
v 0.174234 -0.000464 -0.009941
v 0.226389 -0.000464 -0.062096
v 0.105330 -0.000464 -0.065179
v 0.289827 0.003274 0.031484
v 0.281315 0.003274 0.035010
v 0.174234 0.003274 -0.009941
v 0.218358 0.003274 0.061087
v 0.218358 -0.000464 0.061087
v 0.174234 -0.000464 -0.009941
v 0.226389 -0.000464 -0.062096
v 0.281315 -0.000464 0.035010
v 0.281315 0.003274 0.035010
v 0.281315 0.003274 0.035010
v 0.226389 0.003274 -0.062096
v 0.226389 -0.000464 -0.062096
v 0.167182 -0.000464 -0.002889
v 0.209846 -0.000464 0.064614
v 0.209846 0.003274 0.064614
v 0.209846 0.003274 0.064614
v 0.167182 0.003274 -0.002889
v 0.167182 -0.000464 -0.002889
v 0.233441 0.003274 -0.069148
v 0.289827 0.003274 0.031484
v 0.289827 -0.018577 0.031484
v 0.289827 -0.018577 0.031484
v 0.233441 -0.018577 -0.069148
v 0.233441 0.003274 -0.069148
v 0.209846 0.003274 0.064614
v 0.218358 0.003274 0.061087
v 0.218358 -0.000464 0.061087
v 0.281315 -0.000464 0.035010
v 0.000002 0.003274 -0.078198
v 0.105330 0.003274 -0.065179
v 0.105330 -0.000464 -0.065179
v 0.000002 -0.000464 -0.078198
v 0.000002 -0.000464 -0.151957
v 0.131408 -0.000464 -0.128135
v 0.131408 0.003274 -0.128135
v 0.000002 0.003274 -0.151957
v 0.000002 -0.000464 -0.068226
v 0.101805 -0.000464 -0.056666
v 0.101805 0.003274 -0.056666
v 0.101805 0.003274 -0.056666
v 0.000002 0.003274 -0.068226
v 0.000002 -0.000464 -0.068226
v 0.000002 0.003274 -0.161929
v 0.134934 0.003274 -0.136647
v 0.134934 -0.018577 -0.136647
v 0.134934 -0.018577 -0.136647
v 0.000002 -0.018577 -0.161929
v 0.000002 0.003274 -0.161929
v 0.216085 -0.000464 0.150099
v 0.209846 -0.000464 0.064614
v 0.000002 -0.000464 0.064614
v 0.000002 -0.000464 0.064614
v 0.000002 -0.000464 0.150099
v 0.216085 -0.000464 0.150099
v 0.167182 -0.000464 -0.002889
v 0.209846 -0.000464 0.064614
v 0.101805 -0.000464 -0.056666
vt 0.129705 0.474500
vt 0.129705 0.459554
vt 0.130915 0.459554
vt 0.130915 0.459554
vt 0.130915 0.474500
vt 0.129705 0.474500
vt 0.130710 0.474506
vt 0.130710 0.464068
vt 0.131460 0.464068
vt 0.131460 0.474506
vt 0.129264 0.474500
vt 0.129264 0.459554
vt 0.129705 0.459554
vt 0.129705 0.474500
vt 0.129210 0.474506
vt 0.129210 0.464068
vt 0.129893 0.464068
vt 0.129893 0.474506
vt 0.130915 0.474500
vt 0.130915 0.459554
vt 0.132567 0.459554
vt 0.132567 0.474500
vt 0.129893 0.474506
vt 0.129893 0.464068
vt 0.130710 0.464068
vt 0.130710 0.464068
vt 0.130710 0.474506
vt 0.129893 0.474506
vt 0.184614 0.489395
vt 0.182896 0.469526
vt 0.196949 0.463705
vt 0.196949 0.463705
vt 0.201079 0.489395
vt 0.184614 0.489395
vt 0.129705 0.445122
vt 0.129705 0.430774
vt 0.130915 0.430774
vt 0.130915 0.445122
vt 0.130710 0.453990
vt 0.130710 0.443921
vt 0.131460 0.443921
vt 0.131460 0.453990
vt 0.129264 0.445122
vt 0.129264 0.430774
vt 0.129705 0.430774
vt 0.129705 0.445122
vt 0.129210 0.453990
vt 0.129210 0.443921
vt 0.129893 0.443921
vt 0.129893 0.443921
vt 0.129893 0.453990
vt 0.129210 0.453990
vt 0.130915 0.445122
vt 0.130915 0.430774
vt 0.132567 0.430774
vt 0.132567 0.445122
vt 0.129893 0.453990
vt 0.129893 0.443921
vt 0.130710 0.443921
vt 0.130710 0.453990
vt 0.173046 0.453671
vt 0.157666 0.441341
vt 0.163487 0.427287
vt 0.184688 0.442029
vt 0.130915 0.459554
vt 0.129705 0.459554
vt 0.130710 0.453990
vt 0.131460 0.453990
vt 0.131460 0.464068
vt 0.130710 0.464068
vt 0.129264 0.445122
vt 0.129705 0.445122
vt 0.129705 0.459554
vt 0.129705 0.459554
vt 0.129264 0.459554
vt 0.129264 0.445122
vt 0.129210 0.453990
vt 0.129893 0.453990
vt 0.129893 0.464068
vt 0.129893 0.464068
vt 0.129210 0.464068
vt 0.129210 0.453990
vt 0.130915 0.445122
vt 0.132567 0.445122
vt 0.132567 0.459554
vt 0.132567 0.459554
vt 0.130915 0.459554
vt 0.130915 0.445122
vt 0.130710 0.464068
vt 0.129893 0.464068
vt 0.196949 0.463705
vt 0.182896 0.469526
vt 0.129705 0.414792
vt 0.130915 0.414792
vt 0.130710 0.432120
vt 0.131460 0.432120
vt 0.131460 0.443921
vt 0.130710 0.443921
vt 0.129264 0.414792
vt 0.129705 0.414792
vt 0.129705 0.430774
vt 0.129264 0.430774
vt 0.129210 0.432120
vt 0.129893 0.432120
vt 0.129893 0.443921
vt 0.129893 0.443921
vt 0.129210 0.443921
vt 0.129210 0.432120
vt 0.130915 0.414792
vt 0.132567 0.414792
vt 0.132567 0.430774
vt 0.132567 0.430774
vt 0.130915 0.430774
vt 0.130915 0.414792
vt 0.129893 0.432120
vt 0.130710 0.432120
vt 0.134154 0.438434
vt 0.134154 0.421970
vt 0.375408 0.133268
vt 0.436788 0.133793
vt 0.435590 0.161649
vt 0.435590 0.161649
vt 0.375536 0.161310
vt 0.375408 0.133268
vt 0.375507 0.183375
vt 0.375536 0.161310
vt 0.435590 0.161649
vt 0.408795 0.201049
vt 0.375535 0.201004
vt 0.375393 0.216538
vt 0.129705 0.474500
vt 0.130915 0.474500
vt 0.130915 0.459554
vt 0.130915 0.459554
vt 0.129705 0.459554
vt 0.129705 0.474500
vt 0.130710 0.474506
vt 0.131460 0.474506
vt 0.131460 0.464068
vt 0.130710 0.464068
vt 0.129264 0.474500
vt 0.129705 0.474500
vt 0.129705 0.459554
vt 0.129264 0.459554
vt 0.129210 0.474506
vt 0.129893 0.474506
vt 0.129893 0.464068
vt 0.129210 0.464068
vt 0.130915 0.474500
vt 0.132567 0.474500
vt 0.132567 0.459554
vt 0.130915 0.459554
vt 0.129893 0.474506
vt 0.130710 0.474506
vt 0.130710 0.464068
vt 0.130710 0.464068
vt 0.129893 0.464068
vt 0.129893 0.474506
vt 0.184614 0.489395
vt 0.201079 0.489395
vt 0.196949 0.463705
vt 0.196949 0.463705
vt 0.182896 0.469526
vt 0.184614 0.489395
vt 0.130915 0.430774
vt 0.129705 0.445122
vt 0.130915 0.445122
vt 0.129705 0.430774
vt 0.130710 0.453990
vt 0.131460 0.453990
vt 0.131460 0.443921
vt 0.130710 0.443921
vt 0.129264 0.445122
vt 0.129705 0.445122
vt 0.129705 0.430774
vt 0.129264 0.430774
vt 0.129210 0.453990
vt 0.129893 0.453990
vt 0.129893 0.443921
vt 0.129893 0.443921
vt 0.129210 0.443921
vt 0.129210 0.453990
vt 0.130915 0.445122
vt 0.132567 0.445122
vt 0.132567 0.430774
vt 0.130915 0.430774
vt 0.130710 0.443921
vt 0.129893 0.453990
vt 0.130710 0.453990
vt 0.129893 0.443921
vt 0.163487 0.427287
vt 0.173046 0.453671
vt 0.184688 0.442029
vt 0.157666 0.441341
vt 0.130915 0.459554
vt 0.129705 0.459554
vt 0.130710 0.453990
vt 0.130710 0.464068
vt 0.131460 0.464068
vt 0.131460 0.453990
vt 0.129264 0.445122
vt 0.129264 0.459554
vt 0.129705 0.459554
vt 0.129705 0.459554
vt 0.129705 0.445122
vt 0.129264 0.445122
vt 0.129210 0.453990
vt 0.129210 0.464068
vt 0.129893 0.464068
vt 0.129893 0.464068
vt 0.129893 0.453990
vt 0.129210 0.453990
vt 0.130915 0.445122
vt 0.130915 0.459554
vt 0.132567 0.459554
vt 0.132567 0.459554
vt 0.132567 0.445122
vt 0.130915 0.445122
vt 0.129893 0.464068
vt 0.130710 0.464068
vt 0.182896 0.469526
vt 0.196949 0.463705
vt 0.130710 0.432120
vt 0.130710 0.443921
vt 0.131460 0.443921
vt 0.131460 0.432120
vt 0.129264 0.414792
vt 0.129264 0.430774
vt 0.129705 0.430774
vt 0.129705 0.414792
vt 0.129210 0.432120
vt 0.129210 0.443921
vt 0.129893 0.443921
vt 0.129893 0.443921
vt 0.129893 0.432120
vt 0.129210 0.432120
vt 0.130915 0.414792
vt 0.130915 0.430774
vt 0.132567 0.430774
vt 0.132567 0.430774
vt 0.132567 0.414792
vt 0.130915 0.414792
vt 0.375408 0.133268
vt 0.375536 0.161310
vt 0.435590 0.161649
vt 0.435590 0.161649
vt 0.436788 0.133793
vt 0.375408 0.133268
vt 0.375507 0.183375
vt 0.375536 0.161310
vt 0.375535 0.201004
vn -0.0000 1.0000 0.0000
vn -0.9963 0.0000 -0.0862
vn 0.9873 0.0000 0.1587
vn 0.9973 0.0000 0.0728
vn -0.9861 -0.0000 -0.1659
vn -0.6255 0.0000 -0.7802
vn 0.5709 0.0000 0.8210
vn 0.6353 0.0000 0.7723
vn -0.5653 0.0000 -0.8249
vn -0.8494 0.0000 -0.5277
vn 0.8704 0.0000 0.4923
vn 0.8453 0.0000 0.5343
vn -0.8724 0.0000 -0.4888
vn -0.1227 0.0000 -0.9924
vn 0.1784 0.0000 0.9840
vn 0.1128 0.0000 0.9936
vn -0.1842 0.0000 -0.9829
vn 0.9963 0.0000 -0.0862
vn -0.9873 0.0000 0.1587
vn -0.9973 0.0000 0.0728
vn 0.9861 0.0000 -0.1660
vn 0.6255 0.0000 -0.7802
vn -0.5709 0.0000 0.8210
vn -0.6353 0.0000 0.7723
vn 0.5653 0.0000 -0.8249
vn 0.8494 -0.0000 -0.5277
vn -0.8704 0.0000 0.4923
vn -0.8453 0.0000 0.5343
vn 0.8724 0.0000 -0.4888
vn 0.1227 0.0000 -0.9924
vn -0.1784 0.0000 0.9840
vn -0.1128 0.0000 0.9936
vn 0.1842 0.0000 -0.9829
usemtl 7_Road-End-B
s 1
f 1/1/1 2/2/1 3/3/1
f 4/4/1 5/5/1 6/6/1
f 7/7/2 8/8/2 9/9/2
f 9/9/2 10/10/2 7/7/2
f 11/11/3 12/12/3 13/13/3
f 13/13/3 14/14/3 11/11/3
f 15/15/4 16/16/4 17/17/4
f 17/17/4 18/18/4 15/15/4
f 19/19/5 20/20/5 21/21/5
f 21/21/5 22/22/5 19/19/5
f 23/23/1 24/24/1 25/25/1
f 26/26/1 27/27/1 28/28/1
f 29/29/1 30/30/1 31/31/1
f 32/32/1 33/33/1 34/34/1
f 35/35/1 36/36/1 37/37/1
f 37/37/1 38/38/1 35/35/1
f 39/39/6 40/40/6 41/41/6
f 41/41/6 42/42/6 39/39/6
f 43/43/7 44/44/7 45/45/7
f 45/45/7 46/46/7 43/43/7
f 47/47/8 48/48/8 49/49/8
f 50/50/8 51/51/8 52/52/8
f 53/53/9 54/54/9 55/55/9
f 55/55/9 56/56/9 53/53/9
f 57/57/1 58/58/1 59/59/1
f 59/59/1 60/60/1 57/57/1
f 61/61/1 62/62/1 63/63/1
f 63/63/1 64/64/1 61/61/1
f 35/35/1 38/38/1 65/65/1
f 65/65/1 66/66/1 35/35/1
f 67/67/10 68/68/10 69/69/10
f 69/69/10 70/70/10 67/67/10
f 71/71/11 72/72/11 73/73/11
f 74/74/11 75/75/11 76/76/11
f 77/77/12 78/78/12 79/79/12
f 80/80/12 81/81/12 82/82/12
f 83/83/13 84/84/13 85/85/13
f 86/86/13 87/87/13 88/88/13
f 57/57/1 60/60/1 89/89/1
f 89/89/1 90/90/1 57/57/1
f 61/61/1 64/64/1 91/91/1
f 91/91/1 92/92/1 61/61/1
f 37/37/1 36/36/1 93/93/1
f 93/93/1 94/94/1 37/37/1
f 95/95/14 96/96/14 97/97/14
f 97/97/14 98/98/14 95/95/14
f 99/99/15 100/100/15 101/101/15
f 101/101/15 102/102/15 99/99/15
f 103/103/16 104/104/16 105/105/16
f 106/106/16 107/107/16 108/108/16
f 109/109/17 110/110/17 111/111/17
f 112/112/17 113/113/17 114/114/17
f 59/59/1 58/58/1 115/115/1
f 115/115/1 116/116/1 59/59/1
f 63/63/1 62/62/1 117/117/1
f 117/117/1 118/118/1 63/63/1
f 119/119/1 120/120/1 121/121/1
f 122/122/1 123/123/1 124/124/1
f 125/125/1 126/126/1 127/127/1
f 127/127/1 128/128/1 125/125/1
f 129/129/1 125/125/1 128/128/1
f 128/128/1 130/130/1 129/129/1
f 131/131/1 132/132/1 133/133/1
f 134/134/1 135/135/1 136/136/1
f 137/137/18 138/138/18 139/139/18
f 139/139/18 140/140/18 137/137/18
f 141/141/19 142/142/19 143/143/19
f 143/143/19 144/144/19 141/141/19
f 145/145/20 146/146/20 147/147/20
f 147/147/20 148/148/20 145/145/20
f 149/149/21 150/150/21 151/151/21
f 151/151/21 152/152/21 149/149/21
f 153/153/1 154/154/1 155/155/1
f 156/156/1 157/157/1 158/158/1
f 159/159/1 160/160/1 161/161/1
f 162/162/1 163/163/1 164/164/1
f 165/165/1 94/94/1 93/93/1
f 166/166/1 167/167/1 165/165/1
f 165/165/1 168/168/1 166/166/1
f 93/93/1 168/168/1 165/165/1
f 169/169/22 170/170/22 171/171/22
f 171/171/22 172/172/22 169/169/22
f 173/173/23 174/174/23 175/175/23
f 175/175/23 176/176/23 173/173/23
f 177/177/24 178/178/24 179/179/24
f 180/180/24 181/181/24 182/182/24
f 183/183/25 184/184/25 185/185/25
f 185/185/25 186/186/25 183/183/25
f 187/187/1 116/116/1 115/115/1
f 188/188/1 189/189/1 187/187/1
f 187/187/1 190/190/1 188/188/1
f 115/115/1 190/190/1 187/187/1
f 191/191/1 118/118/1 117/117/1
f 192/192/1 193/193/1 191/191/1
f 117/117/1 194/194/1 191/191/1
f 191/191/1 194/194/1 192/192/1
f 195/195/1 167/167/1 166/166/1
f 166/166/1 196/196/1 195/195/1
f 197/197/26 198/198/26 199/199/26
f 199/199/26 200/200/26 197/197/26
f 201/201/27 202/202/27 203/203/27
f 204/204/27 205/205/27 206/206/27
f 207/207/28 208/208/28 209/209/28
f 210/210/28 211/211/28 212/212/28
f 213/213/29 214/214/29 215/215/29
f 216/216/29 217/217/29 218/218/29
f 188/188/1 219/219/1 220/220/1
f 220/220/1 189/189/1 188/188/1
f 192/192/1 221/221/1 222/222/1
f 222/222/1 193/193/1 192/192/1
f 223/223/30 224/224/30 225/225/30
f 225/225/30 226/226/30 223/223/30
f 227/227/31 228/228/31 229/229/31
f 229/229/31 230/230/31 227/227/31
f 231/231/32 232/232/32 233/233/32
f 234/234/32 235/235/32 236/236/32
f 237/237/33 238/238/33 239/239/33
f 240/240/33 241/241/33 242/242/33
f 243/243/1 244/244/1 245/245/1
f 246/246/1 247/247/1 248/248/1
f 249/249/1 128/128/1 127/127/1
f 127/127/1 250/250/1 249/249/1
f 251/251/1 130/130/1 128/128/1
f 128/128/1 249/249/1 251/251/1
