# Blender v2.79 (sub 0) OBJ File: ''
# www.blender.org
mtllib RoadStraightDoubleA.mtl
o 7_Road-Streight-Double-A
v 0.000000 -0.000715 0.309786
v 0.000000 -0.000714 -0.309786
v -0.216083 -0.000714 -0.309786
v -0.216083 -0.000715 0.309786
v -0.432166 -0.000714 -0.309786
v -0.432166 0.003024 -0.309786
v -0.432166 0.003023 0.309786
v -0.432166 -0.000715 0.309786
v -0.525870 -0.018829 0.309786
v -0.525870 0.003023 0.309786
v -0.525870 0.003024 -0.309786
v -0.525870 -0.018828 -0.309786
v -0.525870 0.003023 0.309786
v -0.515897 0.003023 0.309786
v -0.515897 0.003024 -0.309786
v -0.525870 0.003024 -0.309786
v -0.432166 0.003024 -0.309786
v -0.442139 0.003024 -0.309786
v -0.442139 0.003023 0.309786
v -0.432166 0.003023 0.309786
v -0.515897 -0.000715 0.309786
v -0.442139 -0.000715 0.309786
v -0.442139 -0.000714 -0.309786
v -0.515897 -0.000714 -0.309786
v -0.442139 -0.000714 -0.309786
v -0.442139 -0.000715 0.309786
v -0.442139 0.003023 0.309786
v -0.442139 0.003024 -0.309786
v -0.515897 -0.000715 0.309786
v -0.515897 -0.000714 -0.309786
v -0.515897 0.003024 -0.309786
v -0.515897 0.003023 0.309786
v -0.432166 -0.000715 0.309786
v -0.432166 -0.000714 -0.309786
v 0.216084 -0.000714 -0.309786
v 0.216084 -0.000715 0.309786
v 0.432166 -0.000714 -0.309786
v 0.432166 -0.000715 0.309786
v 0.432166 0.003023 0.309786
v 0.432166 0.003024 -0.309786
v 0.525870 -0.018829 0.309786
v 0.525870 -0.018828 -0.309786
v 0.525870 0.003024 -0.309786
v 0.525870 0.003023 0.309786
v 0.525870 0.003023 0.309786
v 0.525870 0.003024 -0.309786
v 0.515898 0.003024 -0.309786
v 0.515898 0.003023 0.309786
v 0.432166 0.003024 -0.309786
v 0.432166 0.003023 0.309786
v 0.442139 0.003023 0.309786
v 0.442139 0.003024 -0.309786
v 0.515898 -0.000715 0.309786
v 0.515898 -0.000714 -0.309786
v 0.442139 -0.000714 -0.309786
v 0.442139 -0.000715 0.309786
v 0.442139 -0.000714 -0.309786
v 0.442139 0.003024 -0.309786
v 0.442139 0.003023 0.309786
v 0.442139 -0.000715 0.309786
v 0.515898 -0.000715 0.309786
v 0.515898 0.003023 0.309786
v 0.515898 0.003024 -0.309786
v 0.515898 -0.000714 -0.309786
v 0.432166 -0.000715 0.309786
v 0.432166 -0.000714 -0.309786
vt 0.999800 0.750678
vt 0.999800 0.873657
vt 0.938270 0.873658
vt 0.938270 0.750678
vt 0.128194 0.499316
vt 0.127699 0.499316
vt 0.127699 0.417958
vt 0.128194 0.417958
vt 0.125825 0.417958
vt 0.128724 0.417958
vt 0.128724 0.499316
vt 0.125825 0.499316
vt 0.128724 0.417958
vt 0.130047 0.417958
vt 0.130047 0.499316
vt 0.128724 0.499316
vt 0.127699 0.499316
vt 0.126376 0.499316
vt 0.126376 0.417958
vt 0.127699 0.417958
vt 0.146391 0.499496
vt 0.131673 0.499496
vt 0.131673 0.375869
vt 0.146391 0.375869
vt 0.125880 0.499316
vt 0.125880 0.417958
vt 0.126376 0.417958
vt 0.126376 0.499316
vt 0.130543 0.417958
vt 0.130543 0.499316
vt 0.130047 0.499316
vt 0.130047 0.417958
vt 0.875203 0.873658
vt 0.938200 0.873658
vt 0.938200 0.750678
vt 0.875203 0.750678
vt 0.938270 0.873658
vt 0.938270 0.750678
vt 0.128194 0.499316
vt 0.128194 0.417958
vt 0.127699 0.417958
vt 0.127699 0.499316
vt 0.125825 0.417958
vt 0.125825 0.499316
vt 0.128724 0.499316
vt 0.128724 0.417958
vt 0.128724 0.417958
vt 0.128724 0.499316
vt 0.130047 0.499316
vt 0.130047 0.417958
vt 0.127699 0.499316
vt 0.127699 0.417958
vt 0.126376 0.417958
vt 0.126376 0.499316
vt 0.146391 0.499496
vt 0.146391 0.375869
vt 0.131673 0.375869
vt 0.131673 0.499496
vt 0.125880 0.499316
vt 0.126376 0.499316
vt 0.126376 0.417958
vt 0.125880 0.417958
vt 0.130543 0.417958
vt 0.130047 0.417958
vt 0.130047 0.499316
vt 0.130543 0.499316
vt 0.875203 0.873658
vt 0.875203 0.750678
vt 0.938200 0.750678
vt 0.938200 0.873658
vn 0.0000 1.0000 0.0000
vn 1.0000 0.0000 0.0000
vn -1.0000 0.0000 0.0000
usemtl 7_Road-Streight-Double-A
s 1
f 1/1/1 2/2/1 3/3/1
f 3/3/1 4/4/1 1/1/1
f 5/5/2 6/6/2 7/7/2
f 7/7/2 8/8/2 5/5/2
f 9/9/3 10/10/3 11/11/3
f 11/11/3 12/12/3 9/9/3
f 13/13/1 14/14/1 15/15/1
f 15/15/1 16/16/1 13/13/1
f 17/17/1 18/18/1 19/19/1
f 19/19/1 20/20/1 17/17/1
f 21/21/1 22/22/1 23/23/1
f 23/23/1 24/24/1 21/21/1
f 25/25/3 26/26/3 27/27/3
f 27/27/3 28/28/3 25/25/3
f 29/29/2 30/30/2 31/31/2
f 31/31/2 32/32/2 29/29/2
f 33/33/1 4/34/1 3/35/1
f 3/35/1 34/36/1 33/33/1
f 35/37/1 2/2/1 1/1/1
f 1/1/1 36/38/1 35/37/1
f 37/39/3 38/40/3 39/41/3
f 39/41/3 40/42/3 37/39/3
f 41/43/2 42/44/2 43/45/2
f 43/45/2 44/46/2 41/43/2
f 45/47/1 46/48/1 47/49/1
f 47/49/1 48/50/1 45/47/1
f 49/51/1 50/52/1 51/53/1
f 51/53/1 52/54/1 49/51/1
f 53/55/1 54/56/1 55/57/1
f 55/57/1 56/58/1 53/55/1
f 57/59/2 58/60/2 59/61/2
f 59/61/2 60/62/2 57/59/2
f 61/63/3 62/64/3 63/65/3
f 63/65/3 64/66/3 61/63/3
f 65/67/1 66/68/1 35/69/1
f 35/69/1 36/70/1 65/67/1
