# Blender v2.79 (sub 0) OBJ File: ''
# www.blender.org
mtllib RoadCrossCA.mtl
o 7_Road-Cross-C-A
v -0.846924 0.002943 -0.525871
v -0.537122 0.002943 -0.525854
v -0.537122 -0.018908 -0.525854
v -0.846924 -0.018908 -0.525871
v -0.846924 0.002943 -0.515898
v -0.527150 0.002943 -0.515882
v -0.537122 0.002943 -0.525854
v -0.846924 0.002943 -0.525871
v -0.846924 -0.000795 -0.442139
v -0.453395 -0.000795 -0.442127
v -0.527150 -0.000795 -0.515882
v -0.846924 -0.000795 -0.515898
v -0.846924 0.002943 -0.442139
v -0.453395 0.002943 -0.442127
v -0.453395 -0.000795 -0.442127
v -0.846924 -0.000795 -0.442139
v -0.846924 -0.000795 -0.432167
v -0.846924 -0.000795 -0.216084
v -0.227352 -0.000795 -0.216084
v -0.443424 -0.000795 -0.432155
v -0.846924 -0.000795 -0.000001
v -0.443412 -0.000795 -0.000001
v -0.846924 0.002943 -0.432167
v -0.846924 -0.000795 -0.432167
v -0.443424 -0.000795 -0.432155
v -0.443424 0.002943 -0.432155
v -0.453395 0.002943 -0.442127
v -0.846924 0.002943 -0.442139
v -0.846924 0.002943 -0.432167
v -0.443424 0.002943 -0.432155
v -0.846924 0.002943 -0.515898
v -0.846924 -0.000795 -0.515898
v -0.527150 -0.000795 -0.515882
v -0.527150 0.002943 -0.515882
v -0.537138 0.002943 -0.835656
v -0.537138 -0.018908 -0.835656
v -0.527166 0.002943 -0.835656
v -0.537138 0.002943 -0.835656
v -0.453407 -0.000795 -0.835656
v -0.527166 -0.000795 -0.835656
v -0.453407 0.002943 -0.835656
v -0.453407 -0.000795 -0.835656
v -0.443435 -0.000795 -0.835656
v -0.227352 -0.000795 -0.835656
v -0.011269 -0.000795 -0.835656
v -0.011269 -0.000795 -0.432190
v -0.443435 0.002943 -0.835656
v -0.443424 0.002943 -0.432155
v -0.443424 -0.000795 -0.432155
v -0.443424 -0.000795 -0.432155
v -0.443435 -0.000795 -0.835656
v -0.443435 0.002943 -0.835656
v -0.443435 0.002943 -0.835656
v -0.453407 0.002943 -0.835656
v -0.527166 0.002943 -0.835656
v -0.527166 -0.000795 -0.835656
v -0.227352 -0.000795 -0.000001
v -0.846924 0.002943 0.525869
v -0.846924 -0.018908 0.525869
v -0.537122 -0.018908 0.525852
v -0.537122 0.002943 0.525852
v -0.846924 0.002943 0.515897
v -0.846924 0.002943 0.525869
v -0.537122 0.002943 0.525852
v -0.527150 0.002943 0.515881
v -0.846924 -0.000795 0.442138
v -0.846924 -0.000795 0.515897
v -0.527150 -0.000795 0.515881
v -0.453395 -0.000795 0.442126
v -0.846924 0.002943 0.442138
v -0.846924 -0.000795 0.442138
v -0.453395 -0.000795 0.442126
v -0.453395 0.002943 0.442126
v -0.846924 -0.000795 0.432165
v -0.443424 -0.000795 0.432154
v -0.227352 -0.000795 0.216082
v -0.846924 -0.000795 0.216082
v -0.846924 0.002943 0.432165
v -0.443424 0.002943 0.432154
v -0.443424 -0.000795 0.432154
v -0.846924 -0.000795 0.432165
v -0.453395 0.002943 0.442126
v -0.443424 0.002943 0.432154
v -0.846924 0.002943 0.432165
v -0.846924 0.002943 0.442138
v -0.846924 0.002943 0.515897
v -0.527150 0.002943 0.515881
v -0.527150 -0.000795 0.515881
v -0.846924 -0.000795 0.515897
v -0.537138 0.002943 0.835655
v -0.537138 -0.018908 0.835655
v -0.527166 0.002943 0.835655
v -0.537138 0.002943 0.835655
v -0.453407 -0.000795 0.835655
v -0.527166 -0.000795 0.835655
v -0.453407 0.002943 0.835655
v -0.453407 -0.000795 0.835655
v -0.443435 -0.000795 0.835655
v -0.227352 -0.000795 0.835655
v -0.011269 -0.000795 0.835655
v -0.011269 -0.000795 0.432189
v -0.443435 0.002943 0.835655
v -0.443435 -0.000795 0.835655
v -0.443424 -0.000795 0.432154
v -0.443424 -0.000795 0.432154
v -0.443424 0.002943 0.432154
v -0.443435 0.002943 0.835655
v -0.443435 0.002943 0.835655
v -0.453407 0.002943 0.835655
v -0.527166 0.002943 0.835655
v -0.527166 -0.000795 0.835655
v -0.011269 -0.000795 -0.216084
v -0.011269 -0.000795 -0.000001
v -0.011269 -0.000795 0.216082
v 0.824386 0.002943 -0.525871
v 0.824386 -0.018908 -0.525871
v 0.514584 -0.018908 -0.525854
v 0.514584 0.002943 -0.525854
v 0.824386 0.002943 -0.515898
v 0.824386 0.002943 -0.525871
v 0.514584 0.002943 -0.525854
v 0.504612 0.002943 -0.515882
v 0.824386 -0.000795 -0.442139
v 0.824386 -0.000795 -0.515898
v 0.504612 -0.000795 -0.515882
v 0.430857 -0.000795 -0.442127
v 0.824386 0.002943 -0.442139
v 0.824386 -0.000795 -0.442139
v 0.430857 -0.000795 -0.442127
v 0.430857 0.002943 -0.442127
v 0.824386 -0.000795 -0.432167
v 0.420886 -0.000795 -0.432155
v 0.204814 -0.000795 -0.216084
v 0.824386 -0.000795 -0.216084
v 0.420874 -0.000795 -0.000001
v 0.824386 -0.000795 -0.000001
v 0.824386 0.002943 -0.432167
v 0.420886 0.002943 -0.432155
v 0.420886 -0.000795 -0.432155
v 0.420886 -0.000795 -0.432155
v 0.824386 -0.000795 -0.432167
v 0.824386 0.002943 -0.432167
v 0.430857 0.002943 -0.442127
v 0.420886 0.002943 -0.432155
v 0.824386 0.002943 -0.432167
v 0.824386 0.002943 -0.442139
v 0.824386 0.002943 -0.515898
v 0.504612 0.002943 -0.515882
v 0.504612 -0.000795 -0.515882
v 0.824386 -0.000795 -0.515898
v 0.514601 0.002943 -0.835656
v 0.514601 -0.018908 -0.835656
v 0.504628 0.002943 -0.835656
v 0.514601 0.002943 -0.835656
v 0.430870 -0.000795 -0.835656
v 0.504628 -0.000795 -0.835656
v 0.430870 0.002943 -0.835656
v 0.430870 -0.000795 -0.835656
v 0.420897 -0.000795 -0.835656
v 0.204814 -0.000795 -0.835656
v 0.420897 0.002943 -0.835656
v 0.420897 -0.000795 -0.835656
v 0.420886 -0.000795 -0.432155
v 0.420886 -0.000795 -0.432155
v 0.420886 0.002943 -0.432155
v 0.420897 0.002943 -0.835656
v 0.430870 0.002943 -0.835656
v 0.420897 0.002943 -0.835656
v 0.504628 0.002943 -0.835656
v 0.504628 -0.000795 -0.835656
v 0.204814 -0.000795 -0.000001
v 0.824386 0.002943 0.525869
v 0.514584 0.002943 0.525852
v 0.514584 -0.018908 0.525852
v 0.824386 -0.018908 0.525869
v 0.824386 0.002943 0.515897
v 0.504612 0.002943 0.515881
v 0.514584 0.002943 0.525852
v 0.824386 0.002943 0.525869
v 0.824386 -0.000795 0.442138
v 0.430857 -0.000795 0.442126
v 0.504612 -0.000795 0.515881
v 0.824386 -0.000795 0.515897
v 0.824386 0.002943 0.442138
v 0.430857 0.002943 0.442126
v 0.430857 -0.000795 0.442126
v 0.824386 -0.000795 0.442138
v 0.824386 -0.000795 0.432165
v 0.824386 -0.000795 0.216082
v 0.204814 -0.000795 0.216082
v 0.420886 -0.000795 0.432154
v 0.824386 0.002943 0.432165
v 0.824386 -0.000795 0.432165
v 0.420886 -0.000795 0.432154
v 0.420886 -0.000795 0.432154
v 0.420886 0.002943 0.432154
v 0.824386 0.002943 0.432165
v 0.430857 0.002943 0.442126
v 0.824386 0.002943 0.442138
v 0.824386 0.002943 0.432165
v 0.420886 0.002943 0.432154
v 0.824386 0.002943 0.515897
v 0.824386 -0.000795 0.515897
v 0.504612 -0.000795 0.515881
v 0.504612 0.002943 0.515881
v 0.514601 0.002943 0.835655
v 0.514601 -0.018908 0.835655
v 0.504628 0.002943 0.835655
v 0.514601 0.002943 0.835655
v 0.430870 -0.000795 0.835655
v 0.504628 -0.000795 0.835655
v 0.430870 0.002943 0.835655
v 0.430870 -0.000795 0.835655
v 0.420897 -0.000795 0.835655
v 0.204814 -0.000795 0.835655
v 0.420897 0.002943 0.835655
v 0.420886 0.002943 0.432154
v 0.420886 -0.000795 0.432154
v 0.420886 -0.000795 0.432154
v 0.420897 -0.000795 0.835655
v 0.420897 0.002943 0.835655
v 0.420897 0.002943 0.835655
v 0.430870 0.002943 0.835655
v 0.504628 0.002943 0.835655
v 0.504628 -0.000795 0.835655
vt 0.127663 0.417958
vt 0.127663 0.458641
vt 0.130562 0.458641
vt 0.130562 0.417958
vt 0.126340 0.417958
vt 0.126340 0.459950
vt 0.127663 0.458641
vt 0.127663 0.417958
vt 0.186204 0.499496
vt 0.186204 0.420970
vt 0.171486 0.435686
vt 0.171486 0.499496
vt 0.127666 0.417958
vt 0.127666 0.469635
vt 0.128162 0.469635
vt 0.128162 0.417958
vt 0.499850 0.126737
vt 0.437214 0.126737
vt 0.437214 0.228731
vt 0.499850 0.193163
vt 0.437144 0.228731
vt 0.375207 0.228731
vt 0.375207 0.162312
vt 0.437144 0.126737
vt 0.126343 0.417958
vt 0.125847 0.417958
vt 0.125847 0.470945
vt 0.126343 0.470945
vt 0.127666 0.469635
vt 0.127666 0.417958
vt 0.126343 0.417958
vt 0.126343 0.470945
vt 0.126340 0.417958
vt 0.125844 0.417958
vt 0.125844 0.459950
vt 0.126340 0.459950
vt 0.127663 0.417958
vt 0.130562 0.417958
vt 0.126340 0.417958
vt 0.127663 0.417958
vt 0.186204 0.499496
vt 0.171486 0.499496
vt 0.127666 0.417958
vt 0.128162 0.417958
vt 0.499850 0.126737
vt 0.437214 0.126737
vt 0.375207 0.228731
vt 0.437144 0.228731
vt 0.375207 0.162312
vt 0.126343 0.417958
vt 0.126343 0.470945
vt 0.125847 0.470945
vt 0.125847 0.470945
vt 0.125847 0.417958
vt 0.126343 0.417958
vt 0.126343 0.417958
vt 0.127666 0.417958
vt 0.126340 0.417958
vt 0.125844 0.417958
vt 0.437144 0.162308
vt 0.127663 0.417958
vt 0.130562 0.417958
vt 0.130562 0.458641
vt 0.127663 0.458641
vt 0.126340 0.417958
vt 0.127663 0.417958
vt 0.127663 0.458641
vt 0.126340 0.459950
vt 0.186204 0.499496
vt 0.171486 0.499496
vt 0.171486 0.435686
vt 0.186204 0.420970
vt 0.127666 0.417958
vt 0.128162 0.417958
vt 0.128162 0.469635
vt 0.127666 0.469635
vt 0.499850 0.126737
vt 0.499850 0.193163
vt 0.437214 0.228731
vt 0.437214 0.126737
vt 0.437144 0.228731
vt 0.437144 0.126737
vt 0.126343 0.417958
vt 0.126343 0.470945
vt 0.125847 0.470945
vt 0.125847 0.417958
vt 0.127666 0.469635
vt 0.126343 0.470945
vt 0.126343 0.417958
vt 0.127666 0.417958
vt 0.126340 0.417958
vt 0.126340 0.459950
vt 0.125844 0.459950
vt 0.125844 0.417958
vt 0.127663 0.417958
vt 0.130562 0.417958
vt 0.126340 0.417958
vt 0.127663 0.417958
vt 0.186204 0.499496
vt 0.171486 0.499496
vt 0.127666 0.417958
vt 0.128162 0.417958
vt 0.499850 0.126737
vt 0.437214 0.126737
vt 0.375207 0.228731
vt 0.375207 0.162312
vt 0.437144 0.228731
vt 0.126343 0.417958
vt 0.125847 0.417958
vt 0.125847 0.470945
vt 0.125847 0.470945
vt 0.126343 0.470945
vt 0.126343 0.417958
vt 0.126343 0.417958
vt 0.127666 0.417958
vt 0.126340 0.417958
vt 0.125844 0.417958
vt 0.437214 0.193159
vt 0.499850 0.193159
vt 0.437144 0.162308
vt 0.437214 0.193159
vt 0.437214 0.193159
vt 0.437144 0.162308
vt 0.127663 0.417958
vt 0.130562 0.417958
vt 0.130562 0.458641
vt 0.127663 0.458641
vt 0.126340 0.417958
vt 0.127663 0.417958
vt 0.127663 0.458641
vt 0.126340 0.459950
vt 0.186204 0.499496
vt 0.171486 0.499496
vt 0.171486 0.435686
vt 0.186204 0.420970
vt 0.127666 0.417958
vt 0.128162 0.417958
vt 0.128162 0.469635
vt 0.127666 0.469635
vt 0.499850 0.126737
vt 0.499850 0.193163
vt 0.437214 0.228731
vt 0.437214 0.126737
vt 0.437144 0.126737
vt 0.437144 0.228731
vt 0.375207 0.162312
vt 0.375207 0.228731
vt 0.126343 0.417958
vt 0.126343 0.470945
vt 0.125847 0.470945
vt 0.125847 0.470945
vt 0.125847 0.417958
vt 0.126343 0.417958
vt 0.127666 0.469635
vt 0.126343 0.470945
vt 0.126343 0.417958
vt 0.127666 0.417958
vt 0.126340 0.417958
vt 0.126340 0.459950
vt 0.125844 0.459950
vt 0.125844 0.417958
vt 0.127663 0.417958
vt 0.130562 0.417958
vt 0.126340 0.417958
vt 0.127663 0.417958
vt 0.186204 0.499496
vt 0.171486 0.499496
vt 0.127666 0.417958
vt 0.128162 0.417958
vt 0.499850 0.126737
vt 0.437214 0.126737
vt 0.437144 0.228731
vt 0.126343 0.417958
vt 0.125847 0.417958
vt 0.125847 0.470945
vt 0.125847 0.470945
vt 0.126343 0.470945
vt 0.126343 0.417958
vt 0.127666 0.417958
vt 0.126343 0.417958
vt 0.126340 0.417958
vt 0.125844 0.417958
vt 0.437144 0.162308
vt 0.127663 0.417958
vt 0.127663 0.458641
vt 0.130562 0.458641
vt 0.130562 0.417958
vt 0.126340 0.417958
vt 0.126340 0.459950
vt 0.127663 0.458641
vt 0.127663 0.417958
vt 0.186204 0.499496
vt 0.186204 0.420970
vt 0.171486 0.435686
vt 0.171486 0.499496
vt 0.127666 0.417958
vt 0.127666 0.469635
vt 0.128162 0.469635
vt 0.128162 0.417958
vt 0.499850 0.126737
vt 0.437214 0.126737
vt 0.437214 0.228731
vt 0.499850 0.193163
vt 0.437144 0.228731
vt 0.437144 0.126737
vt 0.126343 0.417958
vt 0.125847 0.417958
vt 0.125847 0.470945
vt 0.125847 0.470945
vt 0.126343 0.470945
vt 0.126343 0.417958
vt 0.127666 0.469635
vt 0.127666 0.417958
vt 0.126343 0.417958
vt 0.126343 0.470945
vt 0.126340 0.417958
vt 0.125844 0.417958
vt 0.125844 0.459950
vt 0.126340 0.459950
vt 0.127663 0.417958
vt 0.130562 0.417958
vt 0.126340 0.417958
vt 0.127663 0.417958
vt 0.186204 0.499496
vt 0.171486 0.499496
vt 0.127666 0.417958
vt 0.128162 0.417958
vt 0.499850 0.126737
vt 0.437214 0.126737
vt 0.437144 0.228731
vt 0.126343 0.417958
vt 0.126343 0.470945
vt 0.125847 0.470945
vt 0.125847 0.470945
vt 0.125847 0.417958
vt 0.126343 0.417958
vt 0.126343 0.417958
vt 0.127666 0.417958
vt 0.126340 0.417958
vt 0.125844 0.417958
vt 0.437214 0.193159
vn 0.0001 0.0000 -1.0000
vn -0.7071 0.0000 -0.7071
vn -0.0000 1.0000 0.0000
vn 0.0000 0.0000 -1.0000
vn -0.0000 0.0000 1.0000
vn 0.7071 0.0000 0.7071
vn -1.0000 0.0000 0.0001
vn -1.0000 0.0000 0.0000
vn 1.0000 0.0000 -0.0000
vn 1.0000 0.0000 -0.0001
vn 0.0001 0.0000 1.0000
vn -0.7071 0.0000 0.7071
vn 0.7071 0.0000 -0.7071
vn -1.0000 0.0000 -0.0001
vn 1.0000 0.0000 0.0001
vn -0.0001 0.0000 -1.0000
vn -0.0001 0.0000 1.0000
usemtl 7_Road-Cross-C-A
s 1
f 1/1/1 2/2/2 3/3/2
f 3/3/2 4/4/1 1/1/1
f 5/5/3 6/6/3 7/7/3
f 7/7/3 8/8/3 5/5/3
f 9/9/3 10/10/3 11/11/3
f 11/11/3 12/12/3 9/9/3
f 13/13/4 14/14/2 15/15/2
f 15/15/2 16/16/4 13/13/4
f 17/17/3 18/18/3 19/19/3
f 19/19/3 20/20/3 17/17/3
f 18/21/3 21/22/3 22/23/3
f 22/23/3 19/24/3 18/21/3
f 23/25/5 24/26/5 25/27/5
f 25/27/5 26/28/5 23/25/5
f 27/29/3 28/30/3 29/31/3
f 29/31/3 30/32/3 27/29/3
f 31/33/5 32/34/5 33/35/6
f 33/35/6 34/36/6 31/33/5
f 3/3/2 2/2/2 35/37/7
f 35/37/7 36/38/7 3/3/2
f 7/7/3 6/6/3 37/39/3
f 37/39/3 38/40/3 7/7/3
f 11/11/3 10/10/3 39/41/3
f 39/41/3 40/42/3 11/11/3
f 15/15/2 14/14/2 41/43/8
f 41/43/8 42/44/8 15/15/2
f 43/45/3 20/20/3 19/19/3
f 19/19/3 44/46/3 43/45/3
f 45/47/3 44/48/3 19/24/3
f 19/24/3 46/49/3 45/47/3
f 47/50/9 48/51/9 49/52/9
f 50/53/9 51/54/9 52/55/9
f 27/29/3 30/32/3 53/56/3
f 53/56/3 54/57/3 27/29/3
f 55/58/10 34/36/6 33/35/6
f 33/35/6 56/59/10 55/58/10
f 57/60/3 19/24/3 22/23/3
f 58/61/11 59/62/11 60/63/12
f 60/63/12 61/64/12 58/61/11
f 62/65/3 63/66/3 64/67/3
f 64/67/3 65/68/3 62/65/3
f 66/69/3 67/70/3 68/71/3
f 68/71/3 69/72/3 66/69/3
f 70/73/5 71/74/5 72/75/12
f 72/75/12 73/76/12 70/73/5
f 74/77/3 75/78/3 76/79/3
f 76/79/3 77/80/3 74/77/3
f 22/23/3 21/22/3 77/81/3
f 77/81/3 76/82/3 22/23/3
f 57/60/3 22/23/3 76/82/3
f 78/83/4 79/84/4 80/85/4
f 80/85/4 81/86/4 78/83/4
f 82/87/3 83/88/3 84/89/3
f 84/89/3 85/90/3 82/87/3
f 86/91/4 87/92/13 88/93/13
f 88/93/13 89/94/4 86/91/4
f 90/95/14 61/64/12 60/63/12
f 60/63/12 91/96/14 90/95/14
f 92/97/3 65/68/3 64/67/3
f 64/67/3 93/98/3 92/97/3
f 94/99/3 69/72/3 68/71/3
f 68/71/3 95/100/3 94/99/3
f 96/101/8 73/76/12 72/75/12
f 72/75/12 97/102/8 96/101/8
f 76/79/3 75/78/3 98/103/3
f 98/103/3 99/104/3 76/79/3
f 100/105/3 101/106/3 76/82/3
f 76/82/3 99/107/3 100/105/3
f 102/108/9 103/109/9 104/110/9
f 105/111/9 106/112/9 107/113/9
f 108/114/3 83/88/3 82/87/3
f 82/87/3 109/115/3 108/114/3
f 88/93/13 87/92/13 110/116/15
f 110/116/15 111/117/15 88/93/13
f 112/118/3 19/19/3 113/119/3
f 46/49/3 19/24/3 112/120/3
f 113/119/3 57/121/3 76/79/3
f 19/19/3 57/121/3 113/119/3
f 113/119/3 76/79/3 114/122/3
f 114/123/3 76/82/3 101/106/3
f 115/124/16 116/125/16 117/126/13
f 117/126/13 118/127/13 115/124/16
f 119/128/3 120/129/3 121/130/3
f 121/130/3 122/131/3 119/128/3
f 123/132/3 124/133/3 125/134/3
f 125/134/3 126/135/3 123/132/3
f 127/136/4 128/137/4 129/138/13
f 129/138/13 130/139/13 127/136/4
f 131/140/3 132/141/3 133/142/3
f 112/118/3 113/119/3 133/142/3
f 133/142/3 134/143/3 131/140/3
f 45/47/3 46/49/3 133/144/3
f 46/49/3 112/120/3 133/144/3
f 134/145/3 133/144/3 135/146/3
f 135/146/3 136/147/3 134/145/3
f 137/148/5 138/149/5 139/150/5
f 140/151/5 141/152/5 142/153/5
f 143/154/3 144/155/3 145/156/3
f 145/156/3 146/157/3 143/154/3
f 147/158/5 148/159/12 149/160/12
f 149/160/12 150/161/5 147/158/5
f 151/162/15 118/127/13 117/126/13
f 117/126/13 152/163/15 151/162/15
f 153/164/3 122/131/3 121/130/3
f 121/130/3 154/165/3 153/164/3
f 155/166/3 126/135/3 125/134/3
f 125/134/3 156/167/3 155/166/3
f 157/168/9 130/139/13 129/138/13
f 129/138/13 158/169/9 157/168/9
f 133/142/3 132/141/3 159/170/3
f 159/170/3 160/171/3 133/142/3
f 133/144/3 160/172/3 45/47/3
f 161/173/8 162/174/8 163/175/8
f 164/176/8 165/177/8 166/178/8
f 143/154/3 167/179/3 168/180/3
f 168/180/3 144/155/3 143/154/3
f 149/160/12 148/159/12 169/181/8
f 169/181/8 170/182/8 149/160/12
f 171/183/3 135/146/3 133/144/3
f 172/184/17 173/185/6 174/186/6
f 174/186/6 175/187/17 172/184/17
f 176/188/3 177/189/3 178/190/3
f 178/190/3 179/191/3 176/188/3
f 180/192/3 181/193/3 182/194/3
f 182/194/3 183/195/3 180/192/3
f 184/196/5 185/197/6 186/198/6
f 186/198/6 187/199/5 184/196/5
f 188/200/3 189/201/3 190/202/3
f 113/119/3 114/122/3 190/202/3
f 190/202/3 191/203/3 188/200/3
f 189/204/3 136/147/3 135/146/3
f 190/205/3 101/106/3 100/105/3
f 171/183/3 190/205/3 135/146/3
f 135/146/3 190/205/3 189/204/3
f 114/123/3 101/106/3 190/205/3
f 192/206/4 193/207/4 194/208/4
f 195/209/4 196/210/4 197/211/4
f 198/212/3 199/213/3 200/214/3
f 200/214/3 201/215/3 198/212/3
f 202/216/4 203/217/4 204/218/2
f 204/218/2 205/219/2 202/216/4
f 174/186/6 173/185/6 206/220/10
f 206/220/10 207/221/10 174/186/6
f 178/190/3 177/189/3 208/222/3
f 208/222/3 209/223/3 178/190/3
f 182/194/3 181/193/3 210/224/3
f 210/224/3 211/225/3 182/194/3
f 186/198/6 185/197/6 212/226/9
f 212/226/9 213/227/9 186/198/6
f 214/228/3 191/203/3 190/202/3
f 190/202/3 215/229/3 214/228/3
f 100/105/3 215/230/3 190/205/3
f 216/231/8 217/232/8 218/233/8
f 219/234/8 220/235/8 221/236/8
f 198/212/3 201/215/3 222/237/3
f 222/237/3 223/238/3 198/212/3
f 224/239/8 205/219/2 204/218/2
f 204/218/2 225/240/8 224/239/8
f 113/119/3 171/241/3 133/142/3
f 113/119/3 190/202/3 171/241/3
