# Blender v2.79 (sub 0) OBJ File: ''
# www.blender.org
mtllib RoadStraight.mtl
o 7_Road-Streight
v 0.216084 -0.000760 0.000002
v 0.216084 -0.000761 0.619574
v 0.216084 0.002977 0.619574
v 0.216084 0.002977 0.000002
v 0.309788 -0.018874 0.619574
v 0.309788 -0.018874 0.000002
v 0.309788 0.002977 0.000002
v 0.309788 0.002977 0.619574
v 0.309788 0.002977 0.619574
v 0.309788 0.002977 0.000002
v 0.299815 0.002977 0.000002
v 0.299815 0.002977 0.619574
v 0.216084 0.002977 0.000002
v 0.216084 0.002977 0.619574
v 0.226056 0.002977 0.619574
v 0.226056 0.002977 0.000002
v 0.299815 -0.000761 0.619574
v 0.299815 -0.000760 0.000002
v 0.226056 -0.000760 0.000002
v 0.226056 -0.000761 0.619574
v 0.226056 -0.000760 0.000002
v 0.226056 0.002977 0.000002
v 0.226056 0.002977 0.619574
v 0.226056 -0.000761 0.619574
v 0.299815 -0.000761 0.619574
v 0.299815 0.002977 0.619574
v 0.299815 0.002977 0.000002
v 0.299815 -0.000760 0.000002
v 0.216084 -0.000761 0.619574
v 0.216084 -0.000760 0.000002
v 0.000001 -0.000760 0.000002
v 0.000001 -0.000761 0.619574
v -0.216082 -0.000760 0.000002
v -0.216082 0.002977 0.000002
v -0.216082 0.002977 0.619574
v -0.216082 -0.000761 0.619574
v -0.309785 -0.018874 0.619574
v -0.309785 0.002977 0.619574
v -0.309785 0.002977 0.000002
v -0.309785 -0.018874 0.000002
v -0.309785 0.002977 0.619574
v -0.299813 0.002977 0.619574
v -0.299813 0.002977 0.000002
v -0.309785 0.002977 0.000002
v -0.216082 0.002977 0.000002
v -0.226055 0.002977 0.000002
v -0.226055 0.002977 0.619574
v -0.216082 0.002977 0.619574
v -0.299813 -0.000761 0.619574
v -0.226055 -0.000761 0.619574
v -0.226055 -0.000760 0.000002
v -0.299813 -0.000760 0.000002
v -0.226055 -0.000760 0.000002
v -0.226055 -0.000761 0.619574
v -0.226055 0.002977 0.619574
v -0.226055 0.002977 0.000002
v -0.299813 -0.000761 0.619574
v -0.299813 -0.000760 0.000002
v -0.299813 0.002977 0.000002
v -0.299813 0.002977 0.619574
v -0.216082 -0.000761 0.619574
v -0.216082 -0.000760 0.000002
v 0.216084 -0.000760 -0.619571
v 0.216084 0.002978 -0.619571
v 0.309788 -0.018873 -0.619571
v 0.309788 0.002978 -0.619571
v 0.309788 0.002978 -0.619571
v 0.299815 0.002978 -0.619571
v 0.216084 0.002978 -0.619571
v 0.226056 0.002978 -0.619571
v 0.299815 -0.000760 -0.619571
v 0.226056 -0.000760 -0.619571
v 0.226056 -0.000760 -0.619571
v 0.226056 0.002978 -0.619571
v 0.299815 0.002978 -0.619571
v 0.299815 -0.000760 -0.619571
v 0.216084 -0.000760 -0.619571
v 0.000001 -0.000760 -0.619571
v -0.216082 -0.000760 -0.619571
v -0.216082 0.002978 -0.619571
v -0.309785 0.002978 -0.619571
v -0.309785 -0.018873 -0.619571
v -0.299813 0.002978 -0.619571
v -0.309785 0.002978 -0.619571
v -0.216082 0.002978 -0.619571
v -0.226055 0.002978 -0.619571
v -0.226055 -0.000760 -0.619571
v -0.299813 -0.000760 -0.619571
v -0.226055 -0.000760 -0.619571
v -0.226055 0.002978 -0.619571
v -0.299813 -0.000760 -0.619571
v -0.299813 0.002978 -0.619571
v -0.216082 -0.000760 -0.619571
vt 0.125847 0.499316
vt 0.125847 0.417958
vt 0.126343 0.417958
vt 0.126343 0.499316
vt 0.130562 0.417958
vt 0.130562 0.499316
vt 0.127663 0.499316
vt 0.127663 0.417958
vt 0.127663 0.417958
vt 0.127663 0.499316
vt 0.126340 0.499316
vt 0.126340 0.417958
vt 0.126343 0.499316
vt 0.126343 0.417958
vt 0.127666 0.417958
vt 0.127666 0.499316
vt 0.171486 0.499496
vt 0.171486 0.375869
vt 0.186204 0.375869
vt 0.186204 0.499496
vt 0.128162 0.499316
vt 0.127666 0.499316
vt 0.127666 0.417958
vt 0.128162 0.417958
vt 0.125844 0.417958
vt 0.126340 0.417958
vt 0.126340 0.499316
vt 0.125844 0.499316
vt 0.124672 0.375523
vt 0.124672 0.498502
vt 0.063037 0.498502
vt 0.063037 0.375523
vt 0.128194 0.499316
vt 0.127699 0.499316
vt 0.127699 0.417958
vt 0.128194 0.417958
vt 0.125825 0.417958
vt 0.128724 0.417958
vt 0.128724 0.499316
vt 0.125825 0.499316
vt 0.128724 0.417958
vt 0.130047 0.417958
vt 0.130047 0.499316
vt 0.128724 0.499316
vt 0.127699 0.499316
vt 0.126376 0.499316
vt 0.126376 0.417958
vt 0.127699 0.417958
vt 0.171392 0.499496
vt 0.156674 0.499496
vt 0.156674 0.375868
vt 0.171392 0.375868
vt 0.125880 0.499316
vt 0.125880 0.417958
vt 0.126376 0.417958
vt 0.126376 0.499316
vt 0.130543 0.417958
vt 0.130543 0.499316
vt 0.130047 0.499316
vt 0.130047 0.417958
vt 0.000225 0.498502
vt 0.062967 0.498502
vt 0.062967 0.375523
vt 0.000225 0.375523
vt 0.125880 0.499316
vt 0.125880 0.417958
vt 0.126376 0.417958
vt 0.126376 0.499316
vt 0.130541 0.417958
vt 0.130541 0.499316
vt 0.127642 0.499316
vt 0.127642 0.417958
vt 0.127642 0.417958
vt 0.127642 0.499316
vt 0.126319 0.499316
vt 0.126319 0.417958
vt 0.126376 0.499316
vt 0.126376 0.417958
vt 0.127699 0.417958
vt 0.127699 0.499316
vt 0.144215 0.499496
vt 0.144215 0.375868
vt 0.158933 0.375868
vt 0.158933 0.499496
vt 0.128194 0.499316
vt 0.127699 0.499316
vt 0.127699 0.417958
vt 0.128194 0.417958
vt 0.125824 0.417958
vt 0.126319 0.417958
vt 0.126319 0.499316
vt 0.125824 0.499316
vt 0.999800 0.750678
vt 0.999800 0.873657
vt 0.938270 0.873658
vt 0.938270 0.750678
vt 0.128194 0.499316
vt 0.127699 0.499316
vt 0.127699 0.417958
vt 0.128194 0.417958
vt 0.125825 0.417958
vt 0.128724 0.417958
vt 0.128724 0.499316
vt 0.125825 0.499316
vt 0.128724 0.417958
vt 0.130047 0.417958
vt 0.130047 0.499316
vt 0.128724 0.499316
vt 0.127699 0.499316
vt 0.126376 0.499316
vt 0.126376 0.417958
vt 0.127699 0.417958
vt 0.146391 0.499496
vt 0.131673 0.499496
vt 0.131673 0.375869
vt 0.146391 0.375869
vt 0.125880 0.499316
vt 0.125880 0.417958
vt 0.126376 0.417958
vt 0.126376 0.499316
vt 0.130543 0.417958
vt 0.130543 0.499316
vt 0.130047 0.499316
vt 0.130047 0.417958
vt 0.875203 0.873658
vt 0.938200 0.873658
vt 0.938200 0.750678
vt 0.875203 0.750678
vn -1.0000 -0.0000 0.0000
vn 1.0000 -0.0000 0.0000
vn 0.0000 1.0000 0.0000
usemtl 7_Road-Streight
s 1
f 1/1/1 2/2/1 3/3/1
f 3/3/1 4/4/1 1/1/1
f 5/5/2 6/6/2 7/7/2
f 7/7/2 8/8/2 5/5/2
f 9/9/3 10/10/3 11/11/3
f 11/11/3 12/12/3 9/9/3
f 13/13/3 14/14/3 15/15/3
f 15/15/3 16/16/3 13/13/3
f 17/17/3 18/18/3 19/19/3
f 19/19/3 20/20/3 17/17/3
f 21/21/2 22/22/2 23/23/2
f 23/23/2 24/24/2 21/21/2
f 25/25/1 26/26/1 27/27/1
f 27/27/1 28/28/1 25/25/1
f 29/29/3 30/30/3 31/31/3
f 31/31/3 32/32/3 29/29/3
f 33/33/2 34/34/2 35/35/2
f 35/35/2 36/36/2 33/33/2
f 37/37/1 38/38/1 39/39/1
f 39/39/1 40/40/1 37/37/1
f 41/41/3 42/42/3 43/43/3
f 43/43/3 44/44/3 41/41/3
f 45/45/3 46/46/3 47/47/3
f 47/47/3 48/48/3 45/45/3
f 49/49/3 50/50/3 51/51/3
f 51/51/3 52/52/3 49/49/3
f 53/53/1 54/54/1 55/55/1
f 55/55/1 56/56/1 53/53/1
f 57/57/2 58/58/2 59/59/2
f 59/59/2 60/60/2 57/57/2
f 61/61/3 32/62/3 31/63/3
f 31/63/3 62/64/3 61/61/3
f 63/65/1 1/66/1 4/67/1
f 4/67/1 64/68/1 63/65/1
f 6/69/2 65/70/2 66/71/2
f 66/71/2 7/72/2 6/69/2
f 10/73/3 67/74/3 68/75/3
f 68/75/3 11/76/3 10/73/3
f 69/77/3 13/78/3 16/79/3
f 16/79/3 70/80/3 69/77/3
f 18/81/3 71/82/3 72/83/3
f 72/83/3 19/84/3 18/81/3
f 73/85/2 74/86/2 22/87/2
f 22/87/2 21/88/2 73/85/2
f 28/89/1 27/90/1 75/91/1
f 75/91/1 76/92/1 28/89/1
f 30/93/3 77/94/3 78/95/3
f 78/95/3 31/96/3 30/93/3
f 79/97/2 80/98/2 34/99/2
f 34/99/2 33/100/2 79/97/2
f 40/101/1 39/102/1 81/103/1
f 81/103/1 82/104/1 40/101/1
f 44/105/3 43/106/3 83/107/3
f 83/107/3 84/108/3 44/105/3
f 85/109/3 86/110/3 46/111/3
f 46/111/3 45/112/3 85/109/3
f 52/113/3 51/114/3 87/115/3
f 87/115/3 88/116/3 52/113/3
f 89/117/1 53/118/1 56/119/1
f 56/119/1 90/120/1 89/117/1
f 58/121/2 91/122/2 92/123/2
f 92/123/2 59/124/2 58/121/2
f 62/125/3 31/126/3 78/127/3
f 78/127/3 93/128/3 62/125/3
